<mxfile host="Electron" modified="2024-03-19T13:31:12.274Z" agent="Mozilla/5.0 (Windows NT 10.0; Win64; x64) AppleWebKit/537.36 (KHTML, like Gecko) draw.io/21.6.8 Chrome/114.0.5735.289 Electron/25.5.0 Safari/537.36" etag="US3GjrCg5rWcqLVTRBVR" version="21.6.8" type="device" pages="2">
  <diagram name="ページ1" id="LYSEtO0YvN-xVS054ybt">
    <mxGraphModel dx="1311" dy="812" grid="1" gridSize="10" guides="1" tooltips="1" connect="1" arrows="1" fold="1" page="1" pageScale="1" pageWidth="827" pageHeight="1169" math="0" shadow="0">
      <root>
        <mxCell id="0" />
        <mxCell id="1" parent="0" />
        <mxCell id="WG17gEwbPGLVQM60f4UX-1" value="" style="shape=image;verticalLabelPosition=bottom;labelBackgroundColor=default;verticalAlign=top;aspect=fixed;imageAspect=0;image=data:image/png,iVBORw0KGgoAAAANSUhEUgAABaAAAAMgCAYAAADVwMUqAAAACXBIWXMAAAsTAAALEwEAmpwYAAAAAXNSR0IArs4c6QAAAARnQU1BAACxjwv8YQUAAbeTSURBVHgB7P0JnGRXfSd6nizVXqUqrSUhsUkIKLFJLBJiXyRWGxCbMV4b+9nvfR7u7vFbPtN4Xs/0zHwamJnX3c/zjOfzuj/jbdr2a7fb4AWDDWIHgcQiJBaJRUJCa1WpVItUe2VOnJt5Uidv3XsjMjMiMuvE9wuhiIy4ceNGZNysc37xj/+d2rlz50wAAAAAAIAhWxMAAAAAAGAEBNAAAAAAAIyEABoAAAAAgJEQQAMAAAAAMBICaAAAAAAARkIADQAAAADASAigAQAAAAAYCQE0AAAAAAAjIYAGAAAAAGAkBNAAAAAAAIyEABoAAAAAgJEQQAMAAAAAMBICaAAAAAAARkIADQAAAADASAigAQAAAAAYCQE0AAAAAAAjIYAGAAAAAGAkBNAAAAAAAIyEABoAAAAAgJEQQAMAAAAAMBICaAAAAAAARkIADQAAAADASAigAQAAAAAYCQE0AAAAAAAjIYAGAAAAAGAkBNAAAAAAAIyEABoAAAAAgJEQQAMAAAAAMBICaAAAAAAARkIADQAAAADASAigAQAAAAAKdeaZZ4aVJIAGAAAAAPr6lV/5lfDpT386fP/73w9//Md/HC6++OL562666abwwQ9+sLpuKWJI+tGPfnTBdXG91157bViOnTt3Vtsaty+u//rrrx/ofr/3e78Xrr766r7LxecctzOe4vrf//73h+WIzzeua1ihcXwey30Nl2ttAAAAAADoEIPcD3zgA+FXf/VXw3333Rfe/va3V4HrgQMHwu/8zu9U57/1W79VBbJxmcXatm1b9Ri5j3zkI+H2228PyxED2BtuuKHaxhgox/P777+/CqS71LelTQzc4/rjKYrPPz6XD33oQ2Ep4nbF533w4MEwDPF5xEB7JQmgAQAAAIBOMXCOIWsKbmOwG6uJ/+RP/mT+uhi6purdFKDGy/G+8Tzevx4oX3XVVa2Vxvfee+8p18WANwbgH/vYx6rzLnHdeRgcA/N4XawIzgPotA1x2+I2xirmeL/4/GLAXK/MrosV4Wl9MeCOr00eQMf1X3fdddV60vNPj5meS+6iiy5a8HP+GjY977Sd9XWl5xEfe2pqqu/zGBUtOAAAAACATjH8jFXOdU3XxdAziUFsagERw+q8HUQMTlNQGwPWunhb3tIjhawpFB6k3Ud9++L98/YWcR2x4jhucwyHY8VwWm+8run59Xu8fP3pOcbrU/gcg+H0vGPVeKwsT+Ljx+ty8bmm7YqX88A+ristH89jS5S0nvQ82n5341JsBXT+SQsAAAAAMF4xAI2BcwpMYyVu/Dm1q4ihcwyl4ylW7vZrFRHD41RpHNcdw90YHvfbhlihnMsrgVMP67xiObXryKu7BxHzyBgC5+vPn2MSX4dYJR2f880333xKxXQuVXHHbYrPJW5XDJfTdsV2J/Ex488x4E6PFy+n5xG3J73mK2HVBtDxFxbfAPEXkj41iG+yfj1kUvPz+GIP0igcAAAAABidmNelXsz1oHUxlbnpwIAxUI7ng4TD9Twx5oZ5hXK83K+VRz/xOcVTLIaN29bvOeaPX6/IbhLvH4PoGLbXw+z8vnkv6tVkVQbQ8dOLmNDXX/xBPtFY6abaAAAAAMDjYnAcc72Y2+UV0IuReibH+8eg94//+I8Hvm8eMNdbZAxDbKFR7+M8TLECOr5+sdI5Ppe28D31is4D6tVg1fWAjm+m+ClB/ZOAWDa+Uo2yAQAAAIDFiWFvDItjeBpzvRjU5j2g4+2XX355dTkdkK/N/fffX+WFMYyN54P0f16t4vNMzzu+HoM87xg+x+rqGObnzz0G0ek1jeFzUy/tlbbqKqDzEvVUlr/cMngAAAAAYHliGFr36KOPLvg5Bs6p5US8HLO9GDzHUwxQY9eD5MMf/nBVyZxC0/xgfOn+ScwHUxV1un6Q4781LVN/Hk3L5M+jn/pr0O/2+BrkzzsdOLBJet5x+dTiI+8AEV/fGErHdcXtbWpf3G/7Rm1q586dM2GViGl9fMGi+OLG/s+LUW/BkT5JAAAAAACWLuZu9SLRWJmbh7epo0FToNt0/3631defrotiJfRSilbr61zMYw9b02OnXs/1Y9ul6u9hvIbjtqoqoPMXdjU2zAYAAACASdQUbtaDza6gsyssbrutrTK57bZB1O+3mMcetqZAP1ZHN7UhjtuzlNd3pcPnaFUF0Hnf58UcAXNc4icQsao6fXIQS95vvvnmsBRxHbHiO/VsiT2u42mpn9wMa10AAAAAwPjFbC+Gz6vtIILLtep6QK9GO3furHrQ1Evfoxjyxt4qiwl73//+91f3aTriZnyTxd4tg346EXvExCbkTetKRxgFAAAAAFa3VFRamlXTAzqGsrFZdl7FGyuMc7EtR1drjlH0gM77UndpK4+v++AHP9j3aJTxucdguV8IHUPxriblUdymvLk7AAAAAMC4rIoAOra2GKS0PFYN33TTTa23DzuAjuuLR5jMQ/EY6MbzWBUdw990WwyLY7DcVQkdQ/ZYrZzEdcVAPd73+uuvXxBM9wuO89cs3j+uN742sRI6vk7xsZJ+rxsAAAAAwCisCatAv4rgKAao4w5RY4ibAuYYLMfAOYa+cTvi+XXXXTe/TTH4zUPfJvnzjG02YsAcA+i4jng5vz2vBm8SHzuJIXnajhhGx4rt9LM+0AAAAADASlkVAfTHPvaxqko3r16OFcDxunTKK4fHJa+g/vCHP9zYEiPvy5KHwnWxYjkPs5sqvuO68pA9tv9ok/d8bgqZ4/pjqJ2H5AAAAAAA47QqDkKYAtLYhiKJoepKB6exzUZy7733LrgtBsCxijkPies9q3N5NXNXVXIModPBDrsqoPPgOwb0N99884L1dvXKBgAAAAAYh1URQJ8O8urnem/o6CMf+chAByvs58CBA/OX8yrnulghHqvC4zIxKI/V4ymAjufx1O+gjQAAAAAAoySAXqTYSiOGzSkczg8AOE7xcT/wgQ9UpxSE189jH+lYKR17Vze1DwEAAAAAGCUB9CLEIDcGvkkMd2P4vFIH+ksVzjFojlXQqWVIDKBTCB2vi5XZsU0HAAAAAMA4CaAHFIPnvN9zPMhfDHZXQ2VxbMdRF0PpD37wg9Xl2FM6nhyMEAAAAAAYpzWBgeThczz4YDzl4XNszRH7Qo9TPGhjCpnrYigdQ/Ik334AAAAAgHFQAd0hBsz5gQBjq43YciO23kji7bESOlYYj0tqqxHbbHS1//j+978/f7nrgIYAAAAAAKOgArpDHu7G0Dn2Uc7D5yi1t0jLjEvq8bxt27bWcDkPxR2EEAAAAAAYNwF0h09/+tPzl5tC3hgC5wclbOrFPAoxGE+Bctyu2O+5advyAPrmm28OAAAAAADjVHQLjjxA7hKD44985COnXB97KMdwN4a58RR7PMcD+cUAOFYex9tSMB2vu+GGG8I4xPA5bktsBxLFEDy25YjPI27HddddF37lV35lvko6bvOgrwUAAAAAwLAUHUCnALafj33sY43Xx6A3tt2IYW8KoZuqjWPoG5fr6sc8bDEwz7cnnrdt2+/8zu8EmDRTU1NhZmam8/p4OZcv33Zbfv1i1h+vS7d1bVu/5ev3bbqt6zxfd2h4Xm235dfXl2v7uWu9/bYxX0d9PW3b1LXuQbQ93iDvmX6P1W972n7Pg7zGua5trW/vIPptQ9f2D7LOfr/j+jK5tv2i6T1Xf/x8ufr1XbfZ/8Mpy7X93LVe+3/77W3rs/8vZP+3/9v/F7L/l7P/A5RqVQbQsWJ3XNXEqWq4TQqX3//+9zcGvHE7P/ShDw0cPsfn1lRt3bRcrMDuEoPl2Fojbls9bI/hebx/DM/1f2ZS5AO7tsFnvK5tcNw1aE736xqkdl2/Zs2aBdvVb1Cd1tH1uF2D+Lbz+jrr25r/HLe5Pphue8z68+la7yDbWH/8rvU03afr9Rtkm9M62rat6T5N21tfrmt76uvreg2bfs6vb3rPdO0T/ba7af3RIBPPtslh1PY7rm9v0/bF69J+1fTYi93P7f/2/8T+3/4Y9v/Fr8f+b//vtz319dn/y93/p6enW1/DfsE2wOluaufOnavmL9q1115bhaUxfF2NYruNyy+/vLp84MCBBb2Y+0n9mPs9t6W+BrEFR2wLspRtg1I1TSD6TWDy65c74EsD5KWuZzGDzvogv365a1317Wxbtuv5DDKpHkTbJGmQ9Qw60Vyu1TQZqE9c2ia4bfcZh+X+Xprew/WwYJD7L2Z7B1lvP/b//rc1PYb9f3D2f/t/fVn7/+D3WQr7/+LY/9v3u6bzputW03sOYLlWVQANMCyp4iAPnttOTZqqE5Y6IVzKMlMtFSz9bluuqY5qlX7b0bSu+v0HedxRWu7vcpDnX3+MpUyA2tYbNU3mkqW+L5by+g9joruc3/swQo9BXmv7v/3f/r/4+9j/7f/1+w/yuKNk/1/cYy7nPvb/7mXj7fkpVkWny+n2/BygFEX3gAYmSz5QTD+n0xlnnFGdx2A6ntLltNxi5I8xDEtZX9cAd9jb1+/xVnJdg2p7TerbMorXbpDtGMW6hv1cRhl8DNOot8v+v3rWNSj7//LZ/2fZ/1fPugZl/18++/+s5b6uecgcQ+d0ivORdDkPpgFKI4AGitEUPqfAOQbQ6ZSuS0H0IBOTpehXIdN2fb3SZTED/2FV2yzFINs1rMdb7npGvR2jrj5ayfUOcxtGuZ8t5772/8Wz//e/fjHrWC77/9Lva/9fPPt//+sXs47lsv8v/b6j3K6ZrOI5nU6ePFmd0v3i5dS+I61jpX+XAMMigAaKkyZwKWReu3ZtFTyvW7euuhxP9RA63a8+SUq3Jf0mjl0TyKYBadt19cfL19l2uWubmh6rabvbJrpNj9O0fNO2dN3e9vp2rXvQ5zzo5KfpNWr6XQ4SBHS9Zk3PddDXddAwom2769sxyPuxvq76OprWma+na/nlXlff5vr2tV3f9d5J19v/T902+7/9v76OpnXm6+lafrnX1be5vn1t19v/J3P/zx+n7fc1qKb7NO0n/fb/+vY0ra/f36K2fbTtsQbd9ny7ml77tm1N9+v3mP22q207m3RtU9N1Ta93Wk86OOBi9/90nt/etv/HUwqd0/nx48erU1wm/hyXSYF02+MCnK4E0EBx0iAznlLV8/r166tTDJ9TEJ2qodOyi1l/10R0Kfcd9LZBHrvfsot97GFsY9P2LVe/dfZ7nKU85+Vse78AYND79bttkLCgbbmm5Rfz+MvZN8alaWK9lPsPev2gy9j/F8f+b/9fCvv/4h57GNu4Uvt/Os9P+XWDbkf+OINsVwwW85/z9dTff/l2zHQEvvVtqK8rnXe9/un61H5use/F+ja1Pff6Nna91k3Ps/4atS3f7/fSdXt9HU2vfdfvq/53L7++6fkkKXQ+ceJEdTp27Nj8XCReTsuklhyL3ZcBVjsBNFCUNNDL227EwDmGzxs2bJgPouN19ZYc0aCTuEEGyIOECv0ma23X1wfP/e6b3ye/X9s668+r3+Sx3/b0myA3BRlN66vfnm9vv2XbJi5Nj5sv06ZtglK/b9vvuL4dubbfzyCT/7bHb3uvdt2/33Nreox+v8euyeZSJ1n93lNNE8v6/dPtbetre7w6+3/387T/2//zddn/7f+j2v/j9ekbb/WxXtNzbFpvfZn69qXL9W3oeo27HjctX98fF7MtXds1yGP02//7vW/qj59XFsfz5ezr+fbVHz9vW5EC3LbtaHt+/Z5n/fbFPJe4XF71fPTo0fDYY4+FQ4cOzd+Wwuem9xJACQTQQHHigDDv/ZyqnmPwvHHjxvkgOm/H0TQAHYa2we0w77vcwTzjM8gkt82gv+emyfwo3h/DWO9S1tH2mq3G/cD+T87+v/x12P8Xsv+3Sy3Y0viv/s23XNPrmIeaw1BfX9d7Od3edV2TQZZretymvxtd6+n3YcdS/lYNsq2D7P9dH/C03act5F9OYF5fZ6pojpXPMXx+9NFHq/dkCsdTL+h0OW1jWhdACVZVAB1DoZ07d4aLLroonHfeeWHbtm2BxTlw4EDYs2dPuOuuu8Ltt98eYNLlIXSqgk6n1Iojr4pp0lQ9slKWM6GddP0qipaynsXcNuzH6rp9nO+Trolb2+2jetxRsP+Xwf4/Gvb/8bH/L076BlwsPPi37/zVAKvNL/7+/3O+Gjqe4ns2BtT2c6BUqyaAvvTSS8NrX/vaKhRi6WJoH0/x9bz66qvDTTfdJIhmYuQDtq4q6BREx59TK478a3pR19fvmqosmuSVFXnA3TVh7/e4Tffr95o0ratpnV0T7aaKukEGyF3bXF9P13NuCzRmGr4GWl/3IIHRIEFOv9/RYp5X1/pybSFO23Y3/Z6atqnp+TU99/p66tvUdnu/12bQbRpk+7oep+t32vaa1pfJ1z/oY+TL2f/t//Xn1bW+nP3f/t/vfl0mef+P0rhv8+bNAVajTZs2VR+QpLlIqs5P5/E93W8/BzidrIoA+uUvf3m44oorAsN15plnhmuvvbY6v/nmmwOULk1M0uQjDeLyftCpEjqe/uDX/3kAAKAccRS4vjcG3LZmKpx/Ru8DgGMnAqw2MXxO7WHyg6IP8gEPwOloTVhhV111lfB5xGIldAz5YVLkA7gUQKdegPkJAIDyTM2dYLXKK5/TtzHzIhqA0qxoAhP7PcdwlNGLIf/9998f7rzzzgCla/oqaT2QjgO9ZNsvvyMAAHD6i+O99b1wb8uWLWHTWWeF8H/7NwFWmxQ+q34GJsWKVkDH6mfGR49tSlcfvDVdznurAQBQnumZmXDi5Ilw5OjRAKuZOQkwKVasAjpWP8eD5TE+MXx+5jOfGW699dYApXLADgCAyVWNBaenw/HjswH0jk9/omq9dkZVbToV0igxxn5NI8Z0/VSIyw42ppyaf+wYKJ663rSux9cdWrej33YteLxTtrn7ugXmtjVfT7pD6306TM3da5D71bc/hFO3d6DnMhOW1Gul6fEHWVe/1z2+BjFQPuOM2dZ/jzzxKWHXhRd3rtO8BZgUKxZAX3LJJYHxu/jiiwXQFKvfkdlVGAAAlK+qgD5xIhw+ciRs/du/DOvWrps92FsaC84lhvOZY/5zPl6cT5TnQsIFlxdeveCK3IJ1P77K2fWHhgR6auGYNlvn49v7+J3m1zfzeAg6my6nB08LLdyOU7Z3biWPb9/CFyl72gtftJBt78xMtv6w4LbqPDSYf1HCghB4pvYUTkmrQ/76p8dpeD3y9Yf685ha+DtesIHZNs9v29R8YHzKc5qafe3jNy03bNwQtm7eEqZe9brWALqp57O5ClCyFQugzzvvvMD4nX/++QEmRb2iQIUBAED5ZqoWHCdDOHYsTE9P94K9o7Mt2OoLZklwnoFWNzVczkPh/LamYHphILswiF2wzrn7pzBzYRY9tWD8umCbTn0ypwbB9e3JEu88vM1euYUBbfa88+0ODZlxY9X21KkhcWhcrhZUTy1MofNtqr/uKXhOzz89bj2AbqqunmrO4BeuINSD/7RpzY+1rvdBx8be+y5effzE8bAY5ipAyVYsgNZ+Y2WceeaZAUpVrxqYqlUpAABQvjT+O37yRBVEV9Wm8YpTxoMzp1QfL0gdQ/22sOD2BaHqgtC0nmyGWrl1qJVCh/nlq3XWk8+Zlm2oR7L1MuV6cttUep1VHc+3Hak/3oJy5MdLopuqqU+t0p5aECRPnVLxfOp2z0Xkp75WXQFt4/oaxv/NCXsI9TL1bHsWPP8UlLdswrG1Z1TviY0bN4Tpk9OhTR425/OVNGepf2ABcLpbsQAaYFQWVIpkgzgAACZDNfabmQ0yl1uU0NXmrbMFXD1kHsLjDXL7qpFVgHeGwkN5qJnm9indd1r69jT2Uuld6p2d7H3ocbIXPk8vcv6RH8smPpdYvQ9QCgE0UJymSmgAACZTU7XpctaxmNvCCB5vkNtXkwXbOsLtPuU1GeSxlrM9C+6b2p/Ey6lCerB1m6sAk2BNAChEW8/n06ZKBAAAOH1lvbIHmX9oswFMCgE0UIyuyud6CC2QBgAAhirOMbLW1f0olAEmhQAaKEZTb798UDeMr18CAAC0GmCakeYnqQJaCA2UTg9ooBjjPODg3/7hHwQAAGCyvOV9v9Z3mZmw+AMQRoJooFQqoIFi5dUE8VwLDgAAYFTmymF654+34miSF8zUv70JUCIBNFCc+lfa0ilncAcAAAxTNcNIc5E+y47z25sAK00ADRQjDd7qgziDOwAAYJTm5xppTtKxbCqUAZgUAmigWHkgreUGAAAwKvNFL+mKjny5rQUHQKkE0ECxUt9ngzoAAGAcYv/nQWqb2769CVAiATRQjKaDDBrYAQAA4zMzUP/n/Lg1bcsAlEIADRSjX8hsEAcAAIxFx9Qjn7c4fg0wCQTQQDHygDkN2NIBPhzoAwAAGKnefGOQHtB5yFwvkjFnAUokgAaK0TaAawqfVUMDAABDlc8xBqiAViQDTAoBNFCMvNq5fl2dgR4AADBMUy2X2zQV0ACUSAANFEe4DAAAjFuchVQFMH2WS6HzmjVrFlwnjAZKJYAGitEWPBvIAQAAYxGrmgdabGb+lP8MUCIBNFA0AzkAAGB8Ziugu6YggxwkXRENUBIBNFCMtkGawRsAADBKj4fJ6QCD/e/TNE8xdwFKJIAGipcqDAzmAACAUVhwIPSwdL69CZRIAA0UIw3WFgz+BM8AAMC4DHAQwu67m7sA5RFAAxNBL2gAAGCkYnY8M3e2hLlHHj6buwAlEUADxckHawZuAADAqFXzjmrqMVOddVUyN92W5i3mL0CJBNBAUeotN3yFDQAAGLV6D+iuHLkeMqc5TH69eQxQEgE0UIz6oC3SegMAABifqdkEeoD8OIXMTfMVcxigJAJooBj1r62pGgAAAMYrteJolwpnpqenA8AkEEADxYqDunpLDgAAgNGZm3v0acHR1DpQK0GgVAJooHgqogEAgPGYmTsM4QBLzgXR6bKDqQOlEkADRasP6gAAAEZpKgxW+KJABpgUAmigOPWBXB5Cty0DAAAwDoMUyJivACURQAPFyQdyqZdafXCnGhoAABiZAfJjRTLApBBAA8VoGrDVw2gAAIBRWDDb6HMQwq7L9X7QAKc7ATRQjLZBWmrBIYwGAABGZWbuFJY51TBXAUqzYgH0gQMHAuO3Z8+eAKVqGqjl1+WXVRQAAADDFGcb1Zyjz1Sjqwe08Bko0YoF0ILQlSH4Z1L5GhsAADBK1Wxjbs6x1Bx5Zv7+gmigHCsWQN93332B8bvrrrsCAAAAMGRzmXHVimOAHtBdIbPiGaAkKxZA33HHHeHo0aOB8Tl48GC4/fbbA0wa1QMAAMDIzWXGZh8AC61YAB3D58985jOB8bnpppsCTJrUekMIDQAAjFI145ibdww6/Wibp5i/ACVZsQA6uvPOO8Ott94aGL2bb75Z9TPFazuIRzz5ChsAADBKeQ/oQacfqVimPl8xfwFKsqIBdPTFL36xCkcZnRjyq35m0qkgAAAARi9VQHfPP1LonJ/XbwcoxdqwCsRw9MCBA+Gqq64K27ZtCwxHanMSK81hEkxNDTbYAwAAGIWZ6n/dFcz18BmgdKsigI5ie4h42rlzZ7jkkkuqIPq8884LLE4M8vfs2RPuv//+6vV0oEfw9TUAAGAMYqiczqe6Fnt8ftJWPGMOA5Rk1QTQSQqiAZYqH6zNzPdgM4ADAABGKIXJVWXzYHdpC6NVRwMlWfEe0ACjlA5CCAAAMFIzs+034uxjKVMQgTNQKgE0AAAAwHLF4pfe/5YaIyucAUolgAaKlw7wYUAHAACMzNTjZ13FzE1zkzhnaWolCFACATRQjK5BWn1ABwAAMFQzs/+pGnH0qX2pz08UywAlE0ADRUkDt3QudAYAAMZntg1HVx8OcxRg0giggWLkR4o2qAMAAMZqquVyfTHVzsCEEUADxWgKnQ3uAACAsZiZbcDRd7G5Y9RE5ivAJBBAA8WpD+IM6gAAgHGYn3n0OQhhCqHbwmhzGKAkAmigOPWjR2vHAQAAjNLjc46pvjXQedvAehtBx7IBSiSABorR9jU21QMAAMAoPT7jmKlfceqy2bylLWg2hwFKIoAGipMP4gzcAACAkZufd0zNZs8DFDDXw2cHVQdKJYAGitbWgkMwDQAAjEKcfSxluuHghECpBNBA0eLArWnwpqIAAAAYpqn5/yy4cIpB5iLmK0BJBNBAMZq+wgYAADAOM9l/ugLkVCTTVO0seAZKJIAGipXabxjEAQAA4zE79+iqhanPU8xXgNIJoIFiNFU8t7XgAAAAGJo8RJ5Z+GPz4t0LmMMAJRFAA8VoGsSl6wzgAACAkZmbb8yEwQpg6u036nMZVdFASQTQQHHqAz6DNwAAYBymwuLmHgpmgEkggAaK0VQ90FZRAAAAMEwpQq7mHn3y5LhMV+gskAZKIoAGitEWMhu8AQAAo5ZmI/3mH/UimXo7jvw2gBIIoIHiGbwBAADjEZtwzISuThz16uc0XzFvAUolgAaK0VQ50HQ7AADAMM2HyLOHIexctt+8BaA0AmigOE2VA3Fwp6IAAAAYhflQeRH3MT8BJoUAGihG1wCufptqAwAAYJgGnWLkvZ/NS4BJIIAGitH1Vbb64E61AQAAMEzVFCPNOZYQRucE00BJBNBAceoH8agfZRoAAGDYqllHmoMMsnxL4QxAaQTQQHHySugYOgueAQCAUVvOrKNeRGMOA5REAA0Uo98gzYEIAQCAUYllMDOLOAxhPjdR+QyUTAANFKOp1Ubq/dzWWw0AAGC5qm9ehtkW0IspeUnzk+np6cbrAUoggAaKFweDqp8BAIBRqQfGg0w9uiqgzV2AkgiggaLpoQYAAIxLVfwS+rcGTKf8fum2/BygBAJooCj1AVvbwM2ADgAAGLb5PtAd0410oPT8gOn1doIKaICSCKCBorS12/CVNgAAYPSmZrPnjulGUzGM+QlQMgE0UDT9nwEAgPGZPRhhvwroapEsiPYNTaBkAmigGL6uBgAArJS5JoBzFdDtc5J6/2eA0gmggeKoJAAAAMZtrhymOu83D+nXMtA8BiiJABooTj6YSwf2MIADAABGLx1MMCxKPZD2rU6gJAJooBhNIXP6epsBHAAAMGozof+8Q+tAYNIIoIFipErnriAaAABgJKZmO0BPhTgvCQDMEUADRUktN+rX5ecAAABDNzP7n5nQnT6nwhgFMsCkEEADxWgayKWqaOEzAAAwDv1i5XxuIoQGJoEAGihGU8gsfAYAAMYhz5K7piBpjtL07U2AEgmggeLUB3Gp/7PqAgAAYFQWTEOmupab6TtHMXcBSiKABopRH6TlVQWqCwAAgNUgzVuaCmcScxegJAJooBhdAzgAAICRS3OQjvw4n7ekauj6ZYCSCKCBYjQN1gzgAACAcRtkGtJUCa3yGSiRABoAAABgGATIAKcQQAPF8JU1AABgpc1G0N3zkrZj1MT5jHkNUBoBNFCMNFhrur4+gDOgAwAAhmlq/r/9D4Ce5ihNB1Jvm9cAnK4E0MBEMqADAACGKc0wpsJgxS5tVdDVOhTMAAURQAPFaBq8pUGdr7EBAACjVE030pRjwIMQ5lXQ+WUFM0BJBNBA8QziAACAUaumGzNz846OqUdeGJNXQeeXFc8AJRFAA8VoG6QJngEAgPEY/JuXTd/S1P8ZKJEAGihOPohTOQAAAIzNfDuNQRY9daG8GhqgFAJooDj5YM3ADQAAGIdhlb4oogFKI4AGitEUNucH8gAAABiVmbn/9CuBUTADTBoBNFAMQTMAALCSZmIP6DB3QMJlMLcBSiKABorRVD2gogAAABiX+YMITnUvk1/u6gUNUAIBNFAMVQIAAMCK6gXH1bykI0Cuh8tNLTnMbYCSCKCBYqgSAAAAVlpswxE6AuQULqdq6XpFNEBpBNBAcZoGbQZyAADA6M3NOwaojUnhs1aCQOkE0EBx8sFa24AOAABg+OJBCKc6e0DXq54BSieABopTH8ypiAYAAMalasHRUQOTimTSCaB0AmigOE0H8Yjy0NlADwAAGIV+FdDzyw3QJxqgBAJooBhtlc6qCwAAgHGYmTsFUw+AeQJooBgO3gEAAKyUxdQsp+IZlc7AJBBAA8Vp6gFtYAcAAIxSLH2Zmm3A0b1c9u1MLQOBSSCABoozPT294Oem9hsGdAAAwPDNLLr7RgqezVGAUgmggWI0fY2trfpZRTQAADBMcYYxM3c+6HQjHbOm6XqAUgiggeLUv7oWT9pwAAAAo5THyIMWM7dVPauGBkoigAaK0dZHra2qAAAAYOj61L3k8xOFMsAkEEADRakP3toO8AEAADBs1WxkgGlHHkLnYXR+O0ApBNBAUVK7jVxTb2gAAIChmpr/T98q6CZ5wYziGaAkAmigOPUWHE3XAwAADNXM7H9m5i93UyADTAoBNFA8wTMAADAeU32Ln/PWG+YqwCQQQANFaxvQqTYAAACGL/Vzbl+i3uvZ3AQonQAaKErT4K3pOpUGAADA0M3NPbqmG/lBB1VBA5NAAA0UQ+UAAACwogYIk81bgEkjgAaK0VQ9YHAHAACMT//5x4yQGpgwAmhgIhjAAQAAozZT/W9w5inAJBBAAxNBXzUAAGDUqoMKhsEOQpi+wSmEBkongAaKJngGAADGZm7+Mcg0JA+iAUomgAYAAAAYisF7QHcdv0YoDZREAA0Uq/r6W+9k8AYAAIxHOjB6+xwkzU/SfKV+PUBpBNBAsboqCgAAAIYtzkGmp6fD9Ex3AC1sBiaJABooTr2KQG81AABglKq5Rgyfe6cTJ0+Gk71Tm3hbDKnrQbSCGaBUAmigGE1Bs0EcAAAwalXrvzAbLh8/fjycOHGiddl4ewqhASbB2gBQiLzauX59JIwGAABGZWau+vnIsaNh28c/Gi644ZNhw/r14ciH/pfq9nf+3V+ERx99NOw7erQKqOu9oH1jEyiVABooWlsoDQAAMExV/+deAH3s2PEwMz0Tjh8/Ec4444xw6OR0VR19+PDhcOTIkfkK6HQfPaGB0gmggWI0Bc2OKg0AAIxammukNhyz1dAnwlTvf4/2wuh4/dGjR+fbc6SDFSqWASaBABooRr8WHAAAAKMUD0IYsv7OcXZyZG4+kiqfU/jcRUsOoCQCaKB4qgoAAIBxyiuip2vXz9/W0Hqj6cDqAKe7NQGgEF1BsxAaAABYSU3hcjoAYSJ4BkokgAaK0TRYc0APAABgNUmBc1sgDVAaATRQtFRRIIQGAABWUlvBjApooHQCaKA49aoBgzgAAGCl1Sue6+cApRJAA8Vo+rpa22DOV9sAAIBxSnOTfC5iXgJMAgE0UIy8giDvq1bvsQYAADBu9fmI+QkwKQTQQDHaeqelQLp+HQAAwLiYgwCTSgANFKseSKswAAAAVor5CDCpBNBAMeoVBSoMAACA1SKfnwijgUkigAaKFQd4+YE+BNIAAMBKqX9D0/wEmBQCaKBY+QEIAQAAViMHTQdKJ4AGiqf6GQAAWK3SXMWcBSiVABooRlPFQP2rbQZ1AADAalAvlEnzGQdQB0ojgAaKkfd7TuptOAzkAACA1ahpPgNQAgE0UIxBKqABAABWwqDzEnMYoDQCaKAYeqcBAACni7ZWGw6mDpRGAA0UzcANAABYDbrmJopogJIJoIGi1asKDOwAAIDVph5Om7cAJRFAAxNFRTQAALCS8nBZ0AxMAgE0UIy2/mkGdQAAwGqRz1sUyACTQAANFEPQDAAAALC6CKCBYjRVDwilAQCA1cQcBZg0AmigODGITmG0r7QBAACrQQqeB5mrmMcAJRFAA8WJA7s0uIvnBm8AAMBKq89L8nkLQMkE0ECRhM4AAMBq1jVnEUwDJRFAA8XIv9KWD9jqX3UDAABYDdrmKOYuQEkE0EBx8vA5H7ipIgAAAFaj/Dg2kbkLUBIBNFCMruoBFQQAAMBqpR80UDIBNFCMplYbBnIAAMBqZJ4CTAoBNFCcphYcBncAAMBq4luawKQQQAPFaBrAxeDZwA4AAFhp9blJV5GMOQxQEgE0UIy2AZzqZwAAYDWof1vTXAWYBAJooGgqBwAAgNONYBooiQAamEiCaQAAYCXVW3I4fg1QKgE0ULR8UCd0BgAAVkp9XlIPn1PwbN4ClEYADRSnaSBX76+mqgAAABinNAdpmouYnwAlE0ADxWiqFOga5AEAAKyUpjmK6megRAJooBhNYXMcwGnBAQAArLT6fKSrgAagJAJooBj9BnAGcwAAwEqpz0fiz21zFMUzQEkE0EBxVD0DAACrXT5vqVM8A5REAA0Uo+lggzlhNAAAsFo0VUCbswAlEkADxcjD534VAwZ2AADASmqqgFb5DJRIAA0Uo2mwlq6rV0Yb2AEAAOPUFTYPcoBCgNOVABooRlffZ4EzAACwmuTzltROMP8ZoBQCaKA49UqCvAo6vx4AAGBc6qFyv58BSiGABorR1oIjhc1acAAAACulrc1GU3GMghmgJAJooBgGbgAAwOkkFsZ0HcsGoAQCaKBobQM3wTQAALDS6gdLByiRABooRtvATUUBAACwWtWLY+oHJAQ43QmggSIZsAEAAKvJoIUxqqKB0giggeLk4XNbEC2gBgAAxqmp0nnQZQFOZwJooDj1A3k0Dd5UFAAAAOOU5iBpfhLPBc3AJBBAA0XrF0QDAACMU5qjKIoBJoUAGihGU8Cc+qfV+6gJowEAgJXUNScRTgMlEUADxWg7qEceQnctCwAAsBoomAFKIoAGitE2SFMBDQAArDaDHLsGoAQCaKAYTVXN6cAe9dtUQAMAACut6Vua9WAa4HQngAaKoWIAAAA4XTQVyqTrAUoigAaK0dYDuolBHQAAsBLySuc25itASQTQQNG6+kIDAACMW5qjCJmBSSGABorRNYAzuAMAAFaDfG6iYAaYBAJoYCIJpAEAgHFKc5BBwmXzFaAkAmigaG1HkFZRAAAArFbmK0BJBNBA0Qb5ehsAAMCo1UNlITMwKQTQQDHaKp1j8NxWCQ0AALASHMMGmBQCaKBoDuoBAAAAsHIE0EAxYtjcFDinKuj6sgAAAONSn4N0FcUomAFKIoAGitI0UEsDPf2gAQCAldIWKnfNYQBKIIAGitFU6Vy/vekyAADAqKW5SpqLNBXKAJRIAA0Upe3I0vXrDfIAAICVkAfRi6mKBjhdCaCBosXBXdPgzYAOAABYaW2FMQpmgJIIoIHiGbwBAACrQd5+Y9D2gQCnOwE0UIy2AZzBGwAAsNLyY9Z0td8AKI0AGpgIqqABAIDVzJwFKJUAGihG/WjS9dsM6AAAgNVKRTRQKgE0ULz8a24AAAAroa1QBqB0AmigGE1Bc1dVNAAAwLg0hc1t8xTzF6AkAmigGF0DOpUFAADASlpMqGz+ApREAA0UIw7our7WpooAAABYKUJlYFIJoIFitAXNqqABAICVluYl9XOA0gmggaLEkLneAzqe2qqjAQAAxi3NWfK5i/kKUCoBNFCcpgroejANAAAwTnnonOYo+dyl/jNAKQTQQHHqVQSCZwAAYKXl4XK/oFkQDZREAA0UT/sNAABgpeWFMdPT053LKKIBSiKABorRFjJrvwEAAKwm/YpkFNAAJRFAA8VoCpkFzwAAwGpUL5Sp94MGKIUAGihGU5XAYvqsAQAAjFNb6GzuApREAA0UIw3Y2gZxqggAAIDTgbkLUBIBNDCRDOgAAIBxqlc1x5/b5iUqoIGSCKCBYqRBWv2ra/1acwAAAIzaIEUwCmWAEgmggWK0HYQwnvodZRoAAGCcmuYvTUU1AKc7ATRQjK6AuX6EaQAAgHGqHyBdkQwwKQTQQHGaeqsZ2AEAACupfoD0epGMeQtQKgE0UJz6IK5+HQAAwLjV5yb1wNm3NoFSCaCB4hjEAQAAq1VXkYwKaKBEAmigGGkAlw46GPkaGwAAsBq0FcbUC2gASiOABopU768GAACwGpirAJNGAA0ULa+GBgAAWCn5tzTTeTzVv8EJUBoBNFC0NKADAABYTZoqoc1dgBIJoIFitFUNqCIAAABWWj1kNk8BJoUAGiiGagEAAACA1UUADRSlqeWGYBoAAFhp9W9smqcAk0IADRSlaRDnq20AAMBqZ94ClEoADRRFVQEAAHC6aDoQYSSMBkoigAaKEgdteRuOdNkADgAAWE3iHKVtnqKQBiiJABooRlfVswEcAACwktrmJE0htAIaoCQCaKAYixnQAQAArKQ0f1FAA5ROAA0UoylojgM3gzcAAGC1USgDTAoBNFCMpqA5H9QZ4AEAACulPh/pKpQxdwFKIoAGitEvbFYJDQAAADBeAmigGHnAnF9WPQAAAKy0ekGMeQowKQTQQDEM4AAAgNWqqQVH27c0fXsTKIkAGihGGqQN0ltNWA0AAIxT/Vua9TmJOQpQKgE0UKSmwVx+nYoCAABgpTQVz5ijAKUSQANFqlcXdH29DQAAYFxS6Gx+AkwKATRQjKavsUVxYOfrbAAAwGpQr36unwOURgANFKWt0ll1AQAAsJqkOUr9HKA0AmigGP0GbCoKAACAldI1HzFXAUomgAaKVQ+kVRQAAAArra1tIECpBNBAMeoDuXTwwabbAAAAxqmp1UY+X8kPTmj+ApREAA0UJx/QOcI0AACwGnSFyvmxbPJCGoASCKCB4jRVQgMAAKykplDZXAWYBAJooBhtPZ99hQ0AAFhpXS0DAUomgAaK0VX5XA+hBdIAAMBKUigDTAoBNFCMpgMO5oO6poN9AAAAjEPbHEQIDZROAA0UwwEHAQCA00V9/iKIBkolgAaKlVc/x3MtOAAAgNVKIQ1QKgE0UJw8dI6DuHTKGdwBAAArxQEIgUkigAaKkQZw9YGc1hwAAMBKazpWjTkKMAkE0ECx8kBayw0AAGAlNYXN5inAJBBAA8VKfZ8N6gAAgJXW9M1MFdDAJBBAA8VoOshgW1sOAACAlZDPVdqKZRTRACURQAPF6BcyG8QBAAArpe1YNU3XKaABSiKABopRP6hHus4BPgAAgNWiK2Q2ZwFKJIAGitH0Fba28Fk1NAAAME714NmcBJgUAmigGHm1c/26OpUFAADASjInASaFABoojoEcAACw2nR9KzNeVhENlEoADRSjLXg2kAMAAFZa17wkzmUU0gClWhsACtY0kEvVBekTuKk1vYHgzKn3AwAAGJb6HKNrzuEg6kBJBNBAMdoqClLgHE9nnHFGWLNmTXW+Pi7f+//6teuqwd10PE1Px5FgMNQDAACGqT5fcbB0YFIIoIHipQMTxtC5Cp7Xr69O29bMDu62bN0STpw4UZ2OHz8RTvZC6KneScUBAAAwKvUDqKfrAEojgAaKkQZw9YN5xIrnVPW8du3aKnzetGlTOPeM3vWxAnrb9nDs+PFw5MiRcGSqdzp2TA82AABgpFRAA5NCAA0UL4XJMYDeuHFj+IM3v7vq+3z4+Mnq9qn/8f8cZqZnwjlf+mzY+I8fDydOngwnT54MAAAAw9JU4FIvnulaFuB0JYAGipMP1tLlVAG9bt26sH/zlnTj7Pm2s6qzqa1bw4b168PRY8fCmliN4MAfAADAkHRVN6d5h/kHUKI1AaAgTS040nkKodusPWNtOGPt2tn7+OobAAAwRPVwOX1TM81h8tu14gBKIoAGitHUQy39nAZ1MYTuun+sfI5DPcM9AABglJqC50QlNFASATRQjPrX1pp6qHVWEqTkOQ4Cg0EfAAAwOg58DkwKATRQrPzrbINrPggIAADAMNVbB7YdkBDgdCeABiZG30HcXPGBoR4AADBsaT6Sf3Mzv67pYOoAJRBAA0XLD+yRfm41VS1Q5dBCaAAAYJjqbQFVOQOTQgANFKdrINc5yKuS56n5iwAAAKPS1QNaOA2URAANFCcfxOW91Ab5GtvU7IIGfAAAwEjp+wxMCgE0UIymAVtTf7X2FWSVz45IDQAADFG/+Ug+dzEXAUoigAaK0TZIS+Fz30HczFwF9Ny4UAUCAAAwbuYhQGkE0EAxmgZqi/pK21QKsQ34AACA4aoXxDRVOgufgRIJoIGJMNDX2OZuNuQDAACGrV/BTJTmLIJooCQCaGAi1A/w0bVciqn1XQMAAIZlMdXO5iJASQTQQPFS/+dBqqBTA46ZoOoAAAAYnq6DpgOUTAANFC2FzqkCujNUnrtJF2gAAGDYmsLmtvmJYhigJAJooBhtA7q8Arp7BdVKHq+ADgAAAMPR1e+56QCFAKUQQAMTIQ32+g3kUg/oFEIDAAAMWx5Gp29stt0OcLoTQAPFSIO0rsFavxYcKaAWPgMAAMOUF8OocAYmiQAaKN7AA73sJvUGAADAShFQAyURQAPFaQucBz0IYVzEcA8AABimelvArrYbWnAAJRFAA0WrH4RwkArouIjhHgAAMExtwXP9doDSCKCBiTFQBXSqSggAAACjUy+QUfUMlEoATYDS5UeV7ltVoOoAAAAYgzxwrofRqqGBkgiggWIMMkgbpKpgKmjBAQAADFd9LqL6GZgUAmigKGngllc8D179XN2xOlNvAAAADFN9PiJ0BiaFABooRjrYYFT/+lrT9Y3i7ekEAAAwItpsAJNCAA0Uo2kAV68qGKjKoN/BCgEAABapaY5h3gFMAgE0UJym0Hmwgd3MbPPnWDEdAAAARitvGZjPWQTTQEkE0EBxmo4ePdDX26bmDj9osAcAAAxZ2zc28znLwMevATiNCKCBYjRVDkSLG7zNhLkhXwAAABiWpm9qts1VVEADJRFAA8XJB3H19hudYXR101R1NjXbiyMAAAAMQ30uklc8R20HVQc43QmggaJ1hdH9qToAAACGo99cpK0fNMDpTgANFC1VEXR9va1JtaSqAwAAYAWogAZKIoAGilEfpOXVA4vtAz13xwAAADAMTfOVehsOwTNQIgE0UKw4eEungUwtvGDwBwAAjMpSvqkJcDoSQAPFaOqTlvo+D9RDbab/+gAAAIalLXw2FwFKIoAGitE0eKtXQPetLki3q0IAAABGLAXN9XmKqmigJAJooDht1QJ9K6Gn5k6xFFrFAQAAMCYqnoGSCaCBYjRVD+TX9a9+njsFgz8AAGB06gcfrBNIAyURQAPF6OqfNtAAbn6RGRE0AAAwVPmcJB18MA+i89u14ABKIoAGijdQ9XO14OzZlPgZAAAYkbZ+z0JnoFQCaKAYTZUDTbe3r2D2bL4TBwAAwJCkgHnNmtkoRpsNYFIIoIHiNFUODDS4m6+A1gUaAAAYrvoxa1Q8A5NCAA0Uo6sH9EBtOKbmlg1zVdAGhAAAwBDV+0CrggYmgQAaKEZbC450YI++g7uZha03DAUBAIBhaSqKST/X5yqCaaAkAmigOPWvtNW/6tYlH+apfwYAAEZJ8AxMAgE0UJy8EjqvMkg/d8lvN/gDAACGpWl+US+e0R8aKJEAGijGMAdpg4TVAAAAg+o6WLriF6BkAmigGE2tNlLv57beag0rmV+HQSAAADBsTVXO09PTC5YxFwFKIoAGJkK9HUfzQnM9oGP4HAAAAIYvD5fbCmV8GxMoiQAaKFo9dO6sJJiZO/Cg9hsAAMCQNc1F6t/i1JIDKJEAGihKfcCWt+AYPFTWfgMAABiupvlIPXh2EEKgRAJooCipd3M+YEvX9e//XC08WwYtgAYAAMZE4AyUTAANFK0eSHcO7NJNaXmDQAAAYEjqBTH5z76BCZRMAA0UoytkThXQnQO7qTBb+Tx3EELxMwAAMCxt8xSA0gmggeIsuZJgZu4/DvwBAAAMWdP8ot4DumtZgNOVABooTr3/c9PllnvOhtDxgIUBAABgtOoHH0z0hAZKIoAGitFUJZD6Pw82gJuqqp9VGwAAAMNWbxkoZAYmhQAaKEY64GDT19fSqd8gT+9nAABglPL5ihAamAQCaKAoTdXOeYVBv+rm2TbQswchBAAAGCXfvgQmgQAaKMZUw8EDU+g88NfcZh4/CCEAAAAAyyOABorRFC6n8LkpnO5cVwAAABgtLTiASSCABopTH8QtJnz2FTgAAGCU0nxlquMA6OYlQEkE0EAx6oO01A+6qS90m9nlVCEAAACjkeYtbYUzTbcBnM4E0EAxugZwTbefYirM9n+emb9DAAAAGKa2ecsgB00HOB0JoIFiNA3W0tfaFjWQS8sa/AEAAENSbw2YjleTB9Iqn4ESCaCB4uU91roXnC2CBgAAGAcVz8AkEEADxej6ytpAlQRTc8vF9QQAAIDhqc9JmuYoqSpaMA2URAANFCMN1tpuW8SKAgAAwCg1zVFS+KwVB1ASATRQvLajTLcsHAAAAEat3v85pwIaKIkAGihG0+AtDeoWW0mg3gAAABil+gHT88sqoIGSCKCB4uWDuM5KgmyMp94AAAAYpbxYJv85UgENlEQADRSj6wCEBnAAAMBqU5+n6P8MlEgADRQnH8TVq587B3NTj1c+G/IBAACj1HYQwvwcoAQCaKA4+WCtfrlfJXRceipowQEAAAzXoN/K9O1NoDQCaKAYTVUC+YE8BlxJFUKrOAAAAIap7aDpAKUTQAPF6AqaBwqhq/LnqXSHAAAAsBJUQQMlEUADxeiqKBi4siAddToAAACMVts3NlVGAyURQAPF6FcBvdgqAoM+AABgWOrzkaZimXRZBTRQEgE0UIyuwDje1jdQro4+GP8zM9eNw6APAAAYjTjfqB8o3RwEKJEAGihO06AtDe4Gun/1PwAAgOFpqm5um6f4NiZQEgE0UJx8sDbI4O7xO87/JxjuAQAAw5TmJvWqZ4DSCaCB4vTrBd1+42z180xwEEIAAGC46r2eVTkDk0IADRSn6SAe0SAV0IaAAADAOHTNT1RIAyURQAPF6Nf7eaCvuqVlRdEAAMAQ1eciKqCBSSGABorRdfCOgQZ3cTw4PyhUcQAAAIyWSmdgEgiggeLUB3Hx54EGdjGjVoUAAACMQFfBTJTPWVRHAyURQAPFmZ6eXvDzog7wUQ36ZtQ/AwAAI5UKZVLwLHQGSiWABoqRBm555cDA1c/5esTPAADAmDQFz1pzACURQAPFqX91LR18sOso07mZuRMAAMBKUA0NlEQADRSj6YCD9Qro7kqCmbSihecAAADLVJ+LpHmLamegdAJooChNg7o0sKv3hm64d1rJwnMAAIBlaqtqbgqihdJASQTQQFFSu41car1xxhln9P8q24wGHAAAwPjlcxUtOICSCKCB4tRbcCSxAnqQSoKpdBhCgz4AAGBImgplACaBABqYGAMN8OaWmckuAwAADJsqZ2BSCKCBouU9oPsO8Kbmu0AH0TMAADAOKqGB0gmggaI0Dd7idenUjyoEAABgFJrmGnnBDECpBNBAMfoFzH0HdzOPH7AQAABglFQ+A5NCAA0UoylgToO6dP2gfaBF0AAAwDAtJnAWTgMlEUADxYvh86ADuCqoVgENAAAMWf3YNIuZpwCczgTQQPEW1VYjDgANAgEAgBHJQ2chNDAJBNBA0fRzBgAAVqN6u0CAUgmggYkw6OBO7QEAADAK9TlJvfq5XhkNUAoBNFCsOIDL22+kn7ukHtCCaAAAYJj6hcpCZ6BUAmigWHnwPNBgbqpaWA82AABg6PL5SX4OUDoBNFCc+lfXBq4kmJn9j7oDAABg2NasOTWCyecqAmmgVAJooBhNfZ7zthuDBdFTVQsOITQAADBKWm4Ak0IADRSjbQCXDu7RVHGwwFS18GwbjgAAADA6eSuOgdsGApyGBNBA0VL4PFArjnjz1GwFNAAAwCjU5yWLahsIcBoSQAPFaOqZVu8H3XcdadkAAAAwfHmLQH2fgUkggAaK0dWCI+o7uJuaC54X1TMaAACgv8XMLwTTQEkE0MDEGGjA5yjUAADAmNTnKFOKYYACCaCBYrQFxumgHn3N9YCOS4qeAQCAYWoKl+tzFcEzUCIBNFCMpsFafkCPQVpwzN8vAAAADF+al7QF0gClEUADRUsVBQMdWXrm8TPDPgAAYJjaCmZUQAOlE0ADxalXDSx6EGfQBwAADFm94rl+DlAqATRQjKavq9UHc52Du6nH12MICAAADFNTa0AtN4BJIIAGipFXEOR91eqn9hWkM/EzAAAwXPW5iPAZmBQCaKAYbb3TFvPVNkNAAABgFLTaACaVABoo1uIrDFLt86lHowYAAFgOFc/ApBJAA8VYVL/nRmlAOFNdMkAEAACGJZ+fmGsAk0QADRQrDvDyftAqmgEAgJVSbxlofgJMCgE0UKx00MH8aNODDfKmHIYQAAAYi/wA6gAlEkADxcsroDsHdVONFwEAAEZmMQdNBzgdCaCBYjSFy+mrbQMN6oz3AACAMal/Q3PgwhmA04wAGihG3mojSW04Fvu1Nlk0AAAwTk3zGYASCKCBYgxSAd29ggAAADASg7bYcIBCoDQCaKAYQ+mdlqoOAgAAwOi0tdrIv8EJUAIBNFC0RQ/cDPQAAIAR6JqbqHgGSiaABoqWD+Ti5enp6Y6Fw3wFtOEfAAAwLvVwWiANlGRtAChcfgDCNWs6PnebqhaaPQvd3vK+XwsAAACLVS+SASidCmigGG390xY3wJuZLYQOAAAAw5fPW/R6BiaBABooRle4PNDArrr7XLV0AAAAAGC5tOAAitEUMtdD6X5BdGq/MXvk6Xj/qcePSzgT2pPp+m1zP8eHnwqP31b9PLVw+fnrOtZzynkfC9ZZ385sezqfR5/HSpvTtGzT8+xaZ+v2dtxnoPsP+Hp1rzws7zXP1xPCKa/vzCkvovp7AICSabsBTBoBNFCc2fB46pTLfe+3ZiqsXXtGWLduXThx8uTjaWJKFpvOH3/Q2tpmssAxW3aqKaVtk6fYj2/LfB461ZFIZ9t4yhL9nkPesmT+pixNnwmnPqfac5mPUWuPMxNaPgRour3t9alvc8OBI/OMt24qT/vbfkf5cw1h4Wve8bwXbN9c+5dTXvvacnGZ6gCZc+fxQw8hNABAeVLwnM9V2tRbCQKczgTQQHFSoJcu5+ddzlhzRti4YWPYvOl4WNMb8J2YPjmXUcYQsXZU6rnz2ajw1Nsbt2suxmyIqrPAdOG6qgAzDj7nru8qxm1af7p/aLguBcSn3N7wWF0F2G3Pv2tbm5ZrXHfD9nU9Zr/b+m5L9toMui3N29D83E8pCO+t8+T0dJg+OR2OnzgeTvY++Ig/m2sAAJSnaVwuZAYmgQAaKNJSDuaxfv26sG3r1l4QvSYc2bSpFwqenC1ADrOx7uMVC3N3mMnC01qbjIVFxqfGkaktR9/xZksx7NRUqjA+tZB5wFV0P2xDoW+eRk81JNOnFEZn64uvT7XYTK06udaeI72WUzO1iuZ6sfbCh16wXGi5b1MRdwjN6w2huQA+1/q6LuIFn+6FzSdOnAhHjh7tndaEo8eOhZnez9NVCG0yAgBQsq45i7EgUBIBNFCMVKFa/7pafn2Xu5/xrLDrwouratRYRbvUQV9T/th23fw2diwXWu43s4htWBCshpbwNiw+qB7ksduWCSE0trgOHZebHmeqYz3Njzs1Vy3evv6ubVrMdvbb9lT1crL3nnvi7/+bKniO77/4PwAAytc2R9GCAyiJABooTj5QSwO6mfn+uu2DuENbt1UnWAkbNmwIR44eCceOBQAAJky9YEb4DJREAA0Uo7FXcC10NpBjtVq/bl3Vh3zNmjVDq0YHlmf+IFGzPzQuM/vvTFPLJXsxAAulNmvpvOkEUCIBNFCM+kHi6gcjjAd4i4M9WI2OfPh/CY+dmA4HpmfC0ZkZ0RWsgKmG8zPmmvavCe1tdeJ1VfOmuR70M9ly9mUAkjgXSXOSdHkxB00HOF0JoIEi5eFzOtBbPB0/fjzAanRyRlAF41YPnNf0LqyZC5tj8HxGvK66PFUtM798dmDS2fC5d5qZCtNTvQ87w+z+XF3Xu3U6Wy4/B2DyxLlIDJ3TKQXRqqCB0gmggWLk/Z7TeRrYxfM44Dty5EiA1ejn/vY/hUOHDoWjR4/OV+o3TUDSAWnq7/em5ZK0TP1gNl3raDvwTdM6+v1cf4y2A4Y23aetF2LX65Cvt601T7/nN8h5/rhN29x0W9NjpNti+5WmbWt6PvXHqV/u2o6ubWlaT74d+X37Pe+213aQ67q2s35b0/No2r627ana3vQux/Mzzphtg1O/nJZp68+ZAoS8oq1e5Zb/rtven237atPzbHte9fXa/xey/9v/mx67vu62x+p6zEF/d02P2fR8ux6zbbtCsP+vtv0//c2P/x7EYphjx45Vc5JUHNP070TT8wE43QmggWLUB7jxlFc/x/D5scceC2c+eqAqX1sztaZxcArjVL1Xe/87cODA/KQkTkYYvvqEdrWuk+Xp9ztJt6XQOYXNeQi9du3a+QA6nafb6wFHPXyO/97E5eK+nD5MqofRaTvzbWa07P+TYVS/k6Ws1/tj9Vjp/T//9yH+2xCLDeKYLwXQqQ1HOqX1A5REAA0UKYXPadIfB3qHDx+uQoWf+cOPhC1btoT169eHdevWLahs61d9Un+MtqqI/PZBdT1m07ryqoqux+m6fdDKin7LDfJcm6pe2ta72Ndu0Oe4mEqSxVadtG1D0/PO15uqYPZnE5Fx9ipfrRPkxWxX2z643PWeDlbD81np171ehdYmvz2FyvHfgCiex38f4ildPrj1zPCTs88PD27dHvZt2hTu27ItHO7d78jadfPr2dTbZ88+djhs7O3HF/U+3HzqI3vChQf3hzMfO7igEi4+VvowNJ6aqqJXgv3/9Gb/H3z/77r/pIbE9v/xqRfFpAC6HkLnrTjS/QBKIYAGipKHsnnrjTjAi+0NovhzCqPjKVW1NakPVushYtfXA+v36QpCm66vf6Wv7bxtW5vum1+XKvcW+/yawtS2cLxtPXkFYr5c+gpy/Tnkr0fT4zS9ZnFdKcjtd9+212BqavHB+2InTnlVTNtXME9H/V67paxrWB+YLPV+9dsH2a5RfugxbMN6fZtuH+S6fj8vZjua1hXlFc4paM5/vv+Ci8IPL3xi+P6OJ4R9GzeHfg737nd47ZnV5Tu3nxO+dPFTq8tnHTkUnrp3T7jqrjvCub3zKH39Om5X+uCpKXAogf1/sHUuddlRKHn/H9Ri/v2nnf3/1Pvk47309z8F0MdqBQj5fQBKIoAGipIPBvOvQqfez3FwFy/H6uf8q9d1Swk20mOny/Xl67e1hcn55fpz6xf2pp/jc0+helP4nW5vu1/ToDoPdZsC5K7tyR+77TVoep5t6296nerrzAPttgC87XfR9XyatqHp99f0ujdtd/51/Lzyuen9N4wJWNsEe5B1L3Zi17X+cU/uRxksLOf30vZeGdW2tm3LKH7/i92WUa4//b2PQXP8+x/P859vv/QZ4btPuSzcc+6O+futPXwobLvzh+Gs3mnjvr1h6wP3hXW9fz/WHZ399yRu68lNm8Kh7WeHkxs3hYNPuDjsu/Tp4UDvtG/T5nDLRU+uThcceCS88Me3h2f86Pb5f5eiVAWXBw9N/4bUX6dBnq/9f/BtGea6F7uc/X/0+3/+GMNaV9T1e1vqNtj/R2M17P9R3oYpVULn/aDzNhyLXTfA6WBq586d/qoBxUihZQocYrgcT/nXq9N1+YGl0n37qYeHi10uH0wOuq5h6Qp1m+RBbv01Wm0D4voEtr7tXa/1cgb4w5octIXpo3rMptB8Kfdf7jLD1hZkLGZb+k1UFxsyLPd1WMz+Gg3rd9n0Oqzk/j9IqNIW5sVTqnDe1AuMN2/ePH/a8+RLwg3XvCoc2Ly1Wv6MQ4fCOV/7Yjjr1lvCth/fseRtOvi0Z4Y9L35ZOPj0neH4uedV12079Gi4+rZvhku+f2v1jZx0ih+KxhAifWsn6vdcl8P+338dbfez/59e+/9y1jvu+45rv7L/919H2/2Wu//Hy/WD1Kae0KkFR96KI90HoBQCaKAYaaCXKn/jz/lBpOrBc977uWvi0jRIrw9Sk6bwI78+11WFMsgEoW2gu9iJ43Ieo+n2ptehaVvy5ULo34ak/hi5rvV0TbDz+zc9h/r2NOl6vZu2sek16LfOxer3GE3PcdD1Nhnkd9K0PW3vp7b3cv2++brbfl+L2Zfs/4t7jNW6/+fLpL/7GzdurMLnrVu3VqeTOy4IX3rVG6qWG9G6PbvC2Z/6RDj7xi+EMw4fGur+/8hLXhF2v/Vd4cR5s9XVl/z0rnD1jZ8La3Y9FA4ePFgdHDe2hYpBdGrF0/RcBmX/t//Xr+taz1IfY7Xu/03b2vTc8vs3PYf69jQZZP/Pt7Hfvtm0zsWy/6/O/T+e56c8hM4v1w9U2/X+AzjdCKCB4sSBXn5qCpzr4XPUNHHommCln9PXptsmHk3rabuuS79J7DAeo9/j5+scZLLV77phqz/f+mMu5vXIJwyj2O7FvHb59V2T+K77D2Ip78l0v3Se9oflvvfy55taqXRNmAfZfwd5vK772/9Pj/0/PU5838T2GjF8jgee3bZtWxU+33nVy8KtL7wmHF2/IUwdeiyc9V/+PJz1D3/XuK5hbvfBl78m7Hvne8OJ83eE9ceOhiu/cWO45OavhAMHDswH0SmETl/FTuz/9n/7fzf//tv/c6tt/0/3S+f5MT/yg6anZfL7AJRCAA0UKR8Qp8A5agqel7Lu5QwK64PYUTzGsKyG7ejahvpkeBjrnDQr8VoM6zHz9YzrPWD/Xz3b0LT/p9c3tV6KbTZi6HzmmWeG7du3h9te+6Zw+/NeWC2z8aYbw1m//2/Cml7wOy4nz78gHHj3L4bDr3ld9fPlt30zPOeGv69C6H379lUhdGzLEb+SnYKJUbL/L/0xl8L+P7xt8O//8tn/l/6Yy1GvcE5/6/OQ2nsUKJEAGihKUwVD/XJX+NxU8dD0c9skcpDBadsy9SqWpvv0W/8gk9v6+votP+iAu2kyMOjrOei2LrZ6aVQW8/to+113vQfqr1H9uq7H61p2qqF6rd+yg15fv20p617sMv0s5rVrekz7/+m3/+cHG4wtN2LVcwyeN19wQbjp7e8ND1305DD12KNh85//Sdj8d38VlmIY+/+hn317ePTX/9vq5yfd9aNw5cf/Szi8e1fYv39/dYqV0DGETqGE/X/x7P/d2+Df/6Xx77/9v2m9i9nmtFy/c4DSCKCBYrQNDvOJXb5sWqbp9qVa7voWc//6ssN+Lot9/H6WO6EYxvNr24Z+617uto96Qrxcy3ltx/2+i5Y68R/1ttr/241r/4/hczrYYAyfzzrrrLDlggvDl9/762Hf+TvCml0Phq3/+n8Ka+/88cDrHtX+P73jwnDgg/8uTPe27+w9D4WX/tkfhEO7HgqPPPJI1ZIjVkKndhyjZP8fDvt/O//++/d/WErZ/+vb2BVuA5RCAA0Uo2nQ2a/SJBqkYqNpfYuthlhKNUZ9+bbrmiaj+W39nkPb9ua31R+3aXu7qmvqoX+/7aov27TeQSd29UlB23ratnExr3u/dTW9Vvl19cv17e96TZuWadvW+uvR9ThN+j2npUy6237v6bqmx+l6/MU8T/v/6b3/x8vpgLMbNmyoqp5j+HzOOeeEb7zrl8N9T3tGFT6f+S/+D2HqoQdWzf4fD4b46Id+twqhd9x3T7jmP/6HsHfv3qodR2zLESuhUz/odGp7TfPtaPvdNLH/2/9P9/2/S/290Laeldj/B/1d5I9Rv97+X+b+v9jXD+B0cMZ55533rwIAAJyG0uQ+HXQwHnAwhs/x9IM3vi385FnPC2seejBs/Rf/vAqhV5PYDmTdV78Ujl/zivDoEy4O01u2hovuuasKndNpMW04AABgNRJAAwBwWkutN+JBB1PrjQde8drwvZe8qrr9zH/666sufE5iCL32tlvC8VddGx5+8iVh8/TJcO6D91Xhc2rBMeqDEQIAwCitDQATKP/6XNNXKJdjqesYxmMvdj39vrI4yH0HXTZq+1pk21dJ25ZbzG1d2zSM1zutK+paX9tXN5fyWMPc7uW8pk3L5FWag349ermvSZd+X8etX65vW36+nMdbjFTtutiv7U6i9BrF1hux+jkG0Fu3bg3hCRfPh8+b/v3/umrD5+SMO38UNv7pH4bDv/lPq+2+4IffD1uPHQvHeqd4MMK8DQeDaft3vs0w//1Pv6d+bSvq27lcg/7d7vo5l69rqWMl//5Pzr//TbfPtLQ0Gaauf+cXOx4exXa0Ldt0GaBkAmhgYsXAIp7yr2+3aZsk9Rtg9xsUz7T0EGy7b9djdz1efv+0ff0mH2m5QZ5H2zqmGvr3dT1O0zqX8po03d7Uj6/tMeu3Nd2nbdmmPoH5/QedtHVd3++1XcyEr+k93O817PeejqfUNiCdp2WSFArFU9z30v5XX3fb6zmo+uuUzlNFaX6At/rzS9uWn7dtR9e2tS0ftyGutykQirflr126nlOl6ueNGzdW7TdiAH3LdW8OxzdsDOs//Ymw4a//MpwO4naeeN7zw/FrXh5uefM7wtV/8r+Fo0ePVqcUQi9lH5g0+X4a/41P+26/vy3RIPt1v+vq+2865cvW//bl25xvR/3vetvjd21fvs763+f6tuXL59vW9PfZv/+h87Em8d//rscY5LrcIM+p7ffb73Xser5t92m73G/bmtYXpX0wjUFm/F0HJoAAGpg4aVIaA4t4ipfXrl27qAnGoNf3246mAedSHyMP/wad7CxW1+SwS9MgvWvdgz7XQa8f5WvS9BhN29Fv4tO1XV2vW9s2DHJ91zJLnZSnCVWcXMX2ASk4S4Fvft98X0z7YVtY1LVdTdueb1/995/Cofr21feftE1pG+tB+WIms/Xb2vbXtH1x29Ip/pzCx/z5Tbr895Tab8TTgy94cbjv0mdUfZ83/ukfheWY3nFhdYDAQcXHXE619eZ/+6Fw4A//U9h18ZPDwafvDFuO3BIOHz5chdDpvUC7tH+mfTftv+lvy6B//wf9O5P/bU77bmqd0tQ+JYW5+d+WdJ4vk9aXfh5ke+rX1bcv/7uX/22ph2fxVH/t0of1/v1v5t//ldPvtUvv8X7LLvVxFrvO+t+JOAZJ+6J/24HSCaCBiZImfzGseOAvPxmA4dv407vDJf/+d8PUgw8sqOCMk6wUslZ64d6+/+4D4fiTnhrGad0jD4cLPvXxsO1rXz6lwjSFRfFvxdGffXvY+8a3hnE769ZvhvM//+kQ9uxasH0ORneq+Pc8BmSx+nnTpk1VBfRXX/rq6raNf/aHSw6DZ7ZsDY/9y38dTjz3yrBY6z/9yartR+ztvFjxPqkVx82vf2u49kd3VKF6DKFjO478wxIel3+glT6QOPLil4W91705nDj7nDBOm+++M5z5j38X1n7/u40fasVtm7rwovDwr/5mOPKMy8M4nXHkUNj+2U+FTZ/423By394FoXJ6/arA+ayzwmM/8/aw/w0/G6Y3bwnAcO34u78K2//yz6rL/m0HJoWDEAITJU2wYq/QA+/6hQAM34ntZ4U9r31DmOmFLGfveSisP3a0sarvjCOHw7YvfTZsOrC/F0I/JZzctDmMw3TvcQ48+4pwoBdQnf/AvWFTbzvyECadb7rrx2H7t78e1py5LRztPZdxOXLBE8Le3rZt2LAhnPPgfQsqr/NtnHTp73lqvREPPLjn6peGu3u/21iJvPnffTgs1eHf+u/D8Ze8PCzFyUsvCzNnnxvWffVLYSnW3vG9cOy6N4Vj554XtvUC6a0P3FeFz/GUqlh5PHRO+0cMduO/7eHy54T9P/+r4eDLXt3b1zeFcVnb+6DoqZ/9RNjxyb8Nax7es6CqMW5f3Lb1vTD8UC/Y3dMLn4+P8W9KdEHvg62n/eH/J2z4zi1hpvc3OfUVz4Pn6vV7/ovCrv/jvwqPvfDFYWbd+gAM37n33BW2//gH85XQ/q4Dk0AFNDBx0mQLGK0YBh58+jPDeTd9Jez42/8SDh06VFVypmrj9JX4rTd+IZx/y81h38++I9z36teHcTl61jnhe+//H3uP/fWqInpDL+g7cuRIFfTFCWH1VfRH9oYLPvq/hyf0tu+ut783HN22PYzLAy99Vdj7nCvDhV/5bNj+zZur1y69fnm4NalVU/kHijGEjqdvvOCa6rZY/bxUseXGseveWF2OBwfc8Nf/eeD7Hn3bu6sAOt5/qVXQUXzMWAV9Ty9Mv/qbX6ueW3ye8b056FfyS5Y+hEntLKo2Ptu2hQNvfXc4+IKrwzitO34sXHL7d8KF37opHO39vXgsPP61/LzdxtFXvDY81Pvge3pMH7Ql8UO2S2/8fNj4g++HR3sftqU2SXmAH1+/2H/84Xe+Nxze+ewAjFY6aG4cc8S/EfHfdRXQQOlUQAMTJ31d+5G3vycAoxWrmg9e9szwyDWvCJunT4ZtDz0w3+c5/2p6vO6se+4KT+oFOTNbtoRHdwzed3e5Dl14Udj1sleHjRs2hO0P7wpn1Potx23b0AtuLr71G2Hb0SPhsfN2hBPrN4RxOLlhY9h/2c7w6M7nhB29IGn9iePzwdFq68U5Til8jlXisfXGtl74OP20p4fvv/TVy69+7gW/MUSOtvw//q9VJXMMogc63XtPVb1cbWMvLF572y1hKar1vPlt1Xttx/0/Desf3l21YlEFvbBPcXUsh+1nhSOvf3N4+Bd+LRx90lPCOO3Ysyu89Iv/GM658wfh2GOPLfiQKIrbON37EGHvP/mvw/7XvD7M9LZ3XLY+djBcedOXwuVf+FQIvb+78QPAeIrvo3Tgs2ofOvfccOAX3hf2vO+/CSd67zdg9C64756w/c4fzvf4T99IACiZABqYKHlosVcADWMTg+h9z31+OPHUp4VzH7ivasuR5Affi205dvzojvCUH34/7O4F1yd6Aey4HOht2/4rXhS2zEyHM3c/tCAoT4HNll7gdOG9d4eNvW195MKLw7gc37I17HrhNSGcf37Yvu+R+SA6qh+sbBKkADJ+mLh169aq/caPrntz2Hf+hb3A+IsDtb+IfZ6Pv+q1VdicTieed2U4/sprw0xvnTHI3vQffi8sRuw5HStJYxX1yV4gPnW8Fxg/8cnz648HNYzBdL/K6Hi/mbPOCSd3Pjus710+/8d3zAfQk1opl1cUx+A5/u7Ds54b9vz6+8OhZz0vzKwd3xc7L9i7O7zk2zeFy7799XCstz8eOHAgHDx4sAqT5oOk3ntg38/9ctjzrl8IJ849L4xLfL885/vfDld98VNh409+XG3Xo48+WoXPsdoy/S2Lr+GjP/dL4aH3/w/h8OWqnmGc6gF0Os4DQMm04AAAxmbvc66oTufffGO48OMfDSfv++l89U88jxOwGLJt7p2u/v3/OTz8gqvDnde8KhwaU+uLo2edHe58+3vDhte8MVz+R78fph+4vwpt4nbFACdOEjf1Tuc/vCdccMd3wt0vemm472nPDOOy51lXhINPfGo49zu3hPO+8Onw2GOPzQeTqW1ImsSWHFLmB5yLX2WOYdru3usSxYMA9hOrlA//5m9VIXSbpbbx2PCx/1wdvDCu+/Bv/NPGZTb/uw/13c4Yoh+9/t3hgd77a2fsH9w7xeebfzAyCVLFc/rQoaoq7gXzD7/uzeHIJZeFcVrf2/ef96Pvhkvv+G4V6j7cOz02V/mcqtOrb3289g1h36uuCyfG3G7jyffdHV5w05fCVO8DtIO9bUvBc7310fFnPy880HtvHj/v/ACsgOwAoJP4ITIwmVRAAxMlP2jV3ut/LgAr49DFTwr7r3hB2DLXliOK4U0MUeMphiXxtOXB+8OTekHv+t6kbO8Tx/f1+pMbN4UHr3llmDl/R9j28K6w9uhs5WA8pSrUcOixcP7dd4ZzDuwLB3Y8YaxtOQ4+6alh3/NeGDb35q/b9u5ZcJDCSRCfbwwiYw/NWAG9pvd+uv2lr64qizd/5N923jdWJz/64d+NTTgbb4/r2PRH/1vY8Im/CUsR22fMPs4TqkrqJrFKesPf/01V6dwmVlPHAPrYmdvCU79/W5g5sL/6MCQFiaUHFXmP4vRBw/qzzw6Hfvad1TeYTpx9ThinK370vXDNzV8Mm+++K+zbty/s37+/qnxOH0zF38fhK14YHvyNfxYefe7zw/QY221cuPuB8JIbPxcu++ZXw6Hdu6rtS1XZcfvi39TZBS8Ku377A9Xrd3LzlgCsjB333RO2/vD2+Q+RVUADk0AFNDCRVBjAyjt69rnhxz//T8LGN7wlPOmv/vew9etfrSr1YliSKnrjxGxz73T+P/5duODWb4a7X3FtuPfy54Zx2XXlVWHvzueGC7/6hbDjUx+f3764XfE8BoKbv/2NcNWPbg8PP+fKcOeVV4fDW88M4xAPiHj3G98Wzn76znDRDZ8I6x98YP7rvCnIL7EaOlWNpQroWP18sBf2Rmtv+1bf+5/MqmbjgQLX3biwXUcMoNtaZMQWGrFNR7Xco49WfZ9jUFy38c/+qDpN13qZH3/Jy6se01X7j97lflXQa2+9pVpu71MuDWfe85MqdE8V0CVLwXP6oKFqF9H7O3Hw5a8O070Ph8Ypttu45ltfDVMP7wkHe2FR3s4iBc/HnvmssPdNbwuHLntmGOeetv740XDFbd8Ml976jSrI2jUXOKdQKwXPU70PMfa94+fDvtf/TPWzERCsHiqggUkhgAYm0iQetAtWqyO9IPqHv/7+sOOKF4YL//6j4eS9P52vMo4hTwp8N/VOl+z583Dhd74VvvuGt4bD284K43Bi48Zw76tfH3b3wuiLPvvJcOZXvzQfkKcQqmobcvON4Yqf/iTcc9VLw/2XXR7G5ZGnPbM6nfvdb4cdX7whrJ9rG5Jew/ygdSVMbtPBK1NlbAwo9zz5kuq2GNj2vX9WlRzD56YAuS621Djyi++rzuvigQZjkB3D6Lr6umNbjRhADyoG6jGA3t8Lss/phbDxucbnXD8QZQnyf5fz9irTvXD3oXf94tgrnrccPhRe8u2vhe33/bQKnfN2FnHfqnrXb94SHn7nL4QDL37ZmIPnY+HyO74Tnt77W3h83yNhT237YoV83OfjPnKwF4w/fP3PhenN420HAnSrz0WEz0DpBNDARDLIg9Vn14uuqU4XfuGGcN5nPhnWzgXRMUxJoU9VcXz4W+HFd/4w7Hl+7A/9yrH2h77r7e8N21/w4vCU//KnYd2DD8xXGcbwJ17e2Ds9Zc/u8NQdXx17f+iHn31FePRJTw1PuPHz4axv3jRfpZnC8lJC6Hp1bDztP/+C6ramEHi5YvB85Bf+yexjP/ZoL7T+YnWAwtkDCz69CqUP/q//39mq5z99vG/08Wte3guPX9Hbph+GDX/9l2Ep4uNEh7Zvnw/bS6yAzvs8p+B5qhe67/25X1qZPs8//G649AezfZ73zFU9532epzdtDgde8/rwyKtfV/V8HqcLdz0QrvnyZ6o+zwfmti1WPMd9Pf4NSh/QHH/OFeHhX/q1cKT3NwFYZRr+HVYBDZROAA0ArCoPvvLa8Egv1Lv4k38btn/5c/M9VlPv23geg5YtX/l8eF4v3Hvwxa8IP3n+VWFc9j/l0nDrf/cvw/m3fD1c+Om/7wXR98/3cEztQzb1wqCn9oLo7c99frjrBdeMtS3HT97w1rDhJa8KF375s2H7N75WBVMpiE6VkVX15mk60c3DyhREH9sw25ahrXXGUsUezCl8juFyDJLrjxFvTyH11GMHw4aPzYbNMaA+dt0bw9pbL1hyAH3GXbOB+r7zL1xwAMJSKqCnsgNxpQ8T1vbC9oOv+9lw4GWvCuN2+U9+FJ71vVvC8QP7F1QV5+0sjj7j8rDrl/6rcPycc8da9XzOvofDi77xlbD97rvmQ+cUjMf9Ox1gcOaCJ4Rdv/lPw+Gdz9ZqA1Yp38QEJpEAGphIBn6wusX+0He+95+EDW94S7j0z/8wbP3Otxe048j7Q1+8Z1d4Yi+Y+cnLXjvW/tC7r3xROHjJ08KOr3whnPvFG6qgKoZAeX/oLV//arj6+7eFh3oB+d3PvjIc3jLG/tBvuj6c1wvLL/jSZ+b7Q6e2HHH7Ynh5Oh70KG/BkU6PbdtW3ZYqhochHqwwhc+xxUYKkWNf53hbfKzYYiNWPsfzQ7/9gd7y7wvrP/XJKqSO1djrP/2JZW1T7DMdHV+/cUHoXoK84jn1eT70quvC7uvetCJ9nl9w2zfDpt0PhoO91zwdvC+12IlOPPmp4eF3vDc8NvY+z8fC8277Rrist30xcN49Fz6nquf4NyeKfZ4PvOmt4ZHX/6x2G3AaUO0MTBoBNDBR0mDPoA9OD0fPOTd8//3/Q9jx9RvDBR//aFh3370Ljhif+kRv7oWrl+x6KGy/+85w50tfHQ6PqS3Hke1nh3ve9Law6yWvDBd+5pNh29e+NB8KxVMKyrff+MVwxY9/EO656mXh/st2hnHZ86znVacLvvm1cM5NXz6lP3QMAFNF9OmkXgF9fMPG2euHWAF99K3vqg4WGEPkFD7HkDlWNSfx+hhOx4MJxlYcx3rh6dG3vasKpWO/53hajvR8jm3YsKBa+HT+EDX/3aV2Gyef+ayw+2ffEY494eIwTlsPHwrXfPumcNb9s32ed88Fu/HDmvSNi9jn+ZE3Xx/2vfp11X3Guac8647vhGd962uzfZ5r7Tbi35ZU9Xzo1deGPb/w6+Gk4BlOC/HviGIYYNIIoIGJYrAHp6ddL3pJdXriP/xtOOeGT4bjex+eD1FjeJoqjzd/5fPhmlu/EfZceVX48Rj7Qx856+zwk3e8N+x42tPDBb3AcmauLUfqDx23dWNsy/HwnnDpjq+G77/q9eHhCy4K4/LQC14c9vWC7yd85XPhrG/dvKC6M4X5p8sHdHkIm4eyw3biuc+vzmO4HMU2G3n4HMWweerRg1XgHJeLAXTs+xx/HoXT9d+wfLtT8BwrntdcEPs8//KK9Hne+ZMfhKf94Lvh+P79YffBg1WwG/eL1KqmOoDfa98QHu59wBR7Po9zr4h9nl9y42fDmt27woHetqXgOQ/G42t64jlXhL3v+Pmq3QZwejI3ASaFABoAOG3c+4a3hN1XvzRc9Mm/Cdu/9Ln5thIpjE4HKtxy4xfClT/5cbj7Fa8N913+vDAuu654UXU6/5abw45P/X0VRKee1Xl/6Gf91Z+Fvc+5Mtz5/BePtz/0G98WNrz01eEpn/hY2P7D26vXL25b3h86Oh0qolMLkVFt6/SFF1bna2+7pTo//uKXNy4XQ+cYOKcDIMb2HJwqb7cR+zwfeuW14cDLXhOmN24M4/S0e+8OV9729XDiwP5wIOvznKqKo2PPfFZ46Bd/fex9nrc+djC89KufD2fdM9vnOQXPeR/qKqx6wkXhkV7wvP9lrw7A6cm3MoFJI4AGJpJqAzh9xf7Qd733fWHDG94aLv/I/xzW3/fT+Wre1J4jnqqK410Phqc94fPhjte8ITx06TPCuOy+8qpw4JLLwsWf+Yew/eavVEFvDHjz7dz89a+GF3//tvDTq18e7n72FeHEuvVhHGIQ/YP3/Go473u3zvaHnmvLkV670yGIzifu8bTu6JGqDUdsmTGsNhxxXQt+3rq1cbn0eOm8fr9hbMP63u8m79l9OgQWeaV6rCaOFc9Vn+de8LzndW9ekT7Pz7njtrC99/ci9XmO7/v0IUx08rzzw65f+vVw+LKdY+/zvPP228KzvvnVKnDeXQue4wdEUezzfFCfZyhCfS4iiAZKJ4AGJpJBHpz+Yn/oW/7lh8L5N8/2h15//73z/ZdTZXQV9Paue+auPw7nv+DF4c6XvGpsbTmObj873Pn2nw8beuH3kz/x0bDplm/MVzHGYCkF0ed/4dNhRy98uudFLwv3XfbMMC6pP/RFN34hnP21L4X1j+yd/4p/asuRKozjRHk1/d1MYWw6xYB22AF0PHhgrGaOBx2MBxlcd+MXw9Hr333Kcmfc+cPq/OSll839/KMwLKmaevPBffO/i9V+4Mh68JzabZx85uXh4df9zNjbbWw5fCi86HvfCjvuuWs23M3abcR9sap67r1vDrz2DWHvG99aBc9j7fP8g+9WfZ5PxD7PtYrs+Dcs7X9HrnpJePgXfy0c64XkwOmtqQxmtf07CzBsAmhgIqmAhnLs7gUzjzz3ynDhF24I5//NX86Hz+kgXSno3fTlz4UXf/vr4aevvC7c/6wrxhdEn3V2+OF7fy3suPx54YIb/j6se/CB+arGdJDCzb3TU/bsDpf0AsdvvOnt4fDWbWFc7n/JK8PDz75itj/0N29a0B86bt9qO0hh2pYUPsff8Vm7HwqP9X6fJ592WRUWD0MKnGPf59hiI55if+e8xUYMqTf+6R9Vl49d+6bqPAXSw5AqoNcdOTr/XEfdemSp2vs8XxD2veXd4dCznhvGabbP8w/D03743XB8375TqopTH+VHr3tTFTyfXIE+z8/99s1h2913hkd723VwLhhP30ZIfaiPP/eK8Mj176n6PIumoAz5vmxOAkwKATQwkVQYQFlObNwU7n39z1Zh9MWf+Juw7csL+0On/ssx2DnvH/427Lj1G+HuV1w73v7QV76oOj3xc/9YteWYfuD++e2K5zF4iv2hX/T/+/dh73OfH+688uqx94de/9JXhWf8pz8OG3oheTogWx5ER6vh72dqExLP42nzgX3V9bFaeVjWffVLVQAdT/EAgzHY3vZr76kC6fg4U4ceDes/9cmq4jqG0kevf1d1vxRID0Oqqj5r94PzH6jEU7Sa/h1LAUoMTOOp6vPce0899qprw8GXvXrs7Taedt/d4dm33xrWPLxn/iB+8e9BqiqOjj7j8rDvZ94eDl32zLH3eX7ZV78Qtt9z54KK7NQKJPWhXtN7/fb+0q+FAy9/TfWzUQuUyZwEmBQCaGAiqTaAMsX+0Hf+wvvC9he/LDzlP/5BWP/AvfMHF0vhUzzF/tCX7N4VLr3wc+GWt70nHDzvgjAu97769WH3868KF33mH8K2r31pPnRK21lVRN98Y3jBj24PD/ZC6B9feVUYl2Pbzgrf+Y1/Hs797rfDji/eUAXR+euWKm/TaSXFIDa1UNg+V/V84nlXhg1//ZdhGOLBBzd87D9XAfSjH/7dsPVf/PMqhI5hdO7Ec68Mh377A9XluPywKrBn1/386vz8n/6kep6pNcpqCSzqwXOsel6/fn040tv/9l77pnDi7HPCOMU+z8+94zth+/0/XXAQv/Qerl678y+o+jwfmmt3M65XMvZ5vvz228Jl3/lWOL7vkQWtQNI3Dqrt2bK16vO8/w1vCSf1eYZipb/j5iTApBBAAwDF2f+0Z4Rb/y8fDju+fmO44O8+Gqbvv3dB0DvfH/rw4fD8//D/DntXoD/0XXP9oS/7sz8I637y4/mDAKagcWPv5xgCX9AL1O5+0UvDfU8bX3/o2JJj/2U7w45vfq3qUZ1CvHp/6GjcYWje/zlVkJ97z53VbSmwHZZN/+H3wszWM6uq5wN/+J+qqui1t30rrHnwwTB94YXh+DWvqALoaP2nP1EtP0wxUI+2PnhfOJQdIHI19IGOoclq6fMc22286Pu3hIt/fMeCg/ilfb163Xph7oHehz/7XvO6cGLjeIPdy+76YXjBzV8Kxx7ZG/bPbVuqek6V7fF1PPrs54U9v/Fb4dh5OwJQrhg5p+A5P6guQMkE0MDEcZAPmBy7XvSScKAX3F7QC1HP+dTfz7flOD4X5s1XHH/l8/P9oX90zSvDuMT+0N/9b//7cP4tN4cLb/hEWPfA/fPVxnH7qmrt3jY/dc/u8KQnPjl8+9o3j60/9IkNG+b7Q1/4lc+G7d+4ab5NQGobstIhdAqgz+q9PlsO7K/6QMdAOFYvD8vmf/ehsOahB8KRX3xfL3B+eXXKxRYcG//0D4dWeZ3E5xGrYbcc2BfWP7wn7K+1QlkpKXiOp9hqowqft28P+9767vDoC64O4xSD58vv/mF42g++F47v33dKO4vUruTRF7887H7ne8P0SvR5vvXrYfvdd4YDcxXZ8ZT6PMffZwyep3sfmO3uvb8O7Xx2AMpXHey09k0i8xOgdAJoYOKkI8oDk+HI2eeEu9/2c+HBV14bLvrEX4dtX5rtD50OTpgC3/n+0Ld9I9z98vH2h9595VXVKfaH3vGpj88HVKktR9y+2B/66gfvD3uedUW48/nj7Q999xuvD5tfeE249GN/ETb0tiEPolNF7rjbcqQPENIHChf9+I7ww97rEgPiYQbQUTwA4fobPlmFwicvuSzMbN0apnpB4hl3/Sisu/FLVQg9bMeumz2o4Xk/vWf+PbrSLTjyiud4in2eD73q2rB7Bfo8x3YbL/7WV8NU78OHA3MVxXmlfnTsmc8Kj7zpbeHRy8b37YEo9nm+4rZvhifeftuCPs+x3Ubcd9KHCGu2nxX2v+Pnw77X/4wezzBh0gd5AJNCAA0ATITYH/quX/i1cM7zXhie+Fd/Ftbft7A/dAqkN/VOl+z68/Dkp3w13PLW94TDY2rLEcX+0Ht6QfQTPvvJsO1rX55vy5EH5lu+8dXwvJ/eVfWHvvtZ4wvJD51/YfjOb/yzcN73bg3nf+GGsOGhxw9UmHoxR+MKR/MK6Pj7u+AH36sC6GOve1MVGA8SCseDBw7as3nNQw+G9Q99MixHrGgeVGrtcdk3bqx+76midyUC6Hq7jdjneboX7u561y+Ovc/z2Qf3hRd+91th+30/DQfngt14yj8QOXne+WHfm64P+1/8srEGu7HP87Pu+E7V5zm229idtdtI+3L83cXX8MAb3xL2Xv8efZ5hQql2BiaNABoAmCh7n3NFdTr/5q+EHX/3V2FdL4iOwVAKr1IgvSVWHP/+/6vqD/3ja145tv7QR86K/aHfGza85o3hmX/wkbDuwfvnw8cY+MZt3dDbtose3hMujtXaY+4PvacXeh984lPCud+9JZz7uU9V4XgKyFM/21FXQ6f15wH0eT/+Qdhx3z1h18VPrno2t7XEOOPOH81fjgcXXClrb22v0o7bH8Pxs/Y8FDb1ntPuvJfxmFtwxNA5hs+pz3N4yiVh71vftSJ9np/3o++GS+/4btXGYlcvfE4Vxem1mdm8Jex/zet7p/H3eX7yfXeHF9z0pTC1+6GqIjsdADHtG/H3Fl/H472/Pffr8wyTTfgMTKAzzjvvvH8VACZI7FkZq7f2vv09AZhchy5+Ujhw5QvD5pmTYesD91XhUAyxUpCaDga4uRcAP/kH3w3rehPGvb3gdVxObtwUHnrJK8PM+ReE7Xt2hTWHD81vXzqFQ4+F8+++M5x94JFwYMcTwon1G8I4nNywMRx80lPD/ivmXr9eGJ7E13FcIWmqyk1/1zf2XrP7L3tmmO79ntoC6DWP7K3OTzxvuAcsXIzYMzoe0LDNY//Tv67afDznC5+p2nwcOHBgvto89TUetfTaxlMMnteffXZ47C3vDA+/+5fGXvW88yc/DC+76fNh80/uDPv27Qv79++fr35OHxwdufKq8OBv/rPwWO/3Or12XRiXC3c/EF5y4+fCZd/8aji0e1e1ffF0cC4gj9tXfRhz4RPCQ7/9O+GRt8eq5y0BmFw77r07nPmjO+bbBq2G/v4Ao6YCGpgo6QAfvvYGRLEtx50//76w4fVvCU/4i/8Y1n/ty/OTwXSAwvjzpsOHw459Hw8Xfudb4Scve2249/LnhnHZfeWLwt6dzw7nf/lz4eyPf3T+4ISpb3WssNx8yzfCVb3J7N7nXBl+fOWY+0O/6e1h+9MvDzs++ddhzQMPVNuTqpNH/bc2Vayn39NFt9wctrzkVeGxCy4MR69/V9jwseYQOrboiJXQ1YH+tg7eFmO5Yt/oGDx39ahO1c/x4IMXffvmsLsXYqYWMeMKn5MU7h/5mevDw6+8dvx9nh/eFa655aYw9fDu+YP4pcAmfSvgeG/fONgLxg89feeY220crfo8X3rrN2b7PM9tW9zGBVXPZ54ZHvuZd4T97/x5fZ6Bysm5f7vylkoOQgiUbmrnzp3+ygETIw7uYiXX5s2bw0/+9K8DQO6sr3w+nPkXfxam7//pfID6eHXtxrBly5bqFMOu773hreHwtrPCOK175OFwzsc/FtZ9/tPzPZer6tTe9sW/a/G0phde/vSql4f7e9s4bmd+66aw5ZN/F04+eP9YDpiXAtJNmzaFs846K5x33nlVqPz5d/9K1QN62/veM5IDBI5KDJ4f/dDvVucv+oe/qd6Pe/bsqSpqU/uVcQUUVRjSC3cP/cp/FU6ec14Ypy2HHgtXffMr4ewH7quedwqeD82F8VXrld57/tD17wmPve7NYw92n9P7YCD2eZ4+sH8+dE7tNvJqxiNvfWd49D2/HKZVPAOZyz7/qaoF2MMPP1z9/Yh/N8b9ASPAuAmggYmS+ljGIGnr1q1h+/bt4cwzz6zCixhipGW6JvjpiNX5MvX75D+33VY/H2Tbu5Zvur7fYy/2Mfo9ZrwcA6H680u3NT33dNsgFlsdkj9G0zry7U23peublm/6uW3d9W0Y5H1V396m5dvWN+h21t+bbY/Tbz1dhlXF0/T7S+tPt7c9bv1+9fdpFCd78ZQqaFMv49RXNgWoUep/u2HDhurvRTzFsDf+LYnhb/73o8ugr036pkbavtTnOG1f+mp/2r74+HH74vakbYunuL3xttTHdxD9tjFtW9q+fNvS9uUVu6MMTFObiPg849/0c845J5x77rnh5l/5r8OuJz6lqjbe8n//P4XTxaHf/kBVAX3xj38Qnv8Xf1yFz3v37q0CilTxOy6p9UY85e+p+B6Lr3fcJ+J7K/09GoZ834zvoXRK+2R8DVK4Gx8zPn7clrRtcTvjz3Gb421xG/s93mK3PT52fG/n21Z/z8dTvn3xNctfv/g3I25bPA3y+vn337//Xevz7//g//7Xr4/vgfzx+r0e9fUtZvwfxb8f8d/M+IFVbK2Ut1fSggMonRYcwESJA8E0eYyT2SgO+uJktWmiuthB/iCTwDbDXm61GMb2Djp5y3+OFjNRXOpjj2Id/SYwy92OUb6HmgKH+uMvd/2DThT7hahJCoxiuBX/HuRVpnnYGv92pB7Mcdk4aYxBUvz7kXrl1h97kOdcf7/WQ5L8cVPbjXQwuhRIplYUeVgdQ8sUjreFXINMntv2p/x1SY+bB4Tj+DuVtiEFgnFSHwO+5//9R8NnfvW/CceveXlnK47V5Oj1767C53VHj4Tn3PD31e8vvsfia5p/GDIu6XebtzmJ18Xfc/z3Mn+/59pCtEHD0/TBRv5+T69BfhDG9J5O2xbFy/Hf9vSBS7/wrykUbXvPx+vS65H/HUh/N+oH4EzLp2XjdsWf4/Lp70V6HP/+L30d/v1f3Hr9+7+4x1rqz23X1dtGzR9A9TTarwGWSgANTJw0uY2Dv/pkMLfSE71xTUiXcv98gr5anG4TtXFsQ9PvaRwTt5WwlPdkeq7plFdE5yFqWwidKkBTJeNiDRKMJXnwlbbv/8/en0DbdZ33neB+mCcCIEgCIEiQ4DyJJiVK1EBJ1mDHkkfFlux46NhqJ1610uV2O13VbXcnTqW6HTntrjha8VpJpZbLcq+WXCk5jjyo5EhyZEm0ZkqUSHEeJEoiwJnERMyv7m+/+7vvuxvnPgAkHvDevd8fPLz3nXuGfc7Z5xv++9vf5+8ScpEsxKm1ba18OxHBcSoESCTKJeDaezffiAOLDgqs2Pm9ct3n/6Z84y3vKAd+7r1l2TfurDmfFypIufHiP/yv6/frP//pMt1rfyxid7Yi4+xzDnpEfTlfeiC+Z/Z1iefYp2iD/d3+B6EzarClxVx9f65+H98z2xaJ53ZwywEt38uTmY2Q+v/UkPr/eKT+nxunon9PJ+LAnsWEM/I5kUhMCpKATiQSEwmdRRzCUVFIJxMZ2PUdjPq7CyezTVd7RrVr1LFGRXTN9Xfcz31Ppb2j9ns5hv/UHNGicx2r6z5FnMozm6tt8fpO9GxGRZuezLWNOuaptqs91lzHO9W+Ptc1xc/2OCfb1pO9T6Pa0nWs6By2ZNJ0Q1azb5QfkeQ90bvSdf0ns31sV+u0xt+RbZLiXZGqc92L2IZTef9ju9p7N5+IBLSR30SlX/y3ny4HNmwqD7zy1rLvn/x2Wfcbv1aWPLmrLDSY9xlc9bUvlYv+9m/Ks7t3D3IKn4lc2l2I91UyOOpKtxklO17O+w+85lH9yffQ/k47R+FE73/b/hPpxnZwahSBJFFNO7vew1OV4XOtT/0/+lip/1P/n0j/z3Xv5+pLp3JPIk4k3xKJRGIckQR0IpGYOGhoSiBl0Y9EYmHgZBzJ07nfKJzoWNFZPFuRS6PaaNu4JxYpPNM4G450JEshbY3+vuY//3l57oIt5amLLy17f+f9C46EjkUHyft8ba+9z+/ZU0n0s0k+i+lm0OVsnH+u384mcXMycgKcDVtjLgIv/p5IJM4u8j1MJBKThKXnn3/+f1cSiUQikUgkzjJeqiOWDlxCRFLSCPUdjz1anrri6vLi5q3l8OvfVJZ//vYytW9vOds4evmVZd9//7uVfN749BPlNf/x/1/2Pvtsef7552v6DaK5Mzdo4qXAPjPXQFUikUgkEonEmUQS0IlEIpFIJBKJsUFLvi3tkbiXPXx/JaB3b7+0Fvub2r+3LLvvnnK2QBv2//pvlulzN5ULvvvt8rr/8Edl/5NPlhdeeKHs3r27ks9nsphjIpFIJBKJRCIxn0gCOpFIJBKJRCIxVoiFGSFwlx49Ukno6bXryjMXXlSO3PLacmzLhbUw4ZmMhub8+3/jn5WDP/HuUlasKFd/7UvllR/5X8qeZ54ZRD5T6O9sp95IJBKJRCKRSCROJ5KATiQSiUQikUiMHWLuYgtLbvvOt8rqHhn97IUXl8NXX1tTckBAQ0TPN4h63vdPf7um3lh+8EB5xWc/WS771H+uxDORzzHvc6beSCQSiUQikUiME6auvfbatG4TiUQikUgkEmMFckBTiHD58uVl1apVZc2aNeWcc86py5KLLi53v+2Hy/euuLpuu+SJXWXVh/6wrPjkX5XTCSKeD/3gO8rBH39PzfUMSLnxqo99pEw//t0a8bynX3QwRj6freKWiUQikUgkEonEfCAJ6EQikUgkEonEWIIihBDRkNArVqwoq1evLuvWraskNJ+7XnlrufcNbyn71m+Y2b5HRC+7684eEf2x+vlSceTGm8vh172pks+Q0GDt7ufLLX/1Z+Wch+4v+/btq6SzUc8WHMzI50QikUgkEonEOCIJ6EQikUgkEonE2AICGiK6jYZeu3btYHn85leXh171+vL8BZtn99u3t5LQy+76Wln68EyuaAjqmDMacpmFtBrHtm7tEc+vrOSzpDMg4vmSu79Wtt35lbJ///5KPrNIPB86dGiQJiTJ50QikUgkEonEOCIJ6EQikUgkEonEWAMSWiLaaOiVK1dWIpqoaD9fvGh7eeiW15entl9a9q/fWF4q1u5+oWx7+P6y9YF7yvqHH6hkMwsENJ+k24B4jsUGk3xOJBKJRCKRSIwrkoBOJBKJRCKRSIw9IKCB0dDLli0bENFERbvwN8vBTeeXvVu39cjoHeX58zeXw6vWlH3r15fDK1cNjkkxweU9Mvncp3aVNT3Sef0Tj5fzH/tWWfHs05VkZiHKWdJZ4vnIkSODqGeQ5HMikUgkEolEYpyRBHQikUgkEolEYmIQo6FZIKKJio6R0XyysI7fIawlrt3fqGWLBkIqsxDVDMnMYmFBP2OeZ0nnJJ8TiUQikUgkEuOOZSWRSCQSiUQikZgQROIYIlnSGHLZPNF8QkAbKX0iAlpimYVjSUa7xBzPSTwnEolEIpFIJCYNSUAnEolEIpFIJCYSksCSxBDLEMiQzaTNMEpa4pnPdv8YBS0Z7Wf8PQnnRCKRSCQSicSkIgnoRCKRSCQSicTEoo1INjI65oz2e1zf7uPf7ZJIJBKJRCKRSEw6koBOJBKJRCKRSCT6aIljyWXQks+m4vBvt0niOZFIJBKJRCKRmEUS0IlEIpFIJBKJxAhEMrkllruI5iSfE4lEIpFIJBKJYSwpiUQikUgkEolEIpFIJBKJRCKRSMwDkoBOJBKJRCKRSCQSiUQikUgkEonEvCAJ6EQikUgkEolEIpFIJBKJRCKRSMwLkoBOJBKJRCKRSCQSiUQikUgkEonEvCAJ6EQikUgkEolEIpFIJBKJRCKRSMwLkoBOJBKJRCKRSCQSiUQikUgkEonEvCAJ6EQikUgkEolEIpFIJBKJRCKRSMwLkoBOJBKJRCKRSCQSiUQikUgkEonEvCAJ6EQikUgkEolEIpFIJBKJRCKRSMwLkoBOJBKJRCKRSCQSiUQikUgkEonEvCAJ6EQikUgkEolEIpFIJBKJRCKRSMwLkoBOJBKJRCKRSCQSiUQikUgkEonEvCAJ6EQikUgkEolEIpFIJBKJRCKRSMwLkoBOJBKJRCKRSCQSiUQikUgkEonEvCAJ6EQikUgkEolEIpFIJBKJRCKRSMwLkoBOJBKJRCKRSCQSiUQikUgkEonEvCAJ6EQikUgkEolEIpFIJBKJRCKRSMwLlpVEIpFIJBKJRCJxHKampkaum56ert/5bH+P60Ztl0gkEolEIpFITAqSgE4kEolEIpFITDQklZcsWTIgjOO6drsuYhpIMrcEdFw/6rdEIpFIJBKJRGJckQR0IpFIJBKJRGLs0ZLHEMsSzSzx767v7uMxWhK6JZqPHTtWv/Ppb673023i9u2xEolEIpFIJBKJxY4koBOJRCKRSCQSY4dIEEsi87l06dL6GRfX8cnitnG/SER/5f/9r8vRNWs6z7t0//6y5MX99fuKp5+sn8uffqose+bJsmT/vrL8qSfL0t6y7MknStm7pxLPR48erYQznxLTkbROMjqRSCQSiUQisZiRBHQikUgkEolEYiwQI5pbwllyedmyZXVpv7dLJJ3baOhR5DPgN38/fN75Myuv6d52SY+sXvWdb5WV3360R1L3SOlvPVJW33NXJaJdkpBOJBKJRCKRSCx2TF177bVpwSYSiUQikUgkFh3a1BiRcI7k8ooVK+r35cuX18XfWvL5xQ2byu4tW8vh1avLi+s3lv0bzi2HV64sh1etLvvWb6jnOLxyVV3mE2vu+2ZZ+dijZdW9d5cVPUL62AsvDCKljxw5kmR0IpFIJBKJRGJRIQnoRCKRSCQSicSiQiSe2+hmSea4QEBLQrMc3HRej2i+sDyz/bIeybyxPL95a9nfI5xbLHliZ5nau7dM7dtbljy5a+bcvb8Pvus95Uxi1WPfqmT06ju+WFbc/fVKQrNISoMkoxOJRCKRSCQSCxVJQCcSiUQikUgkFjza4oExhQbkMkTzypUrhwhnSee9F15Unrnk8t6yozy1fcdQBDMk87K77ux97qok89JHHqoks4RzF57/6KfL2QJ5pNfe8aWy+itfKKu//PkBGW26jlgIMZFIJBKJRCKRWAhIAjqRSCQSiUQisWARiWcjnWNkM6Qzn6tWrRqQzmXdurLrmhtqhPPjV14zIJwlm5c++lBZ9o0Z0pno5lPF2SSgI8ghvfaOL5a1n/5kWd5ERnOfuDdr1qwp27ZtKzt27CgXXnhhvY/33ntv+frXv16eeeaZJKoTiUQikUgkEvOOJKATiUQikUgkEgsObSFB02tIOrNAOvt96pz15Ts3vqrsvOra8tTFl84co0cuL//8ZyvpvPzzt78ksrkLxzZvHRkhPb123cyybuazbr9la93HT9YfveKqcjowdfhwWXv0aNn61M5y2X3fLFc+8d1y6aWXlq1bt5bzzjuvbDp3U1m2fLbu+IEDB+qyd+/e8ru/+7vlvvvuK4lEIpFIJBKJxHxiWUkkEolEIpFIJBYAJJ2BxLPRzhLOcYF0/u5Nt5RdV15bU2uAZd/4Wln16f9SSWeW+cBc6TkguSvR/WRYeVf3tkcvv7IS0nweufHmSkpLWh+HY8fKyoMHysXHjpbtU0fLjt7fl01NlytWLi/nrVpaVm/fXFbtuLBw++o9nOa/4TiT3t2dSWHS+7euR5BffPHFSUAnEolEIpFIJOYdSUAnEolEIpFIJM4quojnmMd59erVlXDmk+X5y64sD199ffnWDTfV9BqVdP7Mp8qKT/7VnOTwQgP5plmWf+H2+jdR3kuvu6GsvOHGsv6WW8uFpM5YvrRcVo6VK5ZOlW1rVpcVS5f36OMVlVyWaBbtOojmdj33VmIaArpu17/3ddt+Sg7XZYqORCKRSCQSicTLRRLQiUQikUgkEomzBtNsWFjQNBst6bx0w8byvZtfXXZddV1NsUGU8YqP/UVZ1yNv5yvSeT5BbuZzzz23XHDBBTU380UXXVQuOL/3fduFlRjm90gMQyZXIrn/WTH4mCWYhwjk6brjEEldyf7+MbZs3jJ0jrhN/M4x/UwkEolEIpFIJE4VSUAnEolEIpFIJM44ulJtmGYDwnnt2rUzxPPGjeXR19xWHnrVawfRzqs/9udlxSf+6rTldJ6rjZGA7cKo3yRriWomH/OWLVtqMUDIZj7PP//8smnTprJhw4aybOmyUjxEnzRuieTp2bDmYeK5/2/wcyCi43o/l0z1yP4lvWs6Nl02b9lc7z+gcOFg/4774GeS0YlEIpFIJBKJU0US0IlEIpFIJBKJM4aYbiNGPEfimejfZeeeexzxvO5DH5iXaOfYpjb6V4K2i4T1GkwVQkTz5s2bazQzCyQzf69bu66sXbd2QDQPHUNyeXo4ynkQ6Tw9SzRXdPC+g33CcaempwaR0fVYEtKBXz7nnHPK+vXra0HCoeMFcrklmpOETiQSiUQikUicKpKATiQSiUQikUicEUj0QuoSGRyJZ0hnyOdl524q3761Rzzf8rrTSjy3xHLbnvjdBUAwuz3tpHgfRDMRzS6m0eA396vHL7Mk8BBpG6KSjWwekMPTZZhknipD5HPcfqjIYG+TQ4cOVTKZNhBZ3UZPS1TzOxHPy3r3fsP2S8qhhx8qR44cqeu6yGW+t5HeST4nEolEIpFIJE4WU9dee21aj4lEIpFIJBKJeYXkrhHDpNsw4tmo58de96Zy7xveMltY8GUSz21Uc0sw05auT8jx8847r0YvG8VMGo3zzzu/kswbNm6YIab7pHFMlzH4HkKNI1HcFTk8IKgDYT3YZSqk0+jj0OFD5dlnny27du0qzz33XHnyySfLU089VZfnn3++vOY1rym/8Au/0Nku8OKLL5aDBw+WI8emy38zvaLsvOPLZd1/+nCZfmJnJaGPHj06IJ1NzVGvo2l3ktCJRCKRSCQSiZNBRkAnEolEIpFIJOYFLfEb021AOEPmsuy56tpy121vrcUFT0fEs9HMXYQzCwQzC+s4//bt28sll1xSo5iJZoZ0XrN6zUwO6mVLZ1N0dEQstySvn5FIbreN7Rz6Pj1MFh87eqySzCw7d+2sRDPfIZklkYl6bo/7zDPPDEdRTw+fr0Z89/4tXzJVthw4VB7tEf9He89g3Z//aVl++6fqdpLQdfcQAR3XJRKJRCKRSCQSJ4MkoBOJRCKRSCQS84Y26tmIZ4jf5eduKt/8gR8p377hprLkiV1l3W/82ssmniPhzMI5yXXMOSn+B9l88cUXl4svuricf8H5NT/zkqX9PM9GGbdRx83fbSoNcyyDoQho8zfHwn4h1/PhQ4fLwUMHK5EMabxz585BNDORzRDNpMYwEtklkt7c17aA4BNPPDFLlIfoatvL8/D3C8uxsoTjbtxUdv/iPygrXv/Gcs4f/U9lya7HKwnN/kZFt/c6SehEIpFIJBKJxMkgCehEIpFIJBKJxGlFLNBnrmdzPBv1/Njr31zue8NbKsG66oN/WFb+2Z+UqX17X9J5+ORc5D0mdQYRzDt27ChXXH5FuXDbhXX9xo0bZ/M5h8J+QxHNM1+66vwNpcWI+ZCNdo7bTJfZCGiKAR44cKBGLO/Zs6cSzZDMLJDM+/btq+slkfmU9AXcP75DpseUGO33lgzevXt3LTAo4vUumVoyaOtF/H30SK+dM+09cvlV5bnf/Odl7cf+rKz4+P9WiedIgifxnEgkEolEIpE4VSQBnUgkEolEIpE4bTBdBWQvKTdiug0ikae3bitf+pGfLE9t31HTbZzze79Tljy565TOwXFImXHZZZcNIpq3btla169avaoS3oO0GaVJF9GQzxLPgzzN0xLbYf10GYp+rqv6UcVxf4jm3S/sLs8+92yNXoZYJhoZopnigKTLaHMqs1gE0e+A++c2Rj1LRPt33C9GYB8+fLjmiIaA7iSLBzUNp8uWJVNlWW/7wnGmZq5muvfM9v3k3ytHL76krPrzPy3Lnth5XJsTiUQikUgkEomTRRLQiUQikUgkEomXjUj4GvVskUGIYZZnb7i53PHOn6gRtav//b+pUc8tIDclrtmfvMySzUQ1b9m8pZx3/nkDojZGLs9yyNODtBiRJB7Kwzw1nCZjuBFliJwGx6Zn0lCwHDxwsDz/wvOVZCbSeP/+/TWSOUYK8x0iGFKaFBvsZ1qQeK1+duVWjoUAI/kcSWejsV0koJ9++ul6z7we7wuIxPW5U9NlRe/ajkz381SzvseRH+t9Hrj1DeXg1deVc/7o35dld3+j7htTcWQ0dCKRSCQSiUTiZJAEdCKRSCQSiUTiZSEWt4spNyCdiXxeed4F5cG3/GB58JW3DkU9sx8k86ZNm2rxv0svvbRcccUV5aKLLqppNFjP8WKqjZhj2VQXFYEHtegf6S9iMcCYs7l+nyrHpc+AaD5w8EAljlmIYoZg5tPCfxC8tAOS2YjmQXqP/n3wmEaDSx63v8WczjGlhp+RYI7f3a+NSDYP9gsvvDBYJ5ke80HX4/T+rSOSesXKsqR3rbUNS2buXW0v5Pe5m8qz/9d/Utb+5Z+WFX/yx8el4UgSOpFIJBKJRCJxIiQBnUgkEolEIpF4WZD0hCyGUGaBfCYFxNSFF5XP/PQvlmOrV5Vrv/y3Zcdf/XnZ9sY3lMsvv7wu5206r6bNoFjggGjuE8hgUEBvqkmlEQlmt48R0NNTneS0v3Os5599vqbLIFqYwn+QtqTJ4DokjSHTici2LcB8zKyHjG4Rc0RbhJFjWtQvkrYeK35vl3Yf73nMG91uC2Fe5uCFORftWd/7XPc3nygvvPa2uvmSYz3ieckxQqFn8kL3l70//u6y/JLLyrp/9/4ytfuFum8kzxOJRCKRSCQSiVFIAjqRSCQSiUQi8ZIQI5MlnYla3rJlS9m2bVs5f8eOsuLaG8p7V02X7auny4o3vLqU3iKpHFNfHBdJG9NgNORzu+0gT3OIdD589HAlkw8dPFR279ldCWYKAO7atavs3Lmz5maGPJawNXKblCEULeSTvyWiY4Sz54/FAWs7QsqMtr3sH3M8R8QI6Ji3OhLL8fhtvmjI4PY3SHXvjcc0l3UtRGiu6WVLy0VfvL0c/euPl33/1f+5HNt0fllSU3D02nKssvx1j95By8FXvaYc/p1/XTb+v/5JmX78u51pQxKJRCKRSCQSiRZJQCcSiUQikUgkTgkQs6TIgGjeunVrLQK4efPmmq8Z4pn0G6Z4mJ4jDHfo9+mhH4ZyNc9FcEK+khqDHMwQzE8++WT9JD+zpDNEdD1FIHNj3uSYO5ltOZ4ErXmbY47rSEC3JGwkjWOxwPY4XYS6hQeNbG5Tb8R9zAvtdi3pzf0glQi5tAf7l9n0JUuXLB18P++888p3vvOdsu59/6wc/MEfLod+6EfhnXv7zBDPg4X7ff7m8uxv/Yuy4X/47bL0wfsH5HcikUgkEolEIjEKSUAnEolEIpFIJE4Jv/RLv1Te9ra31RQby5Yu6ywAOKjfNx0KBfbzLg+2M2K5lCFydJB2o8ym4Dh0+FAt+Ld3795Krko6m6P52WdnUmnw3WKB5GiOxHE9fvgeo5Hdjv0koomKJs0GxwESxC3BHEloieGWmDXKuiXA436xXRLXHk8SORYitP383ZLX3Ie9e/bW1CaDez9oTO8cS5fMRJn3SGYGEiS4V3z8o2Xpww+W/T/3i2X6vAtmnsJ0/7H1iegjPRL6mX/5b2pxwuUf+fDQeROJRCKRSCQSiRZJQCcSiUQikUgkThoQlRQM3HTuphnSOEQoD0jjNgdzwFARwZCKA9IXopcif5DKEM3kZCaSGXKZdeZQhhQ2T7PRv3ySNoPvHMv0GuwjORsRidzYNtbRDhbJ6Bjx7D2IEchdhHRLTsfztVHQMcK5TaURiWZJadtsGyKRLnlNAcUXdr9QI9Xjs+s/oJl9+n9u3bJ1aJslD91f1vz+/1D2/fL/qUxfuqP0jliO1Wfaf37TM3lOdv/ir/Tu+bqy+kMfGLQnkUgkEolEIpFokQR0IpFIJBKJROKkIBkKKVz/LlOzuZdL6UwVEaOcj00fKwdePFD2v7i/RuhCKhvNDGHKcVmMHjZthceOaS4koyVkSQvCuphuY3D+0PbYzq5czZHclYiOBHRLFMe2ebwYBR1Ja8/fpvJojx/3aSOfW3TdH/flXsYc0LGgYyTeScERyfh6vmefKWv/5X9XDvzIu8qLP/aTlXw2hH2qPsvet96p977n5wstWNknodt2JBKJRCKRSCQSSUAnEolEIpFIJE4IyVmiiYlIHiogWI7PU7xv/77y3HPP1ShmiOY9u/eU5194vqbRgHwmshjSmBzFpImASIXsJbLZ7543QuI5EsEStERG0z5TXbCO7VnfRWi36TLcJv7WEtDuG0ln28lxREyd0eae7rou//b6PA/X00Zqe55ISnelFuFee5yakbs/GDC4Z1Mz13ruuefWAQByd7ftXPEXf1qO9la9+HffUzzFVJnNsFLP0yOhz+l9ruqR0JkTOpFIJBKJRCLRIgnoRCKRSCQSicSckPCF2IUsprDfEHp8I0TzHXfcUT8hnolqNhUGgASum5JDuEfqQj6vXr26ps2QSO1KQRHTYvgdkpO2xFzI7uP6+JtR0pC5pu0AMcq5TanRks8cg33bKOyYYkNIfMeI6cGtmh5dBNG22p64vceNxHob1W2qEe8nxP9UmWoe1WwKlKklvfP22OWNGzfW+9ZGZNu2VX/xH8vS++8pe379N8rUunOG+8bM4y97fvoX6t+Q0BkFnUgkEolEIpGISAI6cVaAY0TEE5E2RN1QxIhl3bp15Yknnihf/epXB5FPickF/YQ+smHDhrJ58+a6kHeUfJY4tg8++GD5xCc+MSA3EonTBUgciDH63iWXXFIuvvji2veYpk6Rs3vvvbd89rOfHYp2TCTGGRK7kMbIZdJmuN5AaHI3P/DAA4P8w+Zi5hPymUVS13XYAnwi70mdEVNqxIjgGI0sIkEKJGIloIHbe0yjpGNxP0lfixbG9BySvJH0jSS4bZOcjvmZ4/d4H+P3mJIjRl9b+FAC3OuNx5AMd5Fcj8djMIBnUCPAy2xhR/Nu1+16/5YtX1YLEbK9bWgJ5KX3fbOs+3/8etn9T/5Fmd661YdQpiXQyzAJHaPKE4nE4kTaQ4mXg/TlJg/J8yTmQhLQiXmFSgfhg9BZf876sum8TdWQYYkRSzooRFY9/PDDx0dXJcYa9AUisDBMtvYcW/rMhRdeWA0U+k7rxENUoMy+9KUvVQM4kXgpgJTBiaLPbdq0qX5edtlltR+ec845VR7F6ERImz1795Qbb7yxPPbYY+WRRx4picS4Q4IWYhedjuxFBtco5KWzpqS/QT7zvrANTqXEKoCsJf1GF0EciWDXxTQWMf9xJHkleiU8jXT2dz8tXmg6jhhVHcndeJy4TSS7LVDYnlMSuj2v9g5ojxUjquM9l2D2/BFdaTwicc+x2J9BAZ7D8hXLa1HImZqRUwMyeumSpaVHc9f90bcWeuzKJ13P8dSTZd1//xtl7z//l+Xolm2lNNHVABKaPVd98A87o7gTicTCQ9pDiZeL9OUmC8nzJF4KkoBOnBZEAYTxgqGCQjl347kzhW76zs4oaMgYjcP+KZjGExAYGCZEUNBfGAV3NJzfThY6+Iyop9GSOBFwrDSE6Wt8XnzRxdVAXrtubVmzes2QYTwo2jVTb2u2cFcP5Eyl7yHr0uFKjDskHHiHSJVx9A1vKuu/861Stm4ruw8fKZuQ29Mz7wx2ANtEwrhNWQE5TWoOvpOfmN+Jqnaf1kFt00FEQrclXOM2ppNwvYQuzo9taiP22B7C3JzLcZuWMO4ioN3HPNSRuG+LFcYUIDHfdNzONrftbAlsIWEfCXzu99Fjzf59e4zPJUuXDOyvSy+9tHz3u98dOk8XIKHX/rP/e9nzz/8/5cjWC/v7D2OvkdB9EjoJ6ERiYSDtocTLRfpyk4XkeRKnE0lAJ04JOEKMiiM4UBaMdjHSiRCqzlAQLmIQVRQibg4eOlgdT53QHZfumM1J2NvXUfah/Zscil3nSCwc0EeYzut0K76zdI2AvxQYXYYyFLGPZP+YTOBYYQDT13bs2DGYKrrp3E1lzdo1QxE80ZkCQ3lRS6i01e8+yi9yppYen4PhFYkx0RJm2f8SixVG9Uo+P/t/+Aflmbe/o0x/+XNl1zXXl587Nl021Q1Lja4lmhbZbwS0xKqfROMaEb137976t7mcsSkkfiVeYw5n4ftkHudIEhttKxHbpueQFJaAjlHXIqb58FyRhI7bdRUY9LxcUxsNHXNae1wjrk3l4XnNlx3vRSSvWxkTF4l/2sDy/PPP1+cyNeMpznz2Bw14ZgICCieT58ez8ViS6zFf9ZInnyhr/+l/U/b89r8qx7ZcWLoACb3mU58o5fHvZiqOROIM42zZQ3MhbaLFhTPpy7X2dJf/3/6WOL04UzwPQQcn4yelvBhPJAGd6AQOiyOaCB+EENMqmE7RNdI1cIDKcIQP02zJJ0iuSBwapnbidJoTEuDsEHUTj4WjG//u+t4VKZU4s6Cf0EdcGBW96KKL6ned55cD+smzzz5bR0k5Lv1Q+OxRjKOI58R4gmeN8WJ/Q37gWOFg0fcqMdV3mKIT1f8yQ7zYX6anOkfuqxE1PXsMt6kRg32DmWlm9RhT3Tleu/piGlOJxQLJZ+Q8un/3u3+uks/gkde8oUzt21uefvCeUm6+aahPI5NxPIxANo9xzO9sLmi2MxoG+c76GN0ci/jFQnu2D8Qif5EUbm0HI5FjjmRghHFLRnel5Yg5nSMZ3A6Oey7vgceN0c2AdUZc235JaYn4mL6jJZtbIjpGY3MvOb9R0AMZ2CeaBBHQyjjsPmwyz8t+tM82tJHYkNDr/p//uOz97d8rx7ZeODg8WHbgxXLZ//j+cnTv7rK/HwGeOWITidOLhWQPncj+HhVQlDi7WCi+nH93BXYk8Xx6cbZ5Hs7p9/g5CikzxgtJQE8wED4kiEcIMNo1JIDWrK7bGC3TzqpQAFmwB0HDKBeLgghnM0bs1P2mZyvUD441PZMncuWKlTPn7P1OG+L2XWgVUwqm+QMGCAQBRi2LI+EYKTFy7KWA/kOkFRFau3btqp8UKGAqForNPvCOd7yj3HzzzUP7sp6+6/dRaH/LvrJ4wGDUtm3bBv2O7xiwROoNogqDoWQkT2exrRD1127r37Vv9Fbv27uvPPfcc/W8QwMcZZYIw3A7GWQ0dGKxQSfQ4lP7fvTvlid/7KeGtpleu648vfWioenYvEvohe9973tDZC+2AnLeqGWjoJHx2CH8jS6ASDFdhdu1hWqiPI+EZowetvihv8fI50hWd72bLcEcyWL2ie1zOwnaSNq3EdCR3I75ryXNXR/bFosKdrXJdbbN3ySePSZE/5AzWaaOe9bst6GfxzGek9+057oG25Y8satHQv962fsvfq8cDZHQb/jjPyhTTzxenu2nZInPKeVgInHqWOj20MlEP4OuKNfE/GMx+HIt4qBr1FXxt0Q3FgPP499zPdN8zuOHJKAnAAgBhI6RLXyyMPVq1cpVx410DRwyR7iPTpcDB2dyNhqNhCByQajo/CCk3K4r4idO4YxTRdmvCqapfgqOVSuHon660Dpgacy8PHD/IBqYZuOUPfN5Wbn2pRooTr3GCMERRnlhzPKd0VL6THTEdVbpoz5blF3bXkAbp+aING37QyQbUqktHDhCjjO1ffv2+p28hOesO2coWk9jaei59af/V3k13UwFC/IsGln8jZzCON65c2c1lB//3uNlV49MoW/SJ+nzv/Vbv1VWr1o9dC5yHoItm7fMKaNAS2qlnEosdKijsR1qvuSLLylP/Mzf79x25+rZ2UqSGjg8Rt/az5HpOivAaFrkPvoAXUAEFAR0JIndN0b2tiRsTGPh+2jxQ3+zGI77m7/ZtsR8zp4rRlLbbr97j9poLXNMIzuMHLetktH1XgV7SLsqRj63Drc5pbsIaPdtiWyvCd2LjIsyMMpJ7a7axgu2lCduubVsu/OOwbk9Xjx2ey8godf+5v+l7H3f+8uSJ3eWIze+sjz0ph8or9z5+HG6PdqEiUTieCx2e2gu27q1wdMOP71YzL5c/Dva1l0DnyD7zQwWM88j4nfPFZF++3ghCegxAgKozdkzEEA9hzAiRitFh+zF/S/WisZMo2AKBQpFRw7nh+Oj2GLunlb4tIotOkwKpTZaB2GG0EQ28jvHZ3HqZ3u8LuWTAunkQD8hioIRbwwTRkX5pEIxxonP9lRhH6LvsGBkYKRgnDDtir7E77E/xMgyyYrWSfXY7N+C/ejj7Kvz3hq38Rig67fE/INnxDuODKGv0eecKorjYn6xIUiWlFAApwQZ0P8t/i1Yb0SGI/ZEZDz55JPlqSefKs88+0z9W2M5Ek4syE0LpiE/B4Ya51oy085Vq1fV7TjHXAZxlH+JxGIAsrVGI2+/pDz23/7WyO2eOXio9/8Z+8L+XadwljJIpwEkSc357DtjCgreReQCuskpv0bdmMIjynBzHLd5k5Xv5jCujk7vHeW42EXKBB0r2yAZ3kb0aNNwL6L+asnnWBDR7XHKOTeyDvljm22r7VZ/xSjpSLi3kdvR3mIxmjzqTq/T9d/5zndmnM/pGfsvRjdqd4GVvY/dN9xcDq1bX3bc/qkhEjpeu22MziAk9Dm/+g/K1L495eBPvLs8/iu/Wja85e+US//6Y8eR+21UeyIxSRhnewgZOgrRPopyJUmlU8e4+nJRv7UEZZy15Dq3nQSMG8+DrUebut5/zxnPGz8TixtJQI8RbrvttnJJz1k8bpS7zEYmHZs+VhUJRggLAgjBw4JjgDDie5dzYFQRAiOOerXGylyCqVUs/s15zz/v/MEonQR06+DE440aOU/hNDsCjnFiTi+m6GGYoLCik38qMIqNRQff0XC/O1Lq9rHoVDslp100WCQVopGBcdzCfoixhUHttn62/WxSjZYzCaP+MIriND8M4wvOv6Ccs/6cQcQMiFNDh9BMCZsOo/UREjAHDxysThQGMoYyRhV9xiIYXcSN09slRfw9RvgZmTkULdSXPRp9nH/Q7Ka/JemcWEwwihf9wHv8nV/9v5VD6OYOQDg+/6E/KMf+8a+XpcuWDvp9LXY3NZs+QscR2eAUTvQEzoi2BzBnoEQl26FbjKqyfSDmTOY3dQ7nkEg25zTvKU46EYRE+LGgAzkuznUkoGNktDrrkksuqTIMEpd9o7Md9Y36CF177bXX1pyXjz76aNWByEPzXbt9JKDbaazxWbhEkttrb4sX8l1y3d+8H3xWB7+RuU6jZ9vVhw+VDQ8/UL515bVl94ZN5YZP/uVxkUzxfMf1n30z5MLKP/uTcmzz1nLvu95TVr/wXDnvi387NJDAotxNJMYVk2wPtQEg0R5q5VyiG5Pmy0GsRl8u6p6WCJ1EjBvP48AWmEtedLUzsbiRBPQYoRoVfYvAUUsECYKIF1+hoVPi1E8+LZQTp8noUIE4JdWooVYxjBJOrhdxaoXChXZOW+SiP6UL4YTwdLuowOIxuwjGSQH3EgOEkW8cbKdb8QkJgIN/qsZdnGKFocCCQcCCEcvvnJPj01/aUXaJAdCOinc9q+h4x74RFR+gD7fwvBhj9vF47C60v2XkxamD+yVBhWMFQYNjxXPAON58weaydt3agWN1nJNUZqeFDuUjnFnpRkPbHT02Q6wcePFAHb1HvrHQJ3e/sLs89fRTg/4Z26mx3DWIFacIdg1ksTAVlesbyJ8wZZ17wOBHnFLYGl3tMROJhQp1vnkDn/+pny0Htl/ave2+vWXdb/xa2bNqRX0fcRwH07rLDAkNJE55z3hfTLGBfjEimfcanWLeYhbeKXUO9kwka01HASIxrSMumcK5fB85Hus4J9+RVZwHghiiGBvHKKCog9CnkMnoVGTd17/+9QEJrVyJbUAeXHnllVUfo3+d7sxxkZdG+9hO7TD3d/H8sXCikdDxvJEkiHLNCDZtQNr82GOPlSuuuGLmAYXoSZ8TbVyxfEXZ9sXby8577yn7fuwnyzd/8MfKDZ/4y7JuejbdSSSQu2wzsfp/+v1y9Iqryl1ve2d562PfKueENCdzyd5EYjEh7aHR9pD7xgG3uD4xg/TlZs7L9RohHfVK/Ozqo5Pix40zzxN9p3jeeI74mVjcSAJ6jGB0DQLpnnvuGRqpxBnBMIhRQ9HYiJXaoxPo9kaugDgVVoFllFPrWAlH1UXME8ZipFIVahhpvV27iB1Bu+P0DIVd1+j6uIGccFdffXU1VDBuWdqpNycLnolVazFOnnrqqeqMEzGhMotGQJwirFMcix11KSqflc+r3Tb2Sc8VI8Lic0b5Or3bNgEj7trn3yowkQrs5GH0oMVKWC677LL6uXbN2pnpmFMdTlOYKmqxmxjY0/UMcKqc9id5YkVlnn2MyrBfSMIYtRnlTJfxFBenvesctf2d77wLA1nWvwYjBtkHJxOnLKI9j+uicTXqHiQSZwPKT4nbYze9qjzVFB2MWPOv3leWPLmr7OkRLryjVrW3T+Mws973y4gaoO5gHQSt0dAs/makDvoIWeB+zo6KaTqMro7vFedCdulwURSJiDH1DcdHh6JL77zzzoFTHB0p2kaRL0gl5Byf6FtlkToxOnIcE9uF40Buk08Vnc39aR2/SEC3OstrUb/Gcxh9FvWp9o/nMJIbx5TngD1IW664/IrjCLDohDKdnutc8ZlPl6nede79mV8od//Qj5VX/Oe/GNy3SCC30ZItEbDm995X80Lf/rPvLW/+g98v6/ryOuaZTCQWC9IeOnl7yOP4GW39ua57UpC+3PG+XMxPHXVJG0Ut2pQc446x43nOmeV5oo80ym/q+kwsTiQBPUZAoAOMDpQYL6b5E/mN9Yx2RgESv/u3CkOlFI2FmMPPvxVwRjaJKAAVeo7EtYKjOiFG5PSNtLZQQhRIMbfQpAmhN7zhDeXWW2896e25Tzx/jBKnM5v3ySm53E+MF6fnxSnNIAp8FqPWzBml0ary8dlE5zT2DRANG+AzjcZH+4y5hmi0uC0O86i+Es8RR4NTgQ0D+YBjBeFiTkIiXTCKeReNjpgaroBT2pyEcYTbYleDqaL93F/0NYuXGJXBp3JE8shInfi84rT3+Ow0qlqjKG7XGtT2MfeP08zq5U1NdRpHsfI7jue999471Kb2PGk0JRYD6NM1uvji7eV7/8d/NHK7VR/8w7L8C7fX7+gSnaLYv7FBcIIlNWIqDt8vCWJzJkNAu47tIViQDegtyVVtGCABij6i3SzaB0ZJe3ynoePs0zYjnjke8s4o6xiN7BRn9qV9fEcucr1GQUeZZP5EwfE453333Vfzu3J96sFog0mmR9kQo8Z1HCMJ3SUXtft0Jo28dhouhMRx5HOZjbYWGzdsnLmnX/1SQZTv+3t/v9z39neWG/63/zREOkv+t/J2qE89sWuGhP6d95eHvv8Hy1W9Y8T0IPF4icRCQdpDL98eiqRkPHaXDTSJ73/6ct2+XKyTMCAsA3kd+3OrC8cdY8fznNPjeZ4cHnCIS5Qbni9um1i8SAJ6jGBeL3OO8YKimMwJiEIyX1QUGL7IcfpFNGwcJWtHI1tFFh0l4HndVuewNX6Om6rRN8qoltqSilEg2bZ2Wte4oyt/FvcAQ0RjxCgJi4Fw34w6UvHwPY5oOu1a5QGisxsjIuwvRi9p6EYjJBqv0WiYakavo0KJyqbLqOC6yOMp7B84/SfqK54vHrPLcB9ncJ04Mkxz4z7u2LFjMFVUsiVOwxuqmhyieQZOVP/TiJ4BuTE12yfJQWhldR0rnBiMZEfbdZZw7CyuEUmdiPgsW0MlEl3xmv2MfTSSUyL2WfsK10A7h4yuMhv9wX1sDby2vVFOpdGUWGhodcAzP/n3RuZ9Xv6Fz5ZVH/rA4G90AMRJfM+QB7wvENDYIha04T0wNQTvA7LId4NzG+FsWzgW7595mlnPsZQXppqIusxILraLxZDUEfzOeWkDNpNRy5yD9vq+IgshU2w35C0yEiKK79pUQNnA+Ti298G2cA2PP/54PQ+yNhYUjAS0+0XbKKbfaJ1KPyNRTbtMU+Jxte3IYR2JsZkDzA7q26bzzj9v0IblX/lijeV87md/sTz0lh8sV3zq48dFP58oCm3ZXXeWlR/5cHnoXe8p533nW+WcHrEd052kbEycLfB+pz00P/ZQKxNihGTbpkmzxUH6ct2+XDx+S0J2HWuSMHY8z8phnsff2/4W5VraCeOBJKDHCCizavosmRqMUvGiOhqqkYNiilMfHe30hWc90zgQMlZR18lzBCyOcAHPR4SPOQ7dx23iiLyjdhzfysx7ySnZM7RsE8eKU3xcH4Vhu24SBBPOr6CC9R133DEYAVegayBiREenFMSoMaAhaQESFEg0IP3bUdYY/cRzs89EhzQ6y10DBP4WR9ujQrSdbut2o3KHxanVXQqry5ABk6TIKF7x7ne/u+YjXLJ0yWx0Tj+H38CwdGpo+D1GzQ2crf5vhw4fGuQe3Ltnb3lh90wkD2QHfbWtqu4xQOwn9ikMLEmX1tlqDWf7nMd1+zYqL+4D7AcaRW2uu2ioc130c4y6ajT171eM+ImGWxs51MqpiDSmEgsBOq3o8f09kvH517+5czuiWVf/j79/3L7ooXa6OesfeOCBSqDwjqDP0SXmpFS3xHcwLkb3WIiwpgXpv7PsJ9HrcfjbCGOvxeNLerMgmzi2kXxGDEE8GSnMMSGliICEjNJusR1E+EEmo3fUx9GJ892nPbaDfTkO62q+7EAcRdsItCS01+FxjWqLTp35rqPT1hLQkOADkmxqdhq9fyuPzt147lCaj+Vf/nw5eu6m8vgP/3hZcuhwufSzfz1kR0T7cVRAgPmgv/qOnyhv2fm9ck4/6s5o6DjlN5GYb6Q9NH/2UCQ7oy3uObqKy8f7MClIX+74Y+nLxX1a0ntSByzA2PE8q4d5nlYuxOeePtR4IQnoMYIRJcuWz4x+8jcvOsIAoWSid0fJ+D1Ov4gj5QgEhIzTT80NxHEpYkM+RfM7AqaleZxoeKhEVKIutIHz87uRSFamr+efWjIgoFuh1I7ogUkSTHHUXAezzfXGPR3cyzCyGQ2E6OD6rDRSYkSXI5rRkHF/FZrHjfk4nQ4W+5Xn87vPx74Tn5fbxdFR+7DwuBgtMQqga+R2lOEyPSGDFxbEGUwD5Z5MD0/L0pmK0Tt8cm953zGYjUhkcSogsK/4ziIr6IPmLvT5xPPV44f7bx9yWqDki2inBbZReB531BTBdlACdI36exx+4/qcOhan1lpQiOnqRqJ0GcttP7Q9icRCgP28yv2LtpddP/GekduSSoG8zy2IHB6QM/2+DUFLtB9RfpzDQkfKgvg+xBQTMSLHvJbaKk5FJ/JHshkZY1TzIP/q9PRxhA374+Rv3769XivtQ5/QRhwx2nf55ZdXuca7DAFtwULOx7GQd9/61rdqO7CBbr755tqO733vewOnDShn+I19uQbJbewc9FWUPzEKHJiGhOs34ki56v2L+hNw/Ejo6hxKaLAt1+9U7UFwZiOzwDnrZ4peOVDA7yv/81+W6d737/zIu8rSHsl24d/+zVAajTjgNkq+0X/2/Js/KHf+6E+V1/zRvxu0ubVJEon5RtpD82cPGX3ZRSbpA3SR0JNGJqUvN4voy8kjeOz4e2tHT1qfGUeepx1cAFFOjEK0WRKLD0lAjxlePPBiWb98/SAPlCNRODQIBKuwo/gQDggulBLfLQDEto5wOyLJsTgm3zkeo9w6D6xHYCHscDYdqVVAAUfFVGIKKvbjGAimocrJPbmyavWq4wRdqzznInTGVSnhMAuep5FijkQi8I324p4bbRUXFUrMtaXAZx+Nw5hXE/gMXHyOGi1xRJ11jpjG6GSNnThSbt+IkRvx+dkPzH8VUadLr1k7NK3ZPtNO+2kJwajsxh1Okx+KfivDOQpxLuhfbPvsM8+W3XtmDBgJHb7bzyRLgHleI7GEHGHRgHAbEI1Lo+aiMaPD1Q4mRMeqnR7aPme/t/3O9TGqJ27rvnE9RhiO1dA02/52K1auGBQAaZ2uts95zZNmNCcWLpT5NfXGT41OvUHeZ1IpREhuoPunj/X69dKpQVTcypWrqu6BoMHe4N2TyPW8RicrO9rIQPVJnI6OfUFksvmiY7SXzlGMBDQ6TAeN/c/tF040FQfbONXd4l4Q0LSXglqQ0x6HcxMt/dWvfrXmdiaHJ8cjuhgi2/3QfUarGZ3M39wLjuXUfmWr1xxzV7N9JKCNZrIt6lraq/PpbxyPgQFkunKJbZDttLHNQxtlH/eBa3C6r8965cf+vBzddH55+LY3l407v1vWPfTAUDRdjMbr7GtP7Kr96Klf+dXy3dd/f9nymU8OHOoYuZmyMTHfSHtofu0hi6O1PlqX/R3bNUm2Ufpyw9CXawdBWr+ty3ebpL4zbjyP8rQdjPKz67knFj+SgB4zIByoKorQwCFCSFigR2eRTwSN0TUIJJQCQsJcgyg+KymznmghjA6nbDDy77YqHqdsIGBwyFR6QMEE4jQe96WNHNPRdNsai2iMiq7pIqLHWVAh/FXiFkZSeMeclIw08jtGi86uxkTsC23kkX97/4GGRSxoEQ2QVnnYBp3naBxFw0YDWMPG9kS4DccaZbQwHYl+zO/tsx+luGJfiX+PKyAjKvrTS+kfjz766MDBou9w7zVSeT4YMvQfozLitOzWANXo8H31nVf2xGl50UiVwIjkg8a3pE1cH42d2GdFNMDr5TbGayS67NfRgI7RAR6jThccZBjo96X+tFMdS98t941RINGYSiMqsVDg+1hTRJwg9UbM+xz35f1BJx0+crisWLJi8PvSpUuq4xOL+/mOaDu00c46O8oR9sf2YD+ibywChh2CXcJi1LHvluQLx3JaMWA75Bn6UrlGu/k0epnfrr766vq+cw4A+SwxoI1kZPa3v/3tcuedd5YdO3aUN77xjXUbnTenqipfdMicVh9zy8Z7EWWX8jbmZ1UOOlWaY3EdFp2y0jzXzrR/7TjWsR0LjuVg+nyZdd69NqbFcv0xvYj3cdV//ONy+JJLy50/9OPldXs/WNb35b8ksiTWKBm38s/+pBx+/ZvKvbe9pVx81x1lXa+dkYSOMj6RmC+kPTS/9pCkVUsitmjtoUl699OXG0b05UyFFQcmRvn/k4Zx5XlAlDftTDnRNQCRWHxIAnrMgFBgBB9FhgHACL4RNdEBdLoq09BMWK8xYgSQxYNYh8OiUOJYCB7AOVCKCDfA7wg9oMHiNDQdMB1DRueM3DFHYxxNZ6Ft5opqSRzRGlTjLpC4Ph1kp9DEKS9GSnBvMXC4v2zrfYrTd9slRlo4DdhIBtCVvy4amf7tKCzPnk+n/ngODe2odJy2Z1vcRuWlk2p+K2FfoC9/97vf7bxfsc909ZVJUGJMp4rA0SJHK/dTp8fpdt5385eaYiJG7BiZo7PSRtxo+EaHy77RrjMSMkY+2j88l+dzXSRlWnnQfm/7QHz+sQ9GJy1OW+U9cr/6exmOQLGIWXveSIpFByGRONuIxj8y+ltzpN5Y9xu/dty+7m9aDRYKB0/3/61etbps27at6iHJ4lhQz8W/1TVsr72C3iLaGJsEG4SFdw1SGNlkgUARI4fVS37neEQvG4VtMVYLPPH+so5jRjnIujgQLsly7bXXVjL8kUceqce455576vXiDCo3JdGRH8pKdRjbeS89dry/cfp+JAXUobTXCDmcOkgKbSnkDI5kdOJ1Hp323RZTGyKpeiQA94p0I638mnpxf1nzb/912fPf/tPy5R//mXLrH//PZU2fRI5klsfsgqk4vvkDP1Ku/0//y8Am7JpFkkjMB9Ieml97CN+ztbOjLIq2UVf7JgHpy3X7cuge0lpFxD7T+nKThnHjebCRsFfmep6tDHFd2gqLF0lAjxkUCkxjwUmLzh2fCAKEx0UXXVQ/ETBGEGn0xGkTCAanmelIKmhwtsx/ZnSQkQGOurUGGgvCkggDDL6YC21Q5befV4x/XENXsQIQDbuu38ZZKJm3Ehid5cgjzwOFYX4o+gSKQ0XlfbZPxAgJfuM589xx/HlOgP1UbEYq0W+oYowh3zrJtIVoNYwmCxbE52E/MTIuRoFolMbpjToEfHK+HTt2DI5lH6PNJxqIGPX7JCgxp34vXzYzWo1RguEBNCa9DxgnkkG+n5HoacnU6KjE7TRMPK5/YxhFB6qNxjFSIj4rn388Tuwz8bytQ2Vb47aR6OgyvIHb1BQD07PFhiRvIrEVBz+6CKXoeKUBlTibiGQB7+JzPzl36o0277P7GlUc9Ubsz+gA5I62QEs8exzfS45jsT6+4/SYOoNjQ9piE1jQMEYgAp13YCS1xzedhaS701D97WCfROVdh8yVGJIUaOUIDh06lusncpJjoO/QzRDTnsO2cn2mp+BcUf/GFBzeX9FGM+rMYxdJMpPbmTYb8aSu9tgcj3ZiMwyIIYnnMuvYRZJp3dp1g3NGOVmjkp5+qqz+g39b9vzmPy/fesNbymWf/OjAdmxleBeIqF/5kQ+Xb//8e8v2u+8sa+/++iD6PRJvicR8Ie2hM2cPzeWruU9s6yQhfbkdg2PZz9DxoGvgQkyy3TxuPA/n5xytnAJdAw5dZHRi8SEJ6DHDC8/PFPwhQb15B9vRZoSEuaR0TmIOv6iA2BajDGHilJ0o6BAcjtbikOl0gejMxFFXjBccJpPl2w4VkwYh/hHnPhUh0wqocQURT5dddln9zj0yaswpXAhzFJOj0Xyyjv1iXsrYJ2IRDMkADGOUF8dnunEclaeY05VXXlm3MVJKI8gCLxICTq8GKingeew3Ov1xOi+gX9B++s6DDz44koCOaIm+uTAJSoxrxCCoVcrLzOwCZUSMZrBIDuSGfcWpVhJHMQpCWEgsOjmRYAIxV6uyJ0a9xGmnsY/Yvug8sd5oRdsVr5VFmRanhtvX4jm67pXnoX/rgPqO6HhpQOFwxX1tdxsF1aJrXSJxJjCIWrno4vLs29/Zvc2I1BvqFQtrWbCuvgd9kcD7sWXLluOKzLQyIf6N7JGQMSKMc6DLJINjlHKUN12yXhkhGR2jDtU3HBNZx3m4BohcnG3OCeHNoqwC6j+jvJCNFjik/eyL/uN3cypGXWtOZu0or8Gp75GAijJNgspcipyHc9J2yDTldbwPUe4qJ009YNFIiej6vKdmSSuiGLtgm5fe982y6iP/a3nkp362rNzzQtn8t38zcGyV1XOR0KTiOPQD7yz33/bW8rpHHxoUKeqKpE4kTjfSHppfeyjeiy7ysOu3SEBNCtKX2zG4F74X5iUWc/WHtr9MQv8ZR54n7u/28VnG722/SzthcSIJ6DHDnr17BiPTCCYEShy9Vok4hUxDn9Ett9NBMpcg6x2RdKRNYwZFwjYIGZWkEUUKFaCy03FyBC86pJyP4527cWbaB85QzA0EojCK+7e/t0bNuCFWT+YecV9jxWM+GVVH0KMwLDiAQmAdCsVotVjoyEIVPH9GLjEkec4YLjjmGhMck/05FiOkGOeDqIipmYIGfLIP6xld1xiKygNoMLVTs3XKORfbcxz6JnktI9pRc9FllESlNkq5jTMopMO0c+C91VEyqiKSK/QBIw+dxqchAzRs2sic1nmKhEp0zFpSyPyGbf9o3+vo/LUOnNspw+LU2Lif/SYeu118H2qhssNHhqKXQP3enwpn9Ec7CKZBGNsez5tInA2YhuLZv/sz5Wh/amWLVR/6w6G/B+Rjb1/sC8jbOvB34UXlkQ2byiVTs0UIeS8gMeM7ISL53Or0KCuc8muqDcmVqCNiESRlSYzG1cGK04KjHuI7uhIdpjxyiqmkjtcd82jaRo6ng0ZEF/ujjy0aFSOojRhSPkTiJ9pp0bnynkSZhr2GDYB+xWZiieRzRIw25/xGwC1bumwo+tltfXbnbjq3zAX2Wfmn/6Ecuv7G8sBr31Q2P3RfWdufWu1067lIral9e2sqjqd+5/3l27e+sWz+9CcGZF9MOZBIzBfSHpo/eyjKtFH2d/x7Ut/19OXK0P7AiHAxqm90+XKT0I/GleeZ6hiYajke/anE4seSkhgrICCqMu/9W7pk6cARiCNeFsFBGLHwHSXoFIuYpzCO2juFQ+GGAANOCTWKSCNKo8f8P0QboMTYLho1OrN8r1XXS98YmZpNq9AuIhpzXduMqzKK1ZN5Ng899NDg3pqLFsVgtJgOPIof4c9zMYLNT7bFWTbqzL7AMXkuGB6OymOoQC5oZNIXeFYaHEZzOT0bY8ln7fO2bRpKVlmOBkUkHiycwbFasD3OvogjpV19ZlKx64ldg4g3RqDNzcq9w+iLkYEWmmBRFsTImkiU+LcRejo6cWq7RJAGhLIp5ooDkUxqiVv3j9Pj7btGTsbiZDp3njMWSrHfaTDHKazxvEZsDHI8T8/mPNSYM9Kg/jzdPXUs9kHXxe0TiTOBIeJj20UjCw+u+OTHestfHbdeJ9OCfixf/5GfLI+HYlQSmxI67TsO1C+tDpc4MUUG7zhOj7mbI+kcbRUXo2hN52HOQfY1cq99N5EVVnVnurG6LMos2xad6xj1yD5MeeVYEjxGWMcpquqxLgKolRNRDnqtOnfYUyy1AGQgfONzts2en/OyTyXFSjOwPz2T+1mg30dFMMd7t+bfvr+33ZHyjR/6ifqcLPKo7m7lXsSyu+6sCwUJl527aSDP47TeRGK+kPbQ/NpDcxHLp7p+XJG+3DCiL9dlP8/FAcR9xhnjyPOIKDO6ZEH0rxKLGxkBPWYw71NVQqtWDkbQjc6LI+AoDV5mtldYYHShtBwhNVE9ysqRfI2XWIWXY+MIxZF3k9CjKJkuZBEF2xShcnpx/4szgmV6RsBYoKBLEI0aQZ+E0XTzeQEMA+6vRZtANGyjcub5G7mGw839ZVs/NaDZjnMw9copdyiJHTt21Cgvpi2iuDg3ud44HufHAUfJqaDiiD3GEqPwtktjOEZuaKwDR2yNiKL/6AS0xSs4BtcTo1BB65D7ORSxMUEG7xNPPDGYKgl4pl6/77SEDeCTfoB84FnH6MI4tUoDIxocTql3SiHPh/6gjIrT4s0/FvtrrMYeo3ki+UOfYV9II+RMlAdRTkWZ4/5GInqdGlhxipoOQI0iefaZGi0Vi3fpfDKaz/GMhDoVTFofTJxdSFjU6Od3/fTI7VZ98APH7acDaeoNlu++4fvLU9t3lCfuu7OUV1w7s20/itbo4VjNPNoOkUz2HC3ZC4y28T1VVjhF3rzGkkXA9fHcyIrq/PRlFPfAd5b3F/2kHGH/GOWoTIvtQqeh74w8Qw9a6E+dKQEf773TmC3qE6PJlHNtnk6dPNqFXDKKLOYBjc+qJbc9J8WdDh7o2YgrV1Xnr0z3Bwz63+u2x2YKElmkyGO2+rSSFk8/WVZ++IPl6V/6r8p3br2tbLn9U4MBgDZNQHc/+8Oyt0ZB31a2f+KjA50RCblEYj6Q9tCZsYe6fLJRds+k2UPpy3X7chYBHYXYrz0HmIS+M448T3yeo56hbZgrtVdi8SAJ6DGD08asbOqURqAhYeEchBB/IzgcmefFN3+Uo9xRCegIRtJXQeQxdDgtkIOSU9C1joiGjgJl3/59Q+SgDmLMM+Rv8bMVXONuxCDoBc+SyCONYCMdogFScy71niuKndHlSy+9tBoQTg+ORo1RYigjjqvRwTZO97Jv8XnFFVfU7cnnxbrrr79+kBPX49MW+pNTsiOxYNQE6w6FKbz0Hwsr8TeRAipS2tgaLbQ3GmstRvWPaMSMO4g4mCqz144M4P7G6X6SGxamiI6P0S88m5gHTgNUwkDSQyOUPsm5KIaikWseOI4dHS6OQ/9koSo9fcC2+aw4NgYyfQ1CxSrN9IvomHFs+i9QRsUoDPtfJLUkxTTydEIff/zxcs0118wW7wqRSBs2bhhEdZxM30rCOXE2EKNclmy7qDw3R/TziQoPIm/L1m3loVteX7d/8jOfKFPve99Mn++/IytXrByQNL4HypooL+I52oHCGAkYCwtK0BoRDGKUtO+vMgyw3qmnypoYFYis0LEGRi+39oZOnnk4geSS+hOn37yyRv7E69Le8viRrNImijLIyCHkM9fA95hbM8qjSOLHadAWstq7b29Zv2F9mZqeGhDPBkQvWTpDQFPgaFRuxlZ+rfzon5VDr3lDufd1by4XPHBvWdsnyqPNN0rmGQX90C2vK5d9+XNlTX/gIOaCTiTmA2kPza89FOVT1wBZ/NtjTBrSlxvty81FREaciLgcN4wjz+MgfvSZunz2SI577El69uOEJKDHEDhjKAeEuPmleDktWKCw56VFwfG30zCsRIqSQzFSgMBoIKfEYng4XcfpGh4PJYfCQoFhWLGfTtooko9jKUydjoRRQ24g9kHxOWWtSwjFUX7bMe5CyRFkRyKZUoUiiAVINExV8tzfq6++uv7Gc8V4GRQRmZoaUjA+W47nNC6ekaPfjrxLuvHcX/GKV9S+QZEjHXkjwoymGOUgR2Vin0GZodRiTkmnftMWcpkJr5V2qhxbh3wuY2ZSlBikiMWn+M/pedw7C3/xTDRIea5O6eNZW9mY52OxCqd36qg4oq3Rwnf2xQAyrypGEQ7TN7/5zSqjJJP4jedKQRSiazRw7Ovx+BRu4bzIBuQd62MEcpw6GtcZJen3mBsW2G7A8Tg/79v9999f3vrWtw5F/IjVq1YPCsjEaMe2H7brE4kzCWUuff6Zd/1M9zY9cnJU9HMsPMhyz/f/QNm/fkNZ39t+57IlA/J5IGPKzHRs5HjMd+oSo+vieXw/ohNkPkHeSXWPaTZ4PyV7JE0jiatsof06Ym4TB47Ue8gnU1XoVMf8z+wn6eTvkVimrURXcu3KyHgO9WwknWPUoQRETCnC71wnsheZaXR3i2gfRXIJcGwjlS7qDUAownxmoE7p7f0jHQcyWMKrJaHjNYPVv///LXv+1b8r97z9HeX7/sP/rz6jGMk8FwltFPSjt95WLvnERwf7xkj3ROJ0I+2h+beH6m9TowOFWkyaXZS+XLcvJ7Hqui7/3r+7fh937H5h99jxPNpEXX7TKJzo98TCRRLQY4hq1PT+YQQYGQR4UePIIgrIHGE6bU7dQCGi6BBCTOdSKSA42EZlyHFUlDpmjz32WFUunLuN8umaiqkjamEFIwYEbdaQ6dp3LmUzrsqI+4VS37JlS/0bZeAIaIx44vqdDsszVilpTBgVodGgwnH6nM6rQh5F57QspnR5Hj45JtWU6SMoOKZ2mbvMyDPbF/Pm+YwkCzDMUWooNKf8eQ6NZQy0CNuHQt65c+dg3VxOb9f+4w6qJ9f7MTWj/HnOEhkawN4v+wrrMDh0bngmvKeOskucaNDYfyR8nMJHf+X58Lej3Thd9BVzovJ8MYbskzhd9CmNIfsN7bGPYiRT1Rs55VQun307bdFrtH0azrGP6IT57iB7uEePPPLIYJsBYTM1U0Tj6NRMMRecUc/luxRJImVgi0kxmhNnD5FEXrLt4vLc69/Uud3Kj3y4M/rZHH5GPz/7ipvKt6+/qZKHbP9k34EdRBv3iR3e+VhQriWgJUmUF1MhgssCOabaUMbwSVt0orE1jAyLOSgtbqP9oJODbYPTHm0T2wAklW232/gpEaBsUYbYNs5Lu5CTkEsxJ2ar//z0Xhil7IKuM2ob3Yq8QzdqW9V7Pd090yJGrAP20XYYYHr4Occ80OdtOm942w4M7tmTT5SVf/Gn5fGf/fvl8quuLWvv/vogAl15fsIo6Fe9tlz2pb8tq3vX6/RsbYyUj4nTDeRG2kPzZw9FYiwiyqrW9pk0Wyh9udG+HP28tRsmua9EvHjgxbHjeeiPcbAq7huXNgo6sTiRVT7GEFXQT81MpYw5zWKEjyNavMB8Z7tY5MAk9ggip/HoDCAozDWGIEGB8J19LGaAIOGYRhrFPGU6d7ZJoweouCxsgTHjaG6Xk+X+0YmcFEi0AqsL+6xVLt4bc37yTDAuFN6xUIGj4hrgsVASC/viTDsly2cZCwaxPVPD7B8oPPaNhVw0eqOyMo8efQwSDyPaSA+VjH3IHGIRnr8tRDiqz8TvXQpvXMHUpzotc6ZSWH0uvMNE6+nwO53LQiYSOsoHngf3n+fjiHecZu77HHPFeiwjDulj7M9vGr8sREJg7LKteRY5P/0uvuvmZlWe0Q6MKK7B/qVjZdtidfA45VTDCfCdc/q7hj3tdrqukT61PWWWsLE6tBhlHLf9MYmVxJlAJKCfftd7OrdZ8sSu4woPul98n3k/73rbO+v2qz70gbqdBe4iICV4d5XvRjubTsOlLZ4jwYtjjmzi3cMR3t8nJp2ubjSe3/lN0kfilTabP1nHnnY6WyESpMoBZKBtbOsKAM7vsXx/lWHeJ7an7RwDuabsUSYZoWjEs+QO1y2pjv3FMdD1OPJMr+decJ0ObI1yyJXDyEruA89MO8/IT5+R25sDWmy9cOtxBMCovlX1QI+AZjDia+/4iaEiWNoIc9loDGQcXrmqRkHHwmmTaNslzgwszpX20PzYQ2KUXZS20AzSl5tF68vNpXfEJOqHceN5DBYAowbUW5xM30gsXGQE9BhiMKpfZkYRcWaAhoNKRILO6S5RaDhaT44vR8nYlxF6CwywPY6fI/0aKig2hCP5zaxyGxVUHCkFGmdU4+UY7MuoXrVrqJC6dt1x00DdPy4R8fdxBYpdxCm+II5C+kz9dAqVBoCGM4rJv2PUGXDk3CnFKqmoAHTqAZ88M6aTObXL9TV3aB+2hf4Vp/c5VchrUXk5IttGZXltHLslnkf1gXiPJoWEdqoU+T0BBiykBs+diAdTmBhh6Ki19591/I1h6/PXmeJ3p/I5Aq/TYl/C0NEJwnihP+FwYYxAsPBdw4f9v/Od79SRdo6N7KGtjpz7rDCA6DMcg+PbR2OkRStvPL4EUIxOjKQYfzuFv74nR0Kesn7+VKas90zugTHfojWSuiI5Eon5xiAS78KLyvMnmfs5yl7fc5adN7+m7F+/saz5g/cN7Y9cJkovAhIlFrZxQDmmV9CRRQ8oy3WgtVfi9HDWS1Sbg1A9IqlDe3WUWS95TfuMnEbWGGGMHLHtEuKc2yJJUUforHmP3Fbnz2hDjks0Ypz67DbAKfgS5JFcZ0FGGoVmoR/JBdsSEac/R/sn5ndF9iIvY7sHUdBTwwQ05FeUVS3ZLQZ22b7ePX3/75Y9v/2vymOvfVPZ/OlP1HvFdcacsl2IUdCXfuGzZXWfHDRqO5E43aBvpT00f/ZQl9wQyj2/nyzpNI5IX24W0ZcTUZedLDE57vb1uPI8c/njLf+TWNxIAnoM4fQYgBD3ZdaYQMhoTCkkNEyAEUochwUjCoXm1DDA6DpThjR2+M2RMAskAJQcgiY6ZkYo+TfnZbT88ssvn3WcZkqzz4zur5otmhHRReyISRBUKAXBc+a5xql0Ov06/OarNLckz4ttMHxZZx4oo8J4Ljw7I8Ni3i6etwoOWBRJw9VoM5QU2ztaHnNBSiAY/eHUHHNvqoj8lFQ4bgpxmX32XNOofjAXxn2wQmjwbb94e/17+bLlte+Qnw1nRYcJ+Lxi5CJQZrAt5BLGD4t5EY2S8Rkb3ScZxD46NKyH9Lnqqqvq/hi5HFs5wif56L72ta/V7zfccEPtI8ge5ZJTAyWV6If0O2WL7bZqfb3ufr482+ciSWV0I+8G/dF3AIePoi8D0mZ6JgKBUXynynrtIg6IRKdLtNsnEqcb9j3eh2f/7s+M3K6NfgYS1zH6+XO3vaUs+8bXjtseR/r6667vn3Tmw/dd28G+bv7nKGeADpIks4V2dHzUZTEi2mhmCwHq5Npm9AvvMZ+eh/05pg4z+xtVFotzqctitFkkVuJi9I+EKceB4EJXR0LBd145Y/QabTKnLAsymb+NwozFyeaC7fG+xjayjoi7oWijfgRoTUXQj2TEBsN+sxiWbY/PUP0seVXve49EXn7318u9vT6y7etfKWv7eaztA3PZZOaCfvymV5cLnnu2Pr/4fFJOJk4neK/SHpo/eyjaPa09731rfwOTRjClLzeL1pdrByZin2rXDem0Me9D48jztH54F+czajArbYPFhySgxxBOKUVJnLtxJrm/jgdASSGwrFIsHNlnWwwoBAqGGMUtjABgahoChHMgkDCWUEwIO4sFcl7zNjOC/61vfWugsBgtY1sMF86PQuMYKMzo+AGVjMaR1xE/3a7reyR+xlE4xenO3EdHoKOh7JQXpxL6jM0LpoNs1WwUBAoGIkGHPlb+1giWPPDZxDxeEhZO0+N4GlTA6sgaK/RHzodywxiJx4rP0yIa9mWVYNyWvgi6DNlIAEyywoJ8uPnmm+v36iicd37tA1FGSAL5Lkbyg3uMUUJ/QTbw3eI8baEuo/rsi+zLdrzvEkycg795ljxf+grHYz3Hd8ofkT/0Ewvy6ODRv0AsStZOUQVx2p+Vxblmp52xr6SPUU/0X34zQhP5t+PSHfV4ceo632mTx43ETHS4BttPHz+TI5GYL0Snb/8113du00Y/u1/M/czy4JveXqOf1//e7xx3DOyFymVOzzgW7I8tEHMAW1AvRsbosPDuG0HIO2jkM38jb8yX6rTdGF3rsS1e53vndHOgY0x0nuSTcoF90alOO/XcyrGYV9HoZ6CtFd9lySXbxLmMMnThuDptkj3oQmQQMpp7yXUaleT9i1HOc0EHMy7qTc7LuXQgB7Jsup9nkWn0vdMg00adJ5IArZ218o//qOx9378u337tG8vFH//LQUEybY5RxzQKeufV15WLP//pQRoOCZckoROnG2kPza89NGr2Qhe5KCbtHec+i/Tlhn25Fq2/3xXYMQn+3bjyPKN8otbeiEibYHEiCegxBAKhOkxr1pa169YORRzx8iN0jOaxSrnKjXWOoLM9xodTdIxyQbAhLJyiw74IF50wp+tqnMXpPSgwBBu/MzWVbXfs2DEYtXOKSMX0rCKKI3hdBk2rcCZBINU8jn0DjvsJNBSNNHKKFfc0VvK22ArP0qk7GgHcbwwHDAjuNdto8JgzCqXCOo0IjRiJDhaOx772C513Iyo0Vow2QWGpVNuBBs9hP7KPR6OF49O3bd8owu9E0WPjjp2PzxZpBBduu7A88+wzg0rZMYeXERNGN3Bvedc1GHC2IHPM8wkc7fa7xgrg/XfKqdEX/M6zx9CJuQaN/OH8yAjOi5GDcQSYIku/N6eiBcv8jOSvxo59MRoyTsOlX2Iw0Sc16D2/RBr3oBZXmx6OZgQbN2wcigyJGDXokYZTYr4RI1/2vult5VCPYOnCqg9+oHM/3lcj645u3lK+/YpXdpLVgGnj5vUzugUgJyhaFWUBUMbEiGZkBHI8FhLUiWHRaVZvxdzN/GZUmDlYY65m3msL7pgSg2tjkRC2oGEsumOEEMc0OrC1NyJBHG0eF1OISMDzyTWY45NzIIdoH3KIqDgLL54MIpkTo52NYDP6UaJfAtroxen+v5qTEVvv2JE6RdaIp3bQP0aitSRSJZK/8bXy0C2vK5d+8fayph9VF/X7qOta/vnPlqd+5VfL7iuvKat6x+DZsG/MIZpInC6kPTR/9pD+Wis74mdr68ftJsU+QhanL9fty0V7IR7H7139qR0QHUeMI8/TPs9oY8Tn2vVsJ0lejAuSgB5DOO0GwcT0Ll9ohIkj8wgd8w0qWFR8TnUl/x8GFQIDZwiDg32djqpBwnqnmSlUFHZW6rUNOmnXXXddXYeBU4uATM1OE6nFDnRgezCXow7VqFGwLnSNro8LzAVpVW2eL6R0VDIaykaPcS9xOvnEyGRUWwPHqa7AqccYLvQZnifPmH5gQQOdWw2Z6PRGA8AcmiozR+IxWMhpx6dOeetgxuNoBEsIWABBaBTHkdWuPtIS0p5nUvDsczPRFl7zhVsvLI8++uhQhEx0TIwO1EDBULDojTLBv9tnr6ESpxPGYlwawvRb+pqySMdPQ1UyCqMGh4vnT3vo1/ymnDFaQ2PIa4n9SllikTHkIOemH/JOYLC3/VAnUQNfogZ4Xd4X+2hXf47OXux7aTwl5gu+g/TfXW98S+c2y7/w2c7czxLQkr/PXnZV2b9+Q1n/wQ90HgcH1Hejvh999Yst8fWvf32gm6L8dfou7yHvjvrMSL8oz20PC7Kfbc1taZv521zLQEdN/YT8oJ04aMoYU+fQFmQAn0YPAfTeAw88UD+NFjP3aStfYjRhlIE33nhjlVe0jzbccccdNfoyRiUjB1lnG6K9c6oyIhLQyC3z0mr7Ie9wCo875tSsbFq9ZnWVazioXefvijrzs42CVmZzrXNFMpPW5cDPv7fsuuq6cuUD9w6ioB1ISCROJ9Iemj97yIKIEd6HmIKjJcEnDaaRSl+uDK6XdynOLPIYEfajLox7PxpXnqfreXbZQK3/lFh8SAJ6TIHRgHJCWWlgKMz5DUVhgQCEB6P2FnBTEPDpNLC77767CjPzhmlIAfZHWaowgFPJPLfbo2T4RHnddNNNQ9E5wLxGThnT+Vy2dFkteBEFXDRaIloDZ1xRC/QcODgQ/la3j/eoRihMTw/6gYgRZUZI0BfMReYoOaOXRIv5/FQiRkU99NBDg+nF5ucE8RNleO2119Z9P/e5z1VlpEHE4vm7RjajkqFP6UgbpcFUH+HoLdcUSYk4auq6UeeaBOP3+eeen30vepe7YeOG4yLGvRdtVJ3vMPeYv2PUgkRKNC75lDhgW/uP0USSIhhJRu3EyMM4bZ3vyBgifXC6jJpw9N0+2Eb5+HecOWHUIf0E4xdCCpnoNPHYV+KUeYgYYYRndCQtzNE1Uj/qe2xjktCJ0w1l93SPWNl39XWd26z8yJ8M/U0/NGqa9xIdw3LvG76/RrZ2RT8D3qOjR46WZcuXzUTV9vszThLyOsqSGLEjCd31/kqMGPls0S3ahW5xSrLXqdPVppwwdyvn+epXv1rlCDaSUVbaKjrP6kt0zr333juoHu/xdLx06OIU/TZaxxQiOl5GOxLByHbmbDTPoqS4zy8+y7nkROuMmbpDuWtb+Ztzv+Y1rxkQR4Mp9GX23nO93CNTErT6tKstrlseoqAv+eJMUUHsESPjRl0HhQxXfOJj5dvv/LFy9Wc/WVb27FXTqMT7kkicDqQ9NH/2EDJPn661feYiFicNtXZB+nKDbe1jcYA5HsPvo/z7SbGlx43nkYAe5R/F5x1tyMTiRBLQY4pa9KbMJvNHCJkHSmcvFndhe0bCNDZidA9/UxWVyBydUgWNhppLFBBRKDl6jxLE6dG427FjRzV2OL5Gi0ZbNObWrF0zyPvYGi9d5GJrKI4j6pSqF56vBjPgOVvQIUZgoUwA94P76vRkc9Dp2LOtzq8FKzBsnbJsJIPPCONDokKHnDZ4Xu87vxvphZJjmrZ55loDZZTi8bvTgdifdn3f933f0P6AyDZ+68KJnPdJwAu7XxhM0cNpcDqU0ytjjtFIgvjux2gdIEFkFWW+6zQZfedzdCo10Bihzyg7LH4SjSkNIaekW/zC6X9OT/WYRth5/HhNtlUZyPGQKzhd9nn3ic6W9weDzlH72C/rgFfvnwRPS9S0fWsuZyyROF2I7+0zP/HTndsseWJXTZnQtV9Mv/G9m15dcz+v+9AHRp6Pd2rP3j01Isd3hH59weYL6jvmsbUXQBs9DOK7IEHtu+8xaR/6JOocnSrkgqSKKSeM7OITfYTDTe5Xtzdlh84V+3COhx9+eBABpJySXIqpwWLEmNdpflWOid6zABm5EIlevP322wcFFE0f4r6ts+19ORW7xnulvqU9RhNDQA9kWQkkW+/f0iVLB8+DZ9l1zHZdfLZiVa+vUFTw6etuLBt7zquDwycqpLj8C7eXve96T/nu991SLuiRXDV3ec9pzTzQidONtIfm3x4Sp2LnTNI7nr7c3L5cu2+X/98OkE5C/xk3ngcby2tofagYjQ9yAGvxY0lJjCUQOo5IM2pphWWrxKuAfIkZgWQfMHBYe4Y/005Zj3DTcYm5fvjbIhXRsFKoGemi4YIARNlhmLCNeRU15Nw2TtsyqvVEQqYdDW3/Hkfo1AOKCPCs2sJMKhGnBRoFBswj5ihoK9x5DkwV1pA2FyRKQmNHRcdiDjAJACPoeO5W7nb03WesUR37VQuvwfZz/FrwKmDJ1Iw4c1Q17js1x0j5ibYZN+hkmKuVPJ++cxoFLi2hYr+Q3LEIibKF4yJLkAXmdGXRGLafGGHoc8eBYhqY07+ic6dR7Eg+fYnvFj0BFuCRPOIc7Wi5U9as7G7EIcdjXVeuQo0lDX6ubfee3bPH7t9DCBs+JWtaw8hjdQ2UxfMlEqcT6lN07IvX3NC5Dfmcu/Yz9yg6gnfyvtve0klWR/BOxcJDvh84PXXGTt8hUkcZYRdJHhDffyBREvWaEcjIDNqoI64MUEbF91oHCnlEShDbqiyTCHYd05rN06w+lMCJxf1i8UO3Na2HeRI5DroRPUj0GDaVKXssamZbu6b9tzpylJ5sv8dtJeM51/333z87SFCCHOpHQEtKQwKMQtf5Iiwq+NgNNw+ixZ3Ga9RTFwbFCK+6rm4f8/GmnEycTqQ9NP/2kPtHzGWjT+I7nr7cLFpfbjA4egIOYNIISXOwjxvPcyJyeRK5nnFEEtBjipoDsT8ybW4lR0wRIu00RpQQAiY6ghzjwQcfHBhhGBNtIZg4QooBxDH41FHjfHEqG8CpQ9hZLGPbtm3HOSRHDh8ZfK8GTcgdGRVrF+JI6VzbjQNi9eQLL7ywfnY5rOaF4xP4TFiHktcZtogJ673XKA2ixTRaUEAYrDw3DGWm9bAdI/b0I4kGC1zQLpQjyoXfr7jiiqH8lktDoanoZEYDJkZeGJnHdKCIJUtn+o9TjECX0dIa4n5OCgnNs6lFT8I/+kXMzxkJFrA0FOFRhiAfdHzMu4rhQT9wCjxwHw2fmFNQQ4NjG2FozsLocDkqbj9QlpF3zqIWMWdsLHQVoyBpF22k7yCrkEUaVqKN+DAKlO/KOLcrUzNTT6eWzMjaNlpwFLr6WY7iJ04nImFw8LpXlEPndxcfJOduu5/vn6k3nr/8qhr9vOpDfzjnOXkXB+kazO83VQZ5Uk2DEYmc1lmVRPa9i1HP7q/MMDobB0dyUz1inlLTN2hfSCZRFBESOkYDupgbk0gert9UHzhiMbKI633sscfKXXfdVSOlLeZjzmn1LSQukWfIXY5PjlmWN77xjYNISXWmuTvVjcq0GP14Ms/ee9veX66NcyjLhkgmoxmXzJ7DvKERo+ywrgE3opmf2r6jvNDrQxY+ijlwR4H0HU9dfGmZOmf9wHaJU8MTidOBtIfOvD3kdbZ2/iQjfblZdPlyJ4NJ60s1jcoY8zxdQTsRKTcWNzIFx5jCdBUAhSGMJAJRYCB4mE6F8HHE04IEKEbzRDl1wumqKoe2kAWfnBfForOpoeRUMeBo23QzbZV8z/6NUVMT1k8dPwXnZATQOBM70WgxUs37qfHi9WsURGVi/jCNVA1clRfP/c1vfnPd30IRrDfvFAvPVEffKYPs74imRStwwmkbiogRdIu42M7WKI19QgPcoglXXXVVHTU3t5XbgVjMwvXtcaNya6eJjTt8pzEegUatxoTOimSPRqWOC/0gvtMxApD3nQWDA1LIAmY6XJzHgitW3TYaQrnBthgtcfTdaI3YVzwu56Mfclz7r3IoRvlgbGM0sT2fLPQhnbnoZPl+xChLtuH4g4rlM97WoE2AqKV2UMPvXWj7XyJxOqFT+MKb3tb5e1c+Z/uzRAP9/9EbX1mjn1uyugXvyFNPPjVbgLCfB5p3HQKWSBvP0b7PvisSLTrRIBKvMVrQPKiu08k2WkuZZZ7nGOnMOvQQuoTiPEbxANoGscw+O3bsqO98jBLThiKNBXINW8dcy7FQj4TppZdeWvdD91ldninRt9xyS5VdyKCol6OjFuVLRNcsi4hIXMRiTm7n9GxJh4FenO7rRkikY9OD31ud3E7Fjc812mjkcz7wc79Uo5mvevC+2p/MBT1XOo0Vfz1TjPC73/eqcsEzTw/ScHTp7UTipSLtofm1h1pEkr0lyFoZM0nvePpy3b5cO8AZfbeWnOwKOBpnjCPP498n8xxjP0t7YPEhCegxxSAFRw84V/EF1RnDIUQYaZggzBAaOk0KKJQDTpjG11yFYGKeINrgaJtTeDguI+6sJw9iG5mjUcc6HB8FGspR6PyANhKni1AcZ+EUFRBAoZMzy+gIk/pjcEaF0kZWaGBHZ9WquBgrPAuLomAoYCxjLNB/WDBEmDaGIuJvnVv6jYUpGJ3nO/uR//K+++47bpTcPhCVns+QtnNe8nZynSgr2qjRAjxPROugt467v02SAovT/bhuDBIL5XgvjMTju5EQbENfcno+xqgOjVM4nWbKcXheGsE4OKznuPQrnp9FLZBRcep7fK9jRW/lgQ6g+eswojWaPYb5FY1EwsBC7hjd4bRYjaR4P+J3+x7f6WueIxJstlWZFeVa269a0iaRmA9IxtZiV9eOSL/x13815351qm9Pnn77hps7U3V0oeaT7E8Lrcfr/eO9QRdAQLf6uiVYYxSVUzi7onEkoF0XC4eZl5UlFgFTZuD03nDDDVUuoIeMKFP2mA7D9B443ET08Mk5iBiCQNYBM+IQtI4b+2C/IHvYDlmFDEEGI4de9apX1VyaMcdhvB+RfIi2Uksot88wks8S9rTRAVrk4p7de2aJo/6n+wvabvT6KLTP1GdSv/eLCj72zh8rV31mpqggz0XHdxRM9wJxfdHf/s1QdPso+zOReClIe2j+7KEoq+pmI+RV9Ovi90lB+nIn9uW6/LRJ7CtinHkecCKZ0cqWxOJCEtBjCqeKIgzOD1NvfdFJBn/bbbdV44NpW0wfZR8UlFN3MGJQDOZFVHA4Nc2pPSCOPrLwO8LHEVUVpb9zTgQjSihWfbda6mCa7dRMLkILczjtrR356nLGJoHowUiI163REq+dZ8BzdnSc5xanFbbGoc+CbVEuGKo62EzB4rlyDhx49sMRB/yGEqTfML2Z42PIo+w4Ln3KUdPrrruubhOn1HIs2s810SckGCQX6JcQB1RLjkZQBPtwTkd2Rby+6Cy3AxSTosx4prF4DEYAz9rIQN8/7qHFq8xXyja8jzxnDVn6F8+NZ61TphFshW6AfOH58XyjkcrxNJhYz/70U/sjcOQ9RloAcxhKRsUReI6Po0f7KK5Bv+XajSIyt17XM/d8cVq875K/T/X/2SYMKI4tcdaiaxCkqx8mTh5Hbry5HL3iynL0sqvK0cuvLNNre7piy9ahbSCziPSd6pFhy+76Wln68ENz5jIeF9AvD93wfeXQed3pN5Z9Y+7ig7yDT/ZzR58o+lk8vnO4AGyd0r58RZUxLVoCWtvBtkucmidVGyBG57XvvbI/FtFhf51zficimaJH/I4swkHbunWmz+iso1+0gdBd/K5zhgyz/dpU2iacy3YbJWbbjPpCBjmF+hWveEX5zGc+U+Vnez/i38pC7Z9R9k0kn+NUaD5p95VXXlnbd88995SHeu/BDa+4YVDISBLJY3Cuc9adU/sB9ymeI36PAQFdsKjg9266pVzw7ExRQVOYzBUFXdNw/Px7axoOiGv2M9purv0WA1JuLRykPTR/9pBkaSSguo49aTZ4i0HqqvTlKvTl1Juii5Rsr3tSiMlx5HniO9AOZscl+lCJxYkkoMcYjHSd33M8Efw4HYxwoUAQOtdcc00VFBgIOFtE6aCcWFiHAkJAIRAshsD2bGs1d46B4ogj9DqAGDkos1gUKI6o0Q6muDLSqoNpTiqLLjAaZ7GFOMrfKpsorNpIqXEH94t758gxTrLCX8OD72wXDdqobICGtsYMfQDHmGMQUYFBTl/g+XscihjxjADPk4V+5LQuR0NjDkv6C21hOyLHdNY17okG4/fPf/7zVUHRd7m2q6++uu67ffv2wbU6XSiCa+O4XcaJS9tPIiaFCMT5GKB3qRs3bBwQAvaZ2Hdwarj/LE7RQ45wr3V4dNQkXlgfDQo+zYnIcfiOYeL0r5g7TgOF73HqVoz4AB5X0ol26WxJWlkQg3yunEcn60QEhttoiHldGOzx3H5nMR+tci6Sy13bT6qz9XIBeXPoB95ZDr/+jZW4OREgdiR3Dr/ujfUTUmf552+vkb3jRurE6Ne9r7q1c5u50m/oJLJQQO5ExQcj0Pu1uvmy5UPF7SBiJYRbwiGm2NAWUJ4YjR3fE4lojxevO+ajlHxRljkdGRmE04yTzfuK84ZdYwodZAbXjhPN79gztMPoQ6OC0YtERksw6fQjf9iPBVknYcN1sI79jQBGF77yla8sn/70pwf3o6sAoVDGRjK+KyrM5+hUbM5z6623VqeU7ZGVQ8XJYvRi7zuFxHoWW1m/YX1tM9c0yuk7kTyj79CHdl11Xbn4c58e5IGOTmgX7HNPXHN92fD0U3UfdcJiRMqthYm0h+bPHpIkjcRS3Cb6b9E2nzTbyGeUvtwM9OXigLPrT4aEnpS+M448T9cM9y60BLXfE4sDSUCPMfbv219KP+jo2muvrVE/CBiECS8pgsvRLUcvERAIH6faIFQwnDCSGDXD2dKhI/cTShInLuaaQrgg4Bz11LDQIDNHGvkTEVAIP4SRlZ05Hzh0cCaS0II4Rs1EAdOlcFpCei4BttjBfYu5szRagEoAI9ARbZSSo+EakRoyGiMYwSh+/mYEm1FMtjcnmdvQJ5zqx31mW87PcXWyHTCIUVhGW/A7kWdxejHtY8SUT6LCNKxoPwaL08bowyhTo8iEzjptjYVURCQE278naUSV9/jY9LE68gxJtPHcjfXdi/nbNHw1eHkm0dAAbM8z4B3mmZub0KmCyBKNZqeIQvzwLNnXfGO+8xyD4yNrcAp1tjhH7KfR2LBNRDTySZ/6m7/5m9ofnd6K4U1/jfueiAB2PW1ANhmBhNwaRPv0yZpBAGHvb/pljApqMWmO1ekChM3Bd72nHPyJdw+RN0ue2FmJmKWPPlQjeqeIJts3s4hjm2eInJmIwyt7RNAr69+HfuAddYEco8DeyUb5LnRImFTy4tIdndsQldpCWW0E9KHzLqgF5FZ+5MPlZIEcqQ5nj4AeRNb2IPHpeaZDFHMkH3SALSwo6RgdcQlYZULruETyFuiUS2w7ZdSIReQL5HMkiZA/OHS0G/nFO00KEc6JQ4XuQy9JUEPoKDeVW0R5aVdJ9NBOZIRpKJBPN910U7WnuHcxZUa8jq4ooBgp7XV6D9Tt3j8cSXQrupP7oK6WyI59Jx6Te0MkGjojDuCeqhyDMDWaeUXvmk0RMJd9xnvNe/z0JZeVC778+YEeWEwR0Cm3Fj7SHpp/e6j10VqSaRLJw4j05bp9OXObgy4/rSu4o+1T44xx43li6iDQ2j1zIf2qxYUkoMcY+1/cP4hAMtoEIWI0ESNXknQKDBYUCdvhdBABRKV4jB+NlWiUcQwEGeucJsanRRCMYFIxRcGEMFKAsehcqkyfe/65cs76mcT6KjSFlojGYfx7LoJxnMAzQRFgPACeV1TI3HurG2vYcN+t1M0zwkDByGAfIzkkIDR2UB4oJSsw+zxRVig6HWyenQWZjPLiuBzPqT0WOOCcERpZ/H799dfXc3z84x+v7eTcTNdCeXG9Gk5dkVjg3I3nlieefGJOY7qrT0yK0YKBWd+3ZcOFrpyCp3Pv+xqLQwCeH++w+cN4vk6jk9AxB6L5B52yxzQwiB1yx8VINvsU21Kp22mGjpibjzVWSvaT3yz8Q/+kz3AeHT8NmtZo7UI7mm5EY5zqyP3DaJZgq9NOe85rb4saTYkMjffrZPrUJBnNpwoIHAqZSeBA0kCKQry0UbxdYBuWGDEIkUMk4sEff0/9vv/Xf7N3jveOBaGjUwHZt//q6zu3aaMnlQFGziH/n9txef2tK1f0KJhHtOqUfjFC+jR6hPfXaOCWVBXoJqeI6jBFndOSzKCNkGrfX6eNGwWIPkE2WQiM8/HeQjZzLtqAbUI0EcStDjbRfnw3YhIbib/Rr+g99oHc8fyS7kZ3qQu5N8pYPnHwIKvvvPPOQaRZvA4JG20pyYBIRLuPTqUDCSy0z+swnzNtUC5b7HHIke87hMi1Des3jLSrWoySYfa37/RI1AuefmqQ01m9MArLP//Z8vib3lpu6ufYPZn80QsFKbcWB9Iemj97CLnPgF97HBF9uPj7pNlD6ct1+3LMRth1YEZWngwZOWkDGePG80hUx+DB1tZoBx0SixNJQI8xEBjmNXNUPOYFM5+e0VI6aggrBBG/O4U1GvttBIqGCMeyAryGlMJIhenfcbpQVCg6nLVa65NP1dE8R9djwaEWrTCKI+zjLqgQ7uaktOq0CoT7jpHK3yh8+oTT/rjHGixWteb+O7LOwki1+aWM0OKYOqz0Bbbn/qqILEzi1F8NFotoGG3VVrzFuGJbDSqMco79iU98oq4zhxngGBZdiPDY519wfiWgI1oFFvtENHYnQbHxjnM/l50zqwIwRHBSIsljP9AhMLeqcoLnpOHBs+KYPnONDI1Z5QWy4Utf+lLtsxqwwCnhOCuso394Xv7WYGkrgEuoYCQR4WHUjdPlneYtKed1uf+oSDr7i9vqMHJtvD81p22ttdaP/oGw6dnd9GPlT+xTowzmeL40qIYhwcLUdUDaiFUf+sBpmXpO9ODKj/xJXYgmhMSJhM663/i1kyKJFhoiKXng+hs7t+Halz7y0HH7+X45rfzxK6/t3HYuWFyLQcD6bkzXt6NOEzWSNr4LLdnAe4ZzpC0QI3n5O6Zs0HYB2imu03bRFuHc2BPILPQY5DLvKuurI9QjUZA5kMFOpb/77rvr9GW2wTGKJBD7I2f4jl7iWCyS08gljiNZY2EfrkHdp2ziN/QdeZljlFl7j9DHEAnIOQo/xWvl/vDM1PdGkNMGoiHZj990AJXl02EA3/zPHlfHVpkW+0oXedWlQwcESpOGw8js6Oh2gf32/8A7y+6tF5blPZKkLXa1EGVmyq3FhbSH5tceimjtoXaQLcqNSUP6crOIvtyunszr6pNzyf5JsaXHkeeJNkS09Vqdnz7T4kYS0GOMWNkZxYTA0XgAKpRYNEvnBOPF6B6ECguCDijgYq4flYUjYXF6lUqrFUr+3joythEHUKHkiG6LkzFSxl1IxeeMIaABGo1llD4GB8/QwhCONpKb05FwpxCqyLzv9J8bb7yx3H777bUfOTVaRxbjwvts0adosGqw+HvrzKrMMKIYhcfoBkSFQUaQR0oj3H3Ms8forYa0x40FGeJ5WkXY5cROgkLj+dAHuN8CgqKtrh4dBaPPNIJBjGakD1m1WhlhH/G56wAx7ZSoHqLy7Ks6NDxXDFL6rOeIVeM5B888ElRGV0LKILt27NhRDXkInShzzFGnvIrGTddz952I8o1z0n7aDgZRP/17smb1msHfJzp+HOFv95l0xOhBSJfV//7fdKaNOB0gcpAlEjp7fv8PalQhRM9igzJ377U3dP5OQbNR+0lA8+7u7BHQpE44FfCuQc6iVyLOO/+8smXzls6owhhx4/ROpwgbCd2SJDrCMerG9ToryBQ+sWOQdeoPon1oBzICcsZoYJwr3m3OjW5E7nz1q18tb3nLWwb7s84oMba3UBLXDHkNEQMpQPSz7eZeOo046kzfdfa/4oor6jmRcW7j71wTz4R7ityBTECXS3Z7/9TftIPpz0bNIQ+5xiiPdThZYqGhWIRQcAzvqWhtr64ggFbuEc38/Dt/rL7TK3r2SJy6O0ruke+4/HqPnNl+ebng4YcGEdA6xwsNKbcWH9Iemn97KKIlltx+Em3xiPTljvflIjnd9suuQYx2AHTcMQk8TxfaIJ/E4sOSkhhbaLCAZUuXDaaDRcfCEfwoOHSs7rrrrmoU8YLjTDGKCbGnANERiNNBdRqjMWGus3aqZXQ6QXRGwbPPPTuYwsuicdhGT0Ui0d8nyYhRwQuUuI44zxLHmr6AoaKT7ZRB1mEUqFBisSSnyGrYoqhwki1A4DY8b4uN6FCyD+2KBmuMrNL49rtTe77yla/UY2N0uB5jyfxo9AGWOAIbi1fYty2cIeYaqDiRYz2O4JqffurpoXcnTvnzeUUDMxYmi7MRfKYWs8CYkeygT/DdqaK1OFlvPSPeOEf0S6eKsmBQYwAT/UF76G88a56xeQRZrEQPOK7RQ5A/nIttMXgjIWU/dIq7sq9rQAK4fczJ6rVDNg3qq/W7i4bzho0bOu95K6MmoZ+9VBz4+feWF//hf11JHKasn/OrvzxvJE4EZM663/y1Srpy7hf/4a/Wtiwm2Lfoj/uu7U6/MSr/s04H/fzZS6+o6091Wj/HGSpM1f/H+7P1wq3HkRyx4KB5mZEjyHDIYb4jR5T56i4jCdUBOkqRWAXs67EglbBj+A55i/yJU5g5Fn8rG5BdRGyTVgO5YqV3j0+hHq4RuYN+xJFGtrEveaLbPKeRhELOGX0EzLUZZYS/uY5roe1M13/7299eCYdIjCnfWM/U55tvvrnKUM4F+J3rMG0IbeZ6B85hmS1IGO3ETedtGsj8+JxHEcBdJAGg3x1euarsufCi4+yLkf1p395K5D596WVDKTgWogxNubU4kfbQ/NpDowbf2yCQLl9ukpC+3PG+HO9Pm3arS/aP8v/HHePI87R+0iiZ0NpH6VMtLmQE9BgDA2YwHar/YrJORyuOkBmdE0eqWEcCeYwoBBefKDgEjALN/QHncGRNo0an0GIc7ah313eXWrBjZk7XjOO0avVx0zCiExT/bpXQOCsljNQInE+em4LfXE3AHHX2B75jnLKNI5iOQvJpbjyeH048x8ZxZ3sVhffW0Uy2RSnSB8wdFu+9TnzXNECmDLLgPLPe6T4W0tBYiVEbXJNTfwDHdBQftKOvLewzkzaK+vjOx+vUbMB7ZsSi9zc6X0Knw/4U762EjSRRNF58XjxDnKJ3vvOddR39C2NY8sliYFbq5hgYRETYRMfHivD8Th/DaOZYGLtEBBAhsmPHjnosnKMYreE12W7P3T5/jW+vgfZwvyzCo2z1XlUjq/ePKE+LCXX1N6fBteeatP43CkwlJ6IPED248s/ObCQfZNea3/udmnbixV/51RrNSDGwNb/3vrJYUPviOevLwe07On9f+nB3+o1YtO6xq66tv72UtAF16ndp8gRPz0QzGcEcdZDOMu+/RLH5Ko3Grofo7Wv0se9ym8ZBUsdrQSZxHCPC0FESNKzDkWdb5JBtifmJWXf//fcPHHjvD+8wx9KZRj9SiJD28zfHM/eisst7rX3EdjFXK3/HFCU+l+jgG9V8yy23VILiYx/7WHUgva/KM64ZR9IoSwgKQFSakW6RzK2yvByfS5v1yOOWbFamd+VvjvIsyjXeKQhl0nBcft83B/fZaOZRMpCI/afe9NbBM2gj7xYCUm4tbqQ9NH/2ENepvxjt8vgOt3b4JNpE6cuN9uWir59E4yzGkec5mcjmeIzE4kRGQI8xLHZh9BFAMGGMmBNIp8VRtPgyK+wRYs/1lBdRQOyroWP+nzhCpXKMI6q2JeZuFF1/m1sqKttq/CxfNjie6+b6bI87rkqLZxKBAwxiEQCeu7nfIrgv7I/Ty3bRycVIuOOOO8qf//mf11x4kmpM7+U4OtceB7APz83oNKb4mAPT7czxVBVnMFZZWEckCPnBnILGOgxdFGM0ukVsB6D4CftKWsTR0y7E/jtJcPr2zODzVLlk+yUzf04dX9zK4jVGK2p4xkUHy7xybWQNYF8cohoxU2YMbIwd+iaGCH0Q0sQiFGzHsYjeufrqq4ciBG0PTpayiG0t1MJ5IWli5E5LIrXRg+21uy3XRB+86aab6ucgxUvoMu63ecvmTqNonGXQ6YIkDiQV0YNnmsSJ4Ny0gbbQJtq2GGDfPXTpZZ2/Q1R15YiN/Z1ld4+8InftSwGOcG1LrUBYBrlBifSL8j5OD9bJ5d1Fh0GU6qQiC3jXkQvYNJCp6BUWZcXSfvHEdrqx0VwS0XySwoLo4Ouuu25QeAm5pAzzPqBHdMxwpmkbMkaZiB5U/1r0CRnH8X0WgHdfeej95TdzSutwmWs5kjDqOuWH+g9Hnqr373nPe6qTb9QkC5HZ2GwSTdwjro8FW89c2U6xPa4PldmoRxALX7UEUZSZJ9S1vXcJgpS+FaOZoz7vAvsQOX1w03kDGX6ifc4kUm4tfqQ9dGbtITCXTTSJ5FL6cqN9udhXog6K/WcSychx53m6MIn++jgiCegxR3WqytTQCKLTVx2xsipyFBJxqo1CAuWj8+UUjjiSHqOUYjSVU067lAWGDAaTuYlcr3Pz/HPPD/aLziXocnraEfVJgNP2BEYFMBrM4iiOmAvvG78TUYHBawSCC8/HKrox5yXPVKMjGgbu73QfiAKnMDONi37mee1zsb+w3uIatBdywOnY5gyz7Z7LUd3Bb0uman9qc0mN6ieTaLSA6nBxG7j8qTLIH9c6HaC+iz1ZwnPRYIgj37HftA4MMAqPZ+UxLF7DtC+eL8+MvkJ/5pnTZ8jVSvSh+eFwuviUOGE9zo8j/bSJY+GY8TsEDUSNhpKOloavfU5DnTZwDzS+zIdLGylG5nRaIxdLmSXZ6r2amnH66LdtH2tl06iBskkFU8YlcSikdSqF7+YLtIG2SOYs9Gnt9qm5COiljz7YuV/U2Uzjf2r7jpdcNA2dYeqNiAvOv+A4GeN7xnvFewOJyzYxMpd3DacIcoYFuYE+kaRhf6e3W3yPdegMc7R6HsgYiOcbbrihEjmQKLzjyBLOEYlxHWc+jayGFND5Buo0tseWQRYSaShZo92iTRVJ1/hppHFL6vo38ozrVZZiu3Esorl/+Id/uOZgVdcjQ3H8aRvrsN34GweTY/C30Up12nP/MUk8+9wgAABRSW0KtJMdUGu3Wfrwg7VvTfcjsCPxNQr2w91btg3J7xPtdyaQcms8kPbQ/NlDbNeitce7BrAmxYcT6ct1+3IWSuyyj2MfiWT2JNnS48jzgPb9bwcgurZJLB4kAT3mGAj0qTIYCY0LAgnDK1Y/XdLPE4iywBmM03J1hByBjSNecVRfWLlXgcInShVlxDFxAhmVxzDqcmx27to5Y8xMzeYriwJs1Ch5F9kzrgrJqDARqyc7Pcq8UDE/U7wvGCYYFRomKCGUkcWJ+B1DAiPEYi0a0fEZOLIZjXX7CPuZb5PtOJ/GelRa5jfj2Kwzgi0qpXjs1mhRqcaCMqMGKLqIwEkxXCByquHXn/4EduzYMfi9fa6QM/QDSAyej++909Zd2mJgRgnhhEjMUIiE82Ns8LyRNZIvFMphvdXTrdYMeNa00RxlkEFxiqxEFnLLiERIphjVKOHBOYmChMCxz7g/bWVBTtEOojaMItIxG+p3/agpCZy2CGZX/+taP4qYHndYuAssFBJHSOYA2njwXe8uCxkSCPuvGVGA8BvHk8qx/9fo560z089fKgFNZfP6TvarsxsZd/H2iwd2QmyrhIjEsRHP6BxIGSL/iEAmxcWjjz5ap4ziCLMeWSTZrM3Cp9HOksg6N6b4oEgfn9geLDrZOtYxjUeMWjYq29zUTkdV5xghCZSfMdJQR629/8BB0y45gCxCVhl1zfVDKgMiy3/5l3+5EtGA+6bziM5F1koGcD+Njhro8FkGevjZLFs6WN/mp54Lsf2tPrVP7dl60VA081zHJGofPM2gSJDjZ1tWptwaH6Q9NH/2ENtOqp19KkhfrtuXo2+6fbxe29llV3eRoeOKceN5tLVatJHvKVMWN5KAHnOYm4v/EBwqL6dqYkTpxAinshpJ5BQbBVAc5XcaahwhUwjEavSA7xhKRBy98pWvrMIJ5WeRIJ2vKERq3kJ2n5oROu3IacQoknHchZJ5ugQREcLrj1FTro+fGCg4pigqvps3TmecqAsMZA1qjVtzZEYlZb8QbV/h+PQ5p3d5PA0RnjlTiNv8VUal2QedGharAMdrsgK5GDVYEffx+yQYLciGoal3vX84H3HKlkVKgPc7RsXYt/zNJRo//I2Rw7R0HBfOAXnC+X3m9AeMYgwhDCX6ooQH/YC+QjtYx/PG0TL6D8SIONqFXNEQu+yyy4YifJRTbMPU9be+9a2DgkNug5zhtze+8Y3l9a9/fT2PkRhcC78PpreV6cGnBA4Ol+jqT3P1r0kzoo5t2TogccidupBIHEGbaBs48HPvrblVFyp8Dw5fcEHn76Pur+8Oy54tF8657YmwZ++eGdkyNdzXIX3bSNo4VZh1Rnrh1CInIJzJccxCdBckNDKCQocsyAZgygyLG2m/YFcY7YfcQsZIqvCdfSiOhEzRWeP8ks3aJeoenTajtNVtOtYsRifHe+s1ayt5THVpzJPaRviwYDshQyHNjShEbqKnORcRmz/0Qz9UZayV5dWTPlujo9CxRl4ihwdFgWIk9PRwRFkc0I3Pr/3eov0tRjPHezbnMfqFCF/ccO5QxObZRMqt8ULaQ2fOHgLtoNPJDm6NM9KXO3lfrt1mksnIceN5jHgHcwWNJeG8uJEE9JgDZVaFRZkREDocGDcoIZSDzpaKCAHj9DBHuRAyCBAMHg0tjbJYfVnBpLHGMcxNpvOGwGM6BsU0UEbsH0f44ygXgjNODWqLy7ndpCMqbiO+WgeN+4Wx+Au/8AvlB3/wBwfT/ADPgGOgCOgPGCuxCIGVljXAfR6u93m30R7teo2WBx98cKCIYs4oDSxyh9Ee/raIRlSEntecaLF6sv2BfhYRFddcpOAkDFqAWo36xQODKBU+GbWOz0IHinvCO8vUS5wdK2Wb683K1u20L6df0dfYH5KEaD36FH2M6CEcJ50Xc7Z+4xvfqMdyOhbfIaScZs86IwKVUTFa0ZF3QBRJNFx8L2iDEUE//dM/PYh28vq5TkbscdjYz0hLjClIoGh0tTlTjdjoQle/i/d80rD3fe+vKR9WfPJjZzV36olA21Z+5MO1rfv/8cLNq2pU8cgChI8cX4DQfZT3pEiwYNxLAe8/kVbmf57hImZnB/jutHlGjbpBDyH/kQ9O+5WIwSbAfvF3vkv4RjKoJWGMsGYxMloSmXed6L8oiySVPWaMEEJumPYj6g2nsSr74r3tivLV5lK/xRleIE6RNf0I14GcZlHHsQ9t494iX/kbO88IJtprcTLvj9NyzaNdjxNSpmgzikgitX2n/bsd7B3apk8mv7B5y1BRsxOn4fhaeb63j/30bJPQKbfGC2kPnR17qG4/hw00af5d+nLdvpx9pPXjIrr6yiTY1OPG89C3T0YOnOy6xMJEEtBjDg0ZgGDBwEEgMXUVoYTAiAaI1d1VRFH5IGCczhWdDLdx6hfQWGsLJjjqySfHQUhand0R/ih4HLUzv1FXXt9RmCRB9FxTPdncYSA6+0QvkP+SKId3vOMd5XWve119DsAcmxaaQFFghDqtL0Z1OMJqXkmngznq6gi9ho770h/pd0SuSQKAOMWHvoHiZJo1xpMkQDyOhahYLLAk7M9xynCXMxwN5rhNu35cwX18Yfds0ROMF4ueSJr4iQNjNXansxupiFzwWWjoxunqRgvSzzgOzgrTsYiGdDq5065YrPYO4eTUUrbDyKJfkreO89Aei49pVLVT3dmPfhynpcYpf3zneq644opazItj2reRkeZ95Rpx+CzgNchTZrfqd5focM1FKk8i0dwF8pMSSQghteqDHyjziUM/8M7ywv/60bL7f/4P9bwvBas+9IHa1iM33rwgp7Tbvw9esqP79x7510Uqx1x+fL64offOPLmzvBwg5yU0jYajfZA27bthxE2U7U4d5m+d00jm6PSgs9iG3yKhq80RU4vEqeftVGCIF2SSNo2EsNHTkSg1stopxdo/nt+pzz6PNtowpulwG4sFRjkVF671c5/7XNWL7GuxRgsZ6uATVYmcRSfaBmUvOtfriRFoRkwflwM6EB8XbbtoKBquxVyRSi0Y3KiDHIFIPpHO5b3bv37jUO7sk9lvPnA65NbpkEcni4UutxYC0h6aX3soYtQ72yUzJs1WSl/ueF9O0rLLn2sxipweZ4wdz7N8xQmfX9dzTvJ5cSEJ6DEHwh/wYmMkYDQQRWSieSvNK5SASk4loeBhOwQNo1pxymQUXv4NjjYVUeu04P40H4UT6xypNQ+kwkmnS7B+5YqVIyOfRzk8kyCUWqPlta99bY2u8H6yXH755dU51VFnepdTAQEKxPxgRDXwO8fgeZtLEmOBhe9Mhf7KV75SPvrRj1YDQwMlRoA4As9zxCjCiL777rvrM9S5VxnaNwB9g2OymL/Mar/8zfnpxyguDCAi5EQ0WqKT3zWi2pLNMYJrEvD49x4fkA3IiB2X7qjfdex5Dhgj3EsrV3NPeQ7cf3IXsmDk8DfPn+3Z1mlXFhUz5xgj4q9+9aur08V3+5ZTwtiGfXjeGCvsxzE1lCwKhjEdo+EiWQQkmySLWrKCZ0yf5dz0KQz9n/mZn6nFdSzaRZ/lO8YckZjKTo3nGnFQZvvL0iUzhJZTWOt9HdHP4qff5yJtxhFMCwerPvSHPcJzV5kvQPbs//XfqFGAEEcv/sqvlpcCyNs4pZ3jLUQcuWBz53oKwLWIUbraAc9fsLW37ctLKUDO5sE5+ikdWCBaYjSVU3DVFS5GEMZcl1EuS57ybvKuOn1U+R//jpG2XjOIhZrYBpmE7MEm8dxRFpovNcoaI4ptk+dHXrS2SnzH3VbCnIU2R7JaO8sFPf/Nb36zyiHODfmkbjTVBlGQt912W73/yDadfqMp26Jj2lmDyM8QxRhlJkSZBbJONGNj1CCvWPLEzkome0/jdY6C8uHAxk0nlbZjPnE65BbpO5RH+3/9N+eVhF4scutsI+2h+bOHRiGmJxKTTCS1qRLSl5shLc0vDaKuGEU4R9077v1p7HiekILDdV3PPF5HYvFhWUmMNXjpq2CYKoN8hlZcNv9POwpmRM8gL2Apg+mmCBb2Qzgh4BzdR4g4Ct5F4MVjelxHTFFkA4OlfzzANuYrNAoAQ0yB00a1jiKmJ4FMROFEkK+N52GhFO4fRovb8beGAvdURc/os9uoRFRSOL/cSwwGjAQMbfOKffKTn6xT8yg2QJ8y752OMX2M/THMndqsQlFhxX1Yh1Kl6jdt0vnlejSArMTMen6P4LgYXq0j3EUExn4TpwFNQr958qkn66dO147Ldgx+i6QLn0bdmDuUZ2CuOfoaRiJyATmBAcFzkfjgeUdnieeLw0QEEX0CQ8nCYdGBog1OMbUfWpQEozjKJ6cGRofGdpuX1efK30Q8YphrrEPmEJ357ne/u26HUQ7MCQtopyRWfTcsstY/35KlM+fmPnA+jb1R5HPb9yal34EYRbjik39V5guSzxFTe19aagmw/Au31zy2NZrwJ95dowsXCpSnhy7Y0vl7S5ZFGSwhudv8z4++PAIa2TA1U41qNrq299+ll1w6sAWAOkby1ffTSL847dc2x0/241xG4WhrAB0cbRP+Nqqa9cgQyCSn+OKoQbxY3JD9LCwY71n7rqLbkI1GMCLjaAvyjf1jSg7b5SfnMFLZdT4T2+x94TjkwUbXImPU3abRkFRC13/pS18a5JXVRlMOx2eucxiJt5iGwOvcvGXzcbms+bstPNUl11rYt8jpvKRHPJxMNLOpYyiQufo73x5K33Imcbrk1nQTFQoJDeZLFi5kubVQkPbQ/NlDtLWVo/p4J4ponRSbCLQEdPpyU4P6A3MNeLZ8gNtPAkE5jjxP12yr1u6aCoP5kyYnxgFJQI85eCExTBACGAe82CgBp106EhkrnEbHT8cAGLWEIMNYckqFU9A0hPjudJsYucT+RjVJJBs9oDGk0PG8/E17z1k3QyauWr1qYFxF52cUsdhFQI4jzLHl9XJ/eRZM2bv66qsHERc8c0aiibTgOViYxGfBdxQFRpB5L62SS9TDww8/PJjaBRzd5HnwG0YJOe3oHxwzRrTxmxEYTuVz/7Zqb7wmo71Uopzb6dn0J45HNEYEx7T9KsK5orbavjEpigzDT2IIrFm9ppIwEiI+H6dmWdQCA5Q+ggzg/pq3UIdEp0pnLUYOcqyYj5Xon9tvv31gIFlNWRlAe+yjtElSl3MrmyQj/NTA4jjKMWF/pZ/zOxGDRivyG+8Mxjf9mWtmnUW/HJlnfc2fdvDAYF3sM5Ba0dny91YudRFSk4IYRThf6CKfT8c5V33wD8ve33l/Ofiu9yw4Aro6med1FyCENIuIUSsSnkdWzTgML4ekB8jtKlemh8937qZzh/p7dDR8Z0y1FYvflHCNEdgOnAtn2qnekipGPiuHLJpEdDA6ifcaB9+p52DHjh1VvnEeI8HayOl4PSzoqkiIA84rYeA7LyHkNbMeeUebtI9a+aBc81zIbPJqIrdY2J9z0WaceYuTEWnONXn9LWEbj40srev7t3l6thrhoL08E2RxbGPrJJ6sHpVMfqE32LGmRyafTBoOU8ccWblqiDw/0+TC6ZJbRCRLOov5JqEXqtxaKEh7aP7soXhOf/caol3UypVJI5XSl+v25ZYt7fn9x44ed7/sM1EPjApOG1eMM88zac9ykpAE9AQAAY/A58VFidXcjNPTg+k1MSIG8JtTMnzhFSL8bTQPRhMjmwo0BBGGBoIHYWPkjxVy2Y62YOTRHoUcyuXZfhSMUT5OMwMcy/yR5AYyeqAllUeNgIpxJqFREhoCQKPUkUzXc095LhguToWKBSGM6qCwBL87rYuoK6onmysSGJ0FvN+0AafbfGL0MaI6zBOl4tE4aQtsxCnZRqtprGtM85vrOB7HZepWBNtZPCq22d/aZVKVWjUMmTY5PWu8ISMkJGKRCckT/24LmdBvMGhZz770uVgQR+dLeSGpQzQH/dHcb3G0HcSp4u1UbaeYRedFw8p9AG2K+9Nm5OBXv/rV8va3v73mOrT6OL9TbId8qxjMvC9GYMR8jubB0+EaOHxlapD7LPY95ahoR/Lnyq86biAKb76jn0eRz2t+730v+5xEEkKIMZWda+Hvs41ILB4+f0QKjke7CxBGcmX35pmck22xwlNFJaCny+y07D6pSS7hLrvCKb8g6urohHTJavYnYhlSWcfIqabqDPUhcuDee+8tn/rUp6pdQbQVi0V3OBdOF+QtMok2IQvRI7Fdfm/fbWWPchNCGGdewiYSSV57zOFsKq3pJsInbs81PProo/W46HZkF9ddU6f0ZGh15Hry6m1ve9vgPkS5aVtjm42QWzK1ZFinTw9PkTfSchRaMniUbnUg5MDGc8s5J5lOw3329/bZ1JGe5Ezo8NMpt9z/TJLQC1FuLSSkPXTm7CHRJVNb22iS7PP05Ub4cj1SUrI8DlhEXeZvk9ZnwDjyPBLbEa3v3mJSffnFiMwBPQFACSmsGT0H0UCJiNOhWsMg5vxBqOFUxSmijnC5P44VwsuIAI6FIHzooYeqs4hQcyqsI3gxokWDLibYNyKnCyfjjIyrcOIeVQHehw4zCqOOivbviX/z3JxypfKPU515PoyeYwz53HkerZHi9MD4TKKiM3+nRnEsZmEF3jbaoTWkjDJx0bARHCvmG7VdnN+iHLHNJ4NT2XYxA8OyGg0h4g0jVcNRpwKDoi0GFnOyKR+IXojVkCU2nArmtHfefRZH34nsABrfyoHoaLE4dQ/njOMyfbBLjtnX/a4DFvOtAiIJ6Tv0T/PMOXJPZIlRQU6V9RpsV532Gqap1+9LZo6tkzaXsRTXT0qfA5DDYOWffbjMB+aTfBYrP/Lh/rnmt4DYqcB35liQe0O/j4hqjn36sBHQ+15eBDTv6eEjh4fIZ4Bu2rFjx9C2TiGORZFijuiuQeboSCFzmEYM4aMMidtHWwZHnPccZ0jbQmdMHUe+TKN3bFs8X70/gRgWfOf61F9GRyKnok712myXkZDqPo8ZI5OibaS+x7Yz6pLz4hgipzgeRDr2XpQrA1JoaraKveeUWB4UIuS+lNmc1qzn+PFetp9dQQDt+vpbvxjm/g0bhwiJUXJy8Mx7xO++9RuO2/ZM2XWnW24hi5BJLeYzJ/RClFsLBWkPzZ895OBg11Jvdcffk4j05U7sy8VzeA2j+v2kYFx5nrlsgtj2iEmVHYsNGQE9AVCZ8bK2gklE0rZrJFEFAhzJ1NnCGEPwIKwQNnE6Jb85aqaRhiKkkA65Fhn9Yj/ImjoFbcXKsnbdzJQjRlvXUSxlqgxNi2PbqKBj+7uMma5R9XEDQpz76vPlGfBdQzPeBwtGHO2npuB+6oBb1ILnyAiqxS8cqdTQ0GnWkHbfOIIqUFY8W6f/qbyM+NCg0WA52kE4uD46qnHKGG1itJ7IDeD5UZ7tlK74+1wY5/4iLN61fNlMVAXXSwQOEYL2D+81MErQZw2iwWr1Zfqe0/7iNHgcJSIQiaQhypBCKvQ/nhPygP2twhwNED9xtliMwDjaz7mqcRpJoljowoiSAUHXN4ppD7KI3IdEDbCNx2f6IceP0ZQx3yl/W5RrgKmZwjtsR/40+uTQz1PHT1Efd9nUhcOvf2P9XP7528vpxpkgn8GKv/6rcuDn39u7ljeV8nu/UxYKavTKKaTgiP2Zd2Pf+o3HbfdSYHV7conGNByr16weVLW3veoNdIPtavVWF6ITg5xnQfY4+0UZISHNNWJXIHvMe3k0TEPlb2UD7UaWHe07YqYFsX1d32v0Tr+IT9RpXIuRSE5p5RzqYmWSkUbqwEgAeE901nT4zX2NI4jc5BNnVBvNc+lEtnadnxzDCKr4XIiKrtfZ+3fepvPKQ1PHR9G3ji6fbXq040hoCj2uXH0cAT0X2IcUMV2k9ZmQn/Mht850JPRClVsLAWkPzZ89hG3OdXbJ8ySMZpG+3Mn7cq3cj+/GKHJyXDGuPE/7fLv+buXJJPlSixlJQE8Aav6yfhQSUTFA56clbX2Z21ExFQPCA0HCJwIKAYKBYr4yR14RWBhP7GNuKoQT59fAwsBBUPK3o/NiSIFMz65jccpGi+j0dB1nEshEjAzBfbLYRMy1ZM45n5NGhIYLYBuUB8/muuuuq4QBzxLDltH0mDdMo8hRco0Xn6mKJ05BdJQ1FkOJhk+rZKKCdF18riwYJxotGt5GgI1SUG1fib9NghJzdJrnauSb9zCSQjGvKRj1nnEsitXwbvMMNHhdOM7Xvva1Oi3wda97XbnmmmtqH2Tfyy67rDpARlpEAqWrT9g2iCSeM31J2SDhYnSIRpH7xv7KFEYih5BpGEPsQ1/CCeO+xGvw2LZlMB19OhhH/duCrJtL7rRkTfvbuPY/pn4zBRySsy2K93JxpshnUNvfW5iSv5DScFQC+vxuArqNarYP2r/r+0JU6hM7y8sF7xbyBSJXPY4NAkFKcas777xzSOa2DlCUMUdDEcJ4nZG0RP/xHiN7eG8lhmLOYglm016wD1NFaSOyw7yu6ki2i7aP6b8iunRVzP+uXmX90RARxjrOb8Qy54Cs8veYZkzd7fGMrMbuUucq87gO2m6UW2yfRHbUp55n/7791S4bRKxPz0ZMi4u3X1y++KUvjpRN8ditXGtlGu/+/n5u2PY8ozC1f2853NsnyvAzhfmUW2eShF6IcmuhIO2hebSHzt10nP0e2+739veuv8cd6ct1+3Ki1TPRjmh5gEnx/8eZ52mf66g+1R43sbCRBPQEwLxmwGrv7cg1iIIJRAMDxFFXp38hmFSAjqziUKE8EDr8jXOHIGLUqwqafmGiOC23nr8/+hXbMKRoprudO9vuNbXG4NA5xlgwmT9SOCUOxSQRq4O/pMn/Fo0WnzvGBMVQnL6FwUK+TAwYlBKGtYa4ERGRKDDCwnxzKh/7nYpMoyUaT8L+2T6zo/1p0U4h5FiMmt94441D51jXVJqPSrg1YKJCnhSjpUbMPP9Cjdb1WjEY4vvHNka2HA3FP7sIIdbhwDDqLWFzNEyz43lR5OYb3/jGwLHi2PQngMND9F7MJdgaSR4nTmPHceQ4cRphLVzS284ox2jw2v+P9ot0xPeEPkO/Zr2RRFEmajzzWY33vszSYSXi53DvH9cS0fa9KINjXxv7Pnf5lfVz2V1fK6cTZ5J8FlzDoS3vrNe0kAjokb93pNWIJHSVw/0pvy8XvI9G9g3aVmb6OVGFrYyNjmmUxW1qiigPBOuQJ5DJOO/YHLy7vMfmaa0ka++dloBBNvA3087RaThNpv9QvmG/ODU+Th2NNka8hna9OBoK4caFY9IGfoN8tvihMlPiqNWBXCvbIn+41hiBqY1kWo9Wr3m/WgJ6b79vxPQDEh7uCwml3u3CXDqzXU808+GenogycK6+CxgY2XfpjlOKmj5dmC+5Jc4kCb3Q5NZCQdpD82cPbTpv00iiqItEmmSkLzfal4t2QURsC4i/T0K/Gmeep+V37J/H7XuGbIHE6UES0BMAnZqK3vuOoMBJi0JZRyNOq9DYis5VnZ7Wr2LLdkQyMVKPcDKKiGq1Cp2BYOiPzLUFiTD21qxdU5POt8U/hkjB/j6si0aQ19U1MtZi3A0cohYiFOIYnBivPKOYZ0mlZLERDck4/RfD4J577hlEVbEPRvHRkM+Lc/gbiPmdYh+yIKBTmVFs0ZiPTnSrTFon2vbFbaLR5nqUYxdpMaofdBk2444Xdr9QPyPJgPGhMekz1KhU+XcZmADnh76I08W7yn5WgzefIN8hXDCaOB5GsUVW3M7K3l0GJ3/HiCCNkRj153kgwezXGlA6jWxnLtVYtdv3xZyNnjOSZIPl6LGhyEIjfjas3zAwltp7Fe93PHbEuMqqIze+sn6+3CJ3EWeDfAZeg+TU2YR96MiIAoRzpdWIfe/QylWnJcJTR1Kox/kHwTPUto68k62875L5rQOMHEH+IG9i7kJTYsScrdgx/H333XdXG8YiSvF8yBjXKz88pu2TXB51X5WVcb9IEphTEaLKY7UEtLo62jsUa+L+oo8j8dASS+05lVuew/Mgi6O9NnsRs7IKMu5ETl5LwI+yu6b27SmHV6watLOLnOg8fhmOgJ/rHKcT8yG3WpwpEnohya2FhrSH5s8ean3OaO+3960l2ScJ6cuN9uW69E+XbR1TxMTzjSvGkeeJfSU+x64gw/h8J1FmLEYkAT0BcJpmHWHs/SPSB8EE4gi2Rot5pFi3/pz1Zf2GmVHwOpWi9/fKVSvLqpUzjgPCok4P6wujQQ6f6TKIdnLklMrt/I2SvOqqq+qUz6eefqoq1de+9rXHFSsSOkMKIadmRMXYkjktIT0JSojR7QhHLGNeuFj52PthARPXidZQYFoUygflhdOuMVRJjzClL+aa1Dg34qzmf+otGkQSB/F88fw+y65nF6NO+K0r3240Wtrr7uoHk6i4cHzidTOyjWHK/ewyPn0m8blEAwHjhb6CQQQJ5LR3gONlLjGmij7wwAO1wrrGq8atxX6iETLqOQKnuHse/jZP2cMPPzxEtIAYQUd7yJFHpGaby1GnLhI88Vi1Hx85PJRf0ZF75GYkp6JB3GKSDKfpfiTL6SJyzhb5DIwePHr5VWWxwnd3dlr16YsiiY501MEXX3TxnORh+75je9xwww31XUVmYENIzHoM3jWrr/M7csf8pm5nlGGUW+hEFuQPcqkla2M6Cz75O24DWvI0ys1IzigPIjlAmzk/ckrZ4e8xV2u8L2DXrl3lrrvuqvYchP7RfhEgI9g8d9wvyi6Pr+6ucrpPHsUoxkhCYHshkwdT7cswGdw+yyiTRxLRUycfxTyTN3rVcec9EzjdcmsUzgQJPQ5ya76Q9tD82kP+Hd/bVja0MmTS7PL05bp9uXZdPHbr67fnHvc+NI48zyiSOXI8kcBut0ssbCQBPSE48OKBGYHT+xfzgmHcYBRhYDEdByHvVIqBc1eGp1MMXu7+OopoYDQ5LQdDCuFnBVRGzjC+WMcI7Bve8IbqOHE+nEX2nSrHC5qBjOqfx7xiKL04DTQaWv4dcyaeLPm42KGyETxbjWQMA6dYaQSYyw6DO8L71wp/lAvnUNFhFGloOv0vVlGOxZUs4hQLXfDdolOtAQJUjq1B3xr9rm+rJztVKJIQJ3r+bV+ZBFTHKhgFGLeMeLcFP3Q2uEe8e0yj5/kRiRfvLwtGMn0FYsTpocDK12yLQUI0jtPkhVPHNWzjuww8T5w6psMVnSIcNtYjjzSe7bfu67uBDENOkXfPY7eGjeexXTpdvA8WXwEee83qNfUdbKfHR0exJeEmwXA6tnlr/Twdhe7OJvkMTGlBbtiFgqNrR9RImCP9hqDv7V+/oax64vTkuEU2VLGis9I/H9OxsTnQ/3P1ed4v9MRP/dRPlbe97W2VHMGG+Mu//Mv6O3aF0VLqIWUP9oZFmiJRyftp5faYfzhOp9fZVz7wPRbEsfhY1EVRhsX1cTvP4fHVy1SMhzxQZ7ekVhehjAzC2UMOs+hYIossMuX+3ktloOc2z6fy+NDhGVmm7aWzSSHCXovrs4hke2t72baIVn4P1vf62P4NG4eezYnIZPrw4b5THJczgdMpt06E+SahF6LcWihIe2j+7CHWaw9FO9/riO/ypNnhEenLze3LtWRjO5gx14DGOGPceB76lgNW7TNMWbH4kQT0hIDRqHXnzBibRBJt3769GkOr+vkeRwkfBcbQi937yhQxpoxeecWVVfl8+ctfroLp1tfcWg21S7ZfUs/56le/unz1q1+tQgglYgEDjo9Rh7GG47Xtwm1Do2Keu55/etYRYj9yiuFARkOmywnpUkBnylk5G8DANEILxOrIMdJBR9QcnRjHLSnW5lhk4Xg8U/ZFuXlPdWR1ws0dxd9OXWSbWLyEPhCrKYNRgwSci3xl7P/II48Moq/83WOg5CI4D+dwuljEXA7vJJGBgGiLY9PHKsngO4h8oDhO1z3g76uvvrr8o3/0j+p9//znP1+jKDA+jBLCSKVvmfvQqDxHtlkkdOgf5h/U+I355Cz8Fd/1OAIeI3k0dJ0eS0SRlbsjIRSnnLKevoOBxYg9EQCSOFyT23lcFg13joP8irnG6/szNdP3kFNOi7R9c0VntET1OILiV+Dlpnk42+QzICITeE1nG7WPr17b/dvePceta/ViJD5OB5ABR47ORExZ2A7g/OAESUBHR7UlJJE15INkexwm5LnyhXfwM5/5zOA4AFnPe4tTJBHC+dmP9xQbBB1CJCC6LxLCypMY1ec778IxlD06zvG+qT+Bcil+StxIECMHLciIvIjkkuQRiNNkrTjPdWCHcX+QtezPej65thip6LE8tzJMsqFe85HeuVYeP6V2ydKe7D4y4xTyHJTdXY5fSwCcSI69HCK5lafzidMlt04W80lCLzS5tZCQ9tD820ORgIwkZCtHJpVQSl9utC/HexL3EfE9aM89KX1p957dY8XzOPujtn1q6jh7NQ5ytfIjsfCRBPSEYE/P+dxWZl5+hIQjXwPhE4VSmX3R7/7m3dVoYlTri1+cqX5+6623lvvvv7/cfPPNVeFt3LCxKhYEEoZbPW6ZmTqGk4cxwsgb63fs2FGPi8PEdI7bbrtteDrH1KwgioIq5gZiW47ZFmqo200dn1d1FMkzjkBxo+AByhwlECO3YiQFigPlEqfTahBiIOjoa2hYVduCTG1FXOCU3hgZ4qi6kRROa7Y4lHk5AduqxBihx+ign6FMLaSCohMaSj5fDH6rJ/v86SsS0O3Ie1df8T5MCjBcjVqp6F36lVdeOXSPorPDs/uRH/mRel95vq9//esrKYGx8l/+y3+pURg8F/oix+a4yhwWZAlFTzBIQIye0filTxgRSA7G6HRFo8P+FH8zQoT9GYlf1RRVa/ushjYj+uZqtLAGfdAoH9vlwt/mbqSQ0EBG8W9J7z6tnMmXFgloEGVSlyN2JkmVxYqFQD6Drqjis45T5PEkS18KAXgiWDmd9zfaF0QV8s7wzrVThqMDzfvzd/7O36lOlLOeeDdf8YpXlAcffLDKdeyRT3ziEwOdw/mMOFTPsI/RP0ZFo/t439lHIsX3PJLQyBJkG/YNi2Sv5ECMlrbt6stI1vjJbxb1Qo4Q/Uxb6z0qx5O5sU1RNpiChFQcHIN7xH1FbiHzaB8R4+6v3MMe4Px+Smpx35548oly+WWXzz7AYJfx7DgnhBTn7CKLusjkk5Fl8ZmfDFq9Pa6YLxJ6QcqtBYK0h86uPTTO7/OpIH2543059JsEdERLuneRzpNAQiNzfO/GheepxRU7Bv3awbe6/wQ843FCEtATgoMHDh4ndHhpEVg6Q5deeml59JFHZ0aqtm2rSglnA+fmpptuqsIHQ8RRcI6FMsCoQPmxLcoKA4nfcBLZlt/bHIl1WsVUmW2PUz51LMIUOAVXTVzf30fn61TJmnEfDeV+a7SAGAkVp//y3DAKyPUWHX+NExS9o+7AQknmHYvT7aJBYrSGx4vTZ6IjzjOwuJMjnHyn7RjwGFtEktAXGUGlDwEMW6b1xCmG0WBFOWq0SKwwGttOn2zJ567RdNs97qB/8HzJ96VBwH2+5pprajSQURWCqfA8E587fQVDB+OTaag4Wdw/+gpEhVEPGCcskCIc/+tf/3o1nM2B6JRQ/sbxgWDiWN///d9f26LTZd+LJE+M+mF/3gPkFm0yr2uE/VbjmuNYpAVDjL8lqjie23JNtDlG8XDvXvXKV80aTqXvDE4tqbIQR24UIROdR9A1VT3RhTQyR+IUb81ccvDlgveEdzDWbdAZwinB/oCwQE7ouNom3ltkzXXXXTeIjFLPoNfQH7yb2B2QrxwD8A4R/czfEqY4MkZQW6xJ55jzIuNwvnjflScSN+hJ3mHSXdBW5NaP/uiP1imnXFckfNhHJ9o0HSBOT+Y3ZS7HRMayr1PtvU8iEuISUt4HCQGOg96jPdX+6kdWoj8tEOX+nBc5RhuMtgTcM6bTcl1tbscY4c3xIwERHf92MKEd2J0Lp0JCtwN3440k5M4k0h6aX3sIGRPlQxeSSEpfrsuX473iHQDtYFBrO7d9aBL6Uy1MOWY8T/1tau4UKy0mXXYsFiQBPSGwsnN8wTEunDKF84XAZ9SRkS8UAwLGwjYsGBkIMEYwiQi47/77qhJBMdYpGitmplxsv3h7PRXH5rggKpdIAg+cl2BkR4GkARhH0/kPIek0nVMZMR93w6aNCscwcNTcAiIofAwWp+PFZ+HUXhAjr4x6iA52JM2istM4tYouji3QaHHKGLC4isYRhU/sU5yDqYxGorA/Sg6j3UIxkcDjvPRfRl2B/SKOAkd09ZtJjILGOOG9PnfjjGHIO8YzePOb3zwwbHGAuL8YG9dff311pDAmYxQgz5TnY6QEz5r9LXaiUct9dUoov2NU60zxN1PzIFSQN2zz8Y9/vEYIUcAC0ihOE+Q8Ma8pbWC/++67b+Bsxaga2yUpEyM+WM+13nHHHfWdQf4BtjVakXvl9H6NeAY46pTdQNJUQ6z3D2JsVN/zHYpT6yfJ8SL/6EuNxDsThbomAa0MPBVdejLg/YCwOG/TeVVvx74NsYzNwbsEscO7x/uvkwRpzBRS3jdkSn3PQpSUqSQA7yrH8r3iNyMGjczTObINOte862zLu42u8X2UMEIeQZrE6c3koEbP3HLLLQP5Fh34+D63xLHRiOgqB6disSf3i/srpyQMPIcyh/v2zW9+czBl1TQh/E67OKd5QrleZCRtsL0+J+Qmcn/QH/pTYyWQkHOSItNzRJnFyKQTDfa+FJLgVMjq042XI7dOFQtlpsckIe2h+bWHRCsX/Gxl4KSSSenLHe/LWVQ+oou89hyTZE8Dn8+48Dxr16wdDDicCibtuS9WJAE9IRjKQ9rPxYiQR8Az8o5TgWBCyTCdAmGDcYPQQtDgfLzm1a+p+RwRCgCho3BhelWcVgEQgAqSIaes79TECJuhiJnSHKdRLBYk6MKJSMWuv8cJrdGCQkEpaZw6XQsD2il/IBosGMdxSp3GiYYFzi1TbDCM4zTBaJRo2LZKKOaN08DRIOJc5hLDkaZPogh1ollPv5SU0Gi3/XyP1aM1Zq32ezJo+0m7blyB03PRtosGf3OfecaMkONg0R8gKDBI6Cc4QDhFV1xxxcC4BRoyEhvsh1yJkT2s81myH8+S54shynHN7WoEh5E4kEDkJCTfovnoMMjtQ/xttKL588xdF3PgRUM8EjtOtee6KmnWM44xePnOO8Qn7wwDX1yPUxo5Hu0YVG2enu07OrERXfIIRBk5zqCIF7lHXy6RsxBI6EFe2CfOTF7YufBy+858RN/Tpl07d1WZba4/9TpkBJF8vKsUqLGgIO8XBDTvOe8UOoDoHN59orl8V71e3j3WR91vZBhyjW2dHmykllFX/M35ebd5pyVr1ZHIHJw1pzYbkcPvX/jCF6q8wpGjrUDddrQpYBgjqjkHx5Z8Vu/G6ccxyifqyfh3JNK5VkgwbDnkJw4jepp2c/9YjICi7RJdyk9lsgXY9BOnOyKgsftG6cauAY3Yr06XfDsb5PPpklsni/kknxeS3FqISHvozNlDopUVYFL8ti6kL9fty0XEwYquvjFp/WfceJ7Va1Z3DmS328d+OSl+1DggCegJQZ2aMT09NALlNC/zezEiiQHldAq2pXKxI1IoFP4NRqj6aCNG44jWzA+zI1+DdVNlWDiVMGoWRsEUou6nkCFBfXteobJqBVTb3nHEYAS0D0etMQg1DK1+HHPGYbC4xIJMoI0aQ8mZnwyjE0PU7dopgW1ey2icx1xyoI0Es7gFx9dg4Zjm8WyNFpZotNl+CehorNimroizlxKRtdhRZxOE/GA+O+49948ocgtccU949kTV4CA5pc4pePG50hfob+YIMwoR8gnDhr70la98pTpZnMsojnbqFcdiW0bscbw4J+2x+I3RhxjjnNMph+aN5e8YNWIkYYz6MbKH81A0w1yInsepi57PauASORhsA8JmasbQpyCIbQCj+lMknMbdUK4FsLb07gWFip4sLwtnm4Q+tlkiZ2dZCKDfLO3L4+N+W3dO5/btsmb38+XIaSxO9r3Hv1du7f2bVf19udxrD/qJdwNZwFRv3jmne/Le0R7eMUgUpn9CuPA37ykygu/qMh0VnWUJmP+9vTcBl6yqzoZX9b2353mGBnpupgYaEKQZZFZxCCQRQRxAifoZPzTmSSL+GX6eDL/kzxP5NUaTLxqNCmpEBWcFmWWSeZAmdDfd0PM8D3eqv95d9Z67zqp9TlV339u37q313q4+VWfYZ59pnbXe/e61oeJj3lS+40iWMJUHtoENAuFCdTICNezHBu98PmEzECT/+Mc/DuVD0c0Blkje6MELmTMV5BFsHdbjSO/4kDCwvgvfp/xYMprLSRTjfY/cjbCxJLj4nsbx8BipYkTdqHALaUyMUp0KaL4fcG2wPm0176N6oG0bSFDca/reqwWQv2379x3QNr2F3rRbtdDXyudGs1uNBveHDo8/ZJHnAzUbqeSxXH4sF7sfdOzfDISzBRvmBxvPY+Nz21hl4yddT0fjwgnoJgGdhDD6ccUIHHfscWFwCBgjPPdB2VL6o1ECEoMgkZYntmwn9sd0tSj2zEsZg0KPAWKuHx2cprpiqBZ0bEOnqLWtNdrqlWd0msEgQTWhgeuN7llUYjAwh/OLKYJROpZcznV1Ny3Op2NBpwX3DJwgtqhzPU45j92d2QIO6NQDAMrmYBh0flAvBMnYB50VjobMln0G3/iAbNDAPLx4Y4i91OwLrFmcGJ3OJpBYKucfnBqcc94fdCCRnw3bwRFmsKXVeVTt4JoifyHTUcAJwrWESu+BBx4ITjDvD0I7OzavGO9b5o7FtlBMoh5UfHBb3kf4UJGhr7ENurAM5VAlxA/XpWPP88RupyDIkBst2DzUuaUn/zi3j6kA8jBY772WV1+RrrnzpPOkRdKyfKkcKvqThO6aMy9MC3saZ1CvIXszCOhRo+Pz1T3WFypoECQMRDS5ia6cJJwB2AX8htIOimYSyXhX4V2DcphbEs84SWcOFIhn2A78h+cTzyaJYdo0AF3moWgEsQ0iGVMQP6gPG+wBa3/0c8t3D+zgM888E9SCOA7sg/kwmf4CZWA9fGhDABIFJKFJzvBY9DWhndJkNMpFfVFvlB18vMp7Gt+ZWxp2Sg82RZUk52F95qNOgdeuAlwbrYjOIgI4rRUQ8lrlrZOsO7pMQNvtD4ed7G27lYXDkXajEe1WI8H9ob73hyxivpGd1wy+OOGxXH4sV28jhW60GezAOR+sPI+uV4yUJprVXgxEOAHdJKBhgrFPHtAhPQbGQrd+JQ+8VAcS6H6hDYht2dLJ8FXhPcah2GOMuKyjs6waYOs7Xk5oVcdv3c3HtnLqYCepX5MZIbzcNRjU4/zBSYYDjZc4gnw40lRFsPUcH6zD86adAgDODBweLEOZs2bNCuoIXCc9wjKA7RgMayfABoxYhvsS2+Ja68FQEOzCUWG3RQ76hCkHQ0FZdIQ5SAedXKZrISEQe1Fp6MaMrHUGIziAlz7uYUPL+dpwzalY0IoInFM6t1TqaBUilS4kaEDw4H5gvjB2hY+RO3SOdVdR1osOMNdhblNcZ02wENqB5v3I+VymiR469lQUsg6AzptH8gsBGgIuDLwT6iU9ih/c13heYLssEZN3/w1mkLwhCdIb6C8SumvO/DBtfe4ZaQTwnXqg0MrhoSBMR4+W3kIgc6huUQEIiVGqgPHsws7QR8GHqisESzqlBrt3YxsdKOvu5LRFIJWhTAT5AXvB9F0IgpH6A0E9gn28TzRZA2iyJxbs6ueVqkGmumBuSxwDAnydk5rvItZZq9V0nkzd9VnP47r6uqHuKId20xJG9Jv0Oqw/04PgHEOdiWA1UT9VDpuEOOwZiTjCKpDsueE6mgTonnZEIJN1g0EtFEeNKd2f+1LHzbL72m72hd2yOFw5nxvNbjUa3B/qe3/IQtsMJ448ljuQWE7vP++dM9gxGHge3Au8l2shRj478Txw4AR0EwGOwdgxY3tas5SyxbZChXk0RnyWdYuWgv2dh8TB6C4mQScNEFpwMUU9MV87I7bVPNaKrsln/aK0AdFgNk4k6amiwhRKC45oqx0QqhoAvUwHxgzkGYhTBYLveFEgiEe3aA50QOcB64T7reQgceATOrYErwlz0+E31WLsXs0u2lgGh4zBN7sq40WrHSosA+HAAVNQJ6yjuwznNVgQhSZTXoR8a8V0Fyp0M92ydUu4DrpruD7fHLSL5Ae2wbp0PBmg4NyjOygUh3CYcR1xrbEu1Ro8x1ptxGvKjyYq9LVjwEVSS4PqPqyvyR0GW/a+5Dac8v7XjjyfHW6PY0s5c0PK52n4sOGB+GK3SQ17PpsFJHI6TzpVehP9QUJDDQn0pSKyXiTvuQxVY3F0tgJak52t+/ZKcWTvEdDM5Rizo7TLsNF4hqGa4zPMOtEeUHWIeXj3MEgmCaNTb2jyFT4FlMl4V6EOsFEM5mkP6HPwfOhzk/d86ueXpA7nod4MrFEn2ie+Cy20PUG9qNS2dckiigB2+ae9ot3T4HLWFSBBhvqChEBuW90lNpBIighAgwD8NUvOa5/LIhYctu3bl1qupzEEBfS+dAqOw+XT9ZXdIg7ngIONZLcaEe4P9a0/pAlofR5jdqNZCSWP5eKxHAlozVMAsXuoGQnJgcDzIJUMbKTmebidLoOw168eW9GMNmOgwQnoJgJal2DMdc4djVSwFXt2s1rQtAHRrVwlYDRkGh8O7oN6YB4MED5spdQvR00a6+9ZiK3DbbVSphmAlztf2gCCenbdwrnAC4B5t/SoxQAdDDosfNHrLl3s6gynBdcUDjQCUo6yjQ8cBbwIsS0HjuD1gAOhu3FhHvPH8T7RDhQdFahGtOPP3Hb8TsceyjMeP9dF6zvKjpHK2nGJ3SfNcO+wy6l+dkeNHpUoJHidbNdrqul4XW0uVgZc+I6gBE4o1IBwdnGN2HUV1wbKCD3YDp1gqnp4nTXRw/oweNOKHt39FR8s531iCZyY02IdePymUpEOP8kvkDYp+1Rx8FpaW8KxhsG9CunULhp5999gQ+vzz4RBvJADFrlIh2zovYGwDicJHepf+uBYcEz9Dd47Q3YfWAoObstnYdT2bbJl2hHSW4DyF34AVXABlaBo/LjxIaBmgMr3jw0wtC3AFO8WHm/IWVghUrTdIdmL39gHnlG8i2in2G05qVIk+KGNYRBNRZgm7PU7iuSOVgXS1uD4+O4kYU5SgMfI78zrydyt9jqRfLL2QhOy1ofSoB3kR+d9XfrKUjnvvPN6yCOlkKJ/h/d77LxlEdIW4bqUnv2Rm9anbHAtwoANI/r8Hy70pd06nORzo9mtRoT7Q33rD+HY+KznNczH/PVmgsdy1bEcBybW77/Y/dGs91Aj8jxMS8R7QftXeqrrqHufZV07bSvsOs1qMwYSnIBuIuBlFe0qYVHUX1VLWEHEJpHnd7R07W/fn2rloqKZ6hq2lHMbHXAxF1lW3WyQQ2Om52UFY9y+WYwRgm3ttGBwJ30u+JLQrdi2ax+dFgby2iGlw8nuz3Be0DKPvHYoF060JtuwDNuAiMB85ixj90A6KVgHLy3UnwNS8QXG6w2HBOVzsAWOrAwnCfMB3XWN9YDjhNZ0ot5uWc1y34TntEIS8Zmno4rnmHk/9fngfcDueTqQ0Woa3kOYYtAcXKvFixcnAQyuNZ5/BCZwTDmAjr4nrTPNfbCLPu8HgPvSwR9AO6QJFx2QEdah0R+tENINXLgvcZ9C4QNw4CLYRfs8cB+xe7BZnKi2Rx4MpEv7JW+V4bd9XXoTh4uE7jjr3DDFsTQKeJ+2btoonZOnVC23xJm+t2mDWzHIWy+m4EgGpSrZEAYu9B/GjS8P5oXnEGpBgESK7gKO3wyGSfIyqEFAijJInDCAJbmLD55NPKOwNSB4SL7w2aKyWj+T3JYEkFaMaRVicm4r2+v3JQNq7H905ZwyF6a2KQD3w4De2gdLEsXsh35P08bwGHSwrwc14z5ZPlIDpMoUlY6k8p1pA2L710Gl/m0JZpCgo5a/nCLU9TFEyy+dw5Gb1qXOQb3v8t5AX9itw0k+A41otxoN7g/1rT/EcrU94LwYmjGOAzyWqx3LxdBs94lGf/M8bNwKRVWug+5xZf2DzOoVi9Hvsd9ZaOb7YCDACegmAvMbMil8AtU9Q7dw9SxOVgh5e/CSwssERgcfGCPm7aEDo50zBkBaLWANQ1brFpfFWsgsqZNVVrMZIZs7jA6MdlC00kGfW+2c2m7CJCn0OpgHJwMt53AaONARHHAsw3d03WJuONwvcN4RyCPPXnhZqsAYXXPg/KClH+tRJY864ze6RmIbrQDhlN154BwRvOc4enI9yAqYBzNw7sJ1nDgpmUenEQ4irzFVC3Q2NEHDRqYuM2CJDkywzv333x+uMZ0UOJy4R/HBtYZ6Zvny5cl9RvIHZej875wPMIAiSaQVfqyTVhNREWKDLYDHFLvmPCbed5wHZxr3PgMu1hvrThg/IVmP5etus1kt+HqbwQYQKyBe9l9xZa8T0Cwf6EsSev/lV/ZaWb2J8r2VoSAFCbohvk2igN6xLail8YFK8lCBexgDCi1YsCCZR/8CNh1EC2y6VgyGdSLvdzxTbKxmGg4Q0CSEaB9IjNDGsFs4bM0xxxwTVF54R+E9Q/U1SFXYOpI+2m/hh3bHKh+xT1t3/TyjXG6DfTF9hVb+0ubQrlllsD4uTdjmnXddP22rdTdtgjbp9VWv8yKl8kDzXAIgIniceQ1mMdsaMLqspGvbtzeqvMwCSOuRy5akzl1sP32F3rZbh5t8BhrVbjUS3B/qQV/7Q3o/WQrJZiWRPJaLx3IaMb85qyGjGWK5vuJ5cM1xvWg7AN0jDNB+EWB9DHt/2kbq2HpJ/TKuW70ktqPx4AR0EwFGRBuZquBB5Ttr72gPxgYvIXzwIsSUxkcHTRr2d9aLwEIHYBa6DC7Xhi3mNOl17XeWOViNk3Va0AIN6EDZBr/6XFpVkb6mXEZngfcCXnpwjjD4CMAXE5wQrQCho4xgH3k5MR8BObZnN7KlS5eGfcyePTs445iPlx8cIbay09nWefCwLbtxEXSI4LRYpYU+7lirbLM5v3Ai4Xwmg04NaUlUNcwPSucvlsMP9wkdFEDfS1opg+nrr7+ejP7O7uZwbnXXeBI9HNSEYNCk94P9oxxcf+aIo0qIwRUbyKxqKA+2EUITQVQbAbCtuNdBbIVzogbemTR5UtQR0/eatmGx+3Swgd3ZQXIiH2lfdAXvSxIaCkiQYUPWr2uobuy8P4e9tkI6J0+tWo4627yv+jnFZ/i2rZnrHizWrV0nxy44NtVtE+CzjTrgGdVdxrVqJtRH9aAiucyu31otzeMh2cNtYB+ee+65YMMuvvjioN7CBzYP6+L9hbKwHF3E2e2YpLfuCg+wOzzVZbQpfAeRJOK+u1W3ddZV2wH9zqWtZCCu7aheLyvwtu8ufV54bnXXeb0O3gM4lmDfVPGJqqn0h9y1OoCM7d/aTf29szKQ39gN66qI9iybh/sRGLl9W4q0PpzoTbvVH+Rzo9qtRoT7Q9XoTX+Idj/vmbf7rjeeHCzwWC4ey2X5yva912wxHIDr1Bs8j+4VFSOa9bm1HI31QyyynuV6bQHX5T5ijdfNdM0HKpyAbiLQGaKCiI4IWzMxRYsjB87RDok27rHfGtb46/lZ82KBSta2dh091S9iu21WvQYbdKsxgK7NePnjpc6gUQfseqTjWEBpiX4qN3CP4GWH7dlyzu7F7NKFew6KMpTBQSbgWKB7FrZndyuWx5Z25DlDmXBc4Kzg/uQgL3Ba4ITMmDEj5M/DB44ZnKbRpus46z5t6rTEacoKku2xD3YS0AKqlQSVRwTXhqNZ41oy1yq7kBN0SODA6JyEvGe4riVPUM7KlSuDIgKfl19+OVx7rMeASdsq7ovOsyZP6Nji/kK5msyiGkl3b7d2QiNvuXbKtC1BwDpz5sye+6ky+jTVgrYM/Z33pSVUBvN9N+yO78m+934wfEbf+EnpC2SR0Hs/csMhkTz7rvlgmA6/7WvSKNDP2pA98TzQSMGRtS2DjnEbyoMGdpVIwt4ioFevWd0zAI70dO2kKg82H+8tnWdZN0jr551KZw5ciHcOuyGzbAbWNvUE7MCDDz4Ytlm4cGHwdRh44z2J9wqIHxBB7N0Fu6KViwy8tR0CNBHN9xzrw/pplaJ9F9Fu6K76PA+oI21Ynm2yflnMj9L7sN21AdhOEGJzZs9JDULI8rH9EdOPCPUhSWB9sTz/MKxfyeUMBXRnV3rgs0ybXLl3R2zfmqyfZ8P7Cr1lt/Zdc13VvL4kn8v7bDy71ahwf6gHfeEP2diP50j3DrOxSLMBcZKGx3LlWK5YrN0YoZ83ohniOPZGr4fn0Y1QbDSz51b3fIrFyPY65F2XGI/D73qdrOXWfta6ns0Suw9UOAHdRMDL5KmnnkpaHmGA+CLjQ8rAKhaYANpR4O96DE6W41JrfhYpaB23WKBF2ABpsBsl22qOVmnttFCZpZVjgDbu+roWjNqBObswHwE6nCKWjX3BkcGLDs4IXnBYn+XDYcHLj04NW95tdxx2QYZqAg7JvHnzQks7nBU45hxRuR6gPDi9WkFnl1s040sLTiKJIU5xDTGAHoBrRiUNrx8/vIZQDhLWNthGJq5DogdTKCmovsOH9wH3x1ywJIH0yNns5s5upwy4UDfdpR2ItZizPvqZyHKQdJBE4LnT97DuMkiFhz0XWd+bwXEaduftoSs7lITIS9r26EPSF4iR0IVdB59aQqsIG60bO5+v1o0bostjBLQmbDEdUVFAd82eJ70F2pDymDjp+5tECJ5T2CA8K3xHkTjW7xzAKpHt8xkjofnMI5D+6U9/Kr/97W/DuwTvK7zDUA4Ue/ggAEZ9EFyjGzFyTvL86EEGaVMYxLE+fNfoY0Tgh/1ge9gwEtW6Gz+PkWQ5SSWtWsyyCzxftZSF+tzo88xtwgBo6zfInDlzpFDsyQsZ0nAMaSkRxp1BxagVj7YO1v+y6JpbvrfGrFsjm2qk4GAqGA6i2Yq0Hep+PewEdC/ZLZtnva/J50a2W40I94f63h+y++R6NmVEjExsBngslwZjOb67Yu85e4/mNcgORmTxPPqZsjyPTY9qYe+hetfld94TnBfzTex2dj37/Ov7mHWp5Xc4GgtOQDcR8KCiRV0/mDbHIWENjn2B6alFFmnM77HtsgxSXjl2vaxPzIEazAQPR/Am8KJGQA1ngS9uQAeszAsJ8JzRwQXorLIrcSA5Ki3kGNSJXRKxHzjo+A1HiecYUzjSusUc28P5gNNz/PHHh21RFnKGoQUeLeD1OiZ5CE760Lakdd4i5gTHHO3BjhAwSPq5xPXR9wUdGX2PsBUdDixULxq8h3h/WWcQH9xTyAeHKcpCoISgigN+UVEBaBUQPsz9qtU83B8HDeIAY/raW0dF36ecx6COx6jB50Efz7Kly1Jd3riMA6ro/el91OPEDUaAVBp+69eCGhkfdm/vC5BwgQIQxM/BKgBB4DS6ijCo5bII6OlxAprPM3s+jdyxTTqmT5feAtSEzEmoCR2AQRBsPZ5RBL1QIPPZ4yBHGnw2SLaCINbPCZ9N3X1Uk5woEzmhYWvwntHloR4IjmHP8K6CzcN3Hezr73xHajJI15FTBuoAbALelzqfq05vphXQ/K5tUC2bECMg7Pnhx3avRdC6rkRSsrGgvDD9XmxrbQvvbVwrfYyxd2ls/2jcGL9xXeqes/4eAaVw+6WXJY1Gu8eMk/3TjpDukp/RH7axt+zWiP/zL4k9wve+JIUHgt1qNLg/dPj8odj+LFgHHc8NdtjB9jyWS8dyWWSzbsjQ9R7McT9BngfQMYbleWLEvCWOCbuuJfxj59Sedz2P3+0yNrjrbbVfkDU/b56jceEEdBPjYAgOa3zyts0zBLUMR2ydPGJbv3CtkYrtfzBDd8Eh4BCgKxQdRzqpdOgYBNuuzjp4104nnGuqMuiUYh66UEFBBgeJ5cApQbdmLDvqqKNC6zecE0zhSMC56UvwhQtSwxIVsUaWZn1phXOjulzjOwIapi7h/aIDATifHN0aA41BNWShnR/mKuR3fBBg4d6BQ8mciizbkjFUR8L55Tw9qJZ2YgDcn8yZSNUN72MqEAnaGHxwv6L7KBxoKBefffbZMNXr4qO74q98bWVlYc+xY9mwocOCcw4lSb1oBkcZgJqwY/F5QU2ILu0gYvoKIHgOleQBidPoKkLcN8NfekGm33+3TGzfJ6+86RIp/s9LMvJzN2cSZVrJi+djyusr5fXZ86W3gEbR7mJ3kgeU9gVTPJ9aVYznDO8FfEjy8FnXQQ+3AWGK941+31ull1XRaH8Cy/FsgvRBoIz3F+wRyFWkogh1704P6KSJGNopgHaH8zX5wm76+I5jQ72pamSdqaS271vuIyvA0u8u+7FgHbgPbdO5DY6b10eD3eixDMcQ8k0Wa3eHrqoDBhPcsb2uQRW75s5PBsUEfvuH7w3Tqf/fZ6XwwL39Yid7w271hj2qFwPBbjUa3B/qO38ItmOX6YWkbZCe14wxHOGxXBo6lmOKnFgjp26oaBZf2sL2hLIoRkh7/czH1rW/s8rPaySKlaXn5TW0W57H+jnNHsMPNDgB3YTIM0hZAYttQc1qKdPz8oKfomkds0EhlwF6eaye9jcdryyjab8PRsDxhbNIwGHQ55atw3ReMF8HwrGgmNBEBZfTAcF+FixYELZHdys4MOw2drDQA1UcDHh/oi5aUWAdF/3ybcYXGEZbBxKlYrGQGm2d90tYRwVcCLZARCxbtixTYa4DJd01FMC9gXuEZZFwsgQP9skur5b0sYQK72sO2kN1JRVLWvEIhxr3F/OjoS5veMMb5KSTTgoBIOoLh/z555+vsjM67yFIm10lgg9BariPpCc4xbNIAjpGDlkSqJmAruc7/+Wrsv/yd8mQDWtl2B23SyMC3e7RjR0kbl/lrD5UJITDhnVy5O23ltVSc+bLuqlHhHlZ2wB81kIe6I3rZOWJpyTpDw4VIBvwHGn1G+0MVYU6YMSzwucKz55OT0G7wHVRbhhgOed9T2jfQPsweO6h9sI7AjYKgf+SJUtC+g0OsKUHIaStsXaR5x9TbsP5VHHT9unu8TwOTR7pnNZ5CmEbfFn/J8vXy/KTAA5AxXQpyUBsigiBso0pBrLKIVJ+XemeQn7xyff9MlFz5qXT6JoTTwXTWtp3Zz/aSrdbgxvuD/WtPwQbW6uRrB6bPtjhsVwPdCyXytEuUkU+ZzWKNouPHXv/Z/Eidp16y8oifPN4pNi+YnxOLD7P4nn4aabeEYMBTkA3OeyDrufFvgPWgMeMj11eiCh07PZ2WVYrZmyaNa9ZHRjrtOjvujGB0K3peLlzkBWtpADg7MIZ4UARRx55pBx99NGJ03KowL7guKJslIcg4K677grO8pVXXhla4A8UvPeoqCNiJGDW/dEMTguUfu3722XosKFJ7k90tSZ5opWEAKYIYHCfgIhAl/YswGmFuhDb6IFvsC0DLdyD3A8dY+Y91Woh5pkDEMDBmWX3dp0nlXYHy6nu4D5QNn7juTjrrLPCfYURux955JFE7YNcc6gzgrC5c+eGbm06Bx6g1QLosovAc3RFqQfyhvvEM4V8jhrNSDbHAFVe0qX9wzdI63PP9Nrgd70FkGB7P/y/w3fUNYvMbQTQESdZMXLbVumee2wumaxJT2wzdl2ZfOk8eZG0PXLoubnx3IDgDYNSqVHY8Q/PmFYMA1QRcoBC/T7HOpqIQTfgXTVyeuu8olGSs7QM+wNQHmwh7BlJFRJGJFjs4D2aeKHNsd1ddaDPdB0cjIl2kQS0DqjqCa643AbdWQGi3obraXsEe07iOdm2qAjo0nco31566aWqsnVjmt5Xcq5LzxJ+4x5jg0fMV0vWHTVaYmh9dam092PA6XZrcMP9ob7zhxAvrFixouq81GqIb0afyWO5HuhYThOTXKa/63nua8d5GP2sZTVU55HTMe7FLtflZHE/sfX5Xaue9VTfy1n+g6Ox4QR0EyOLGNYPeFYrIrepZ5511GJ1sPvOKq9YjJPQdl6eoWuGl5EdvAJOhr6uevAhgA4ou+RB7YApnAQ4nnB64KCwS2AeoI6AkwqFVBagRMb+4CChPt/5zneC0435UFvcc889cu211wYHePHixXL//fcf9DWjgwZHGtD3vR28g6jVyDIYgeu9YeOG0LWO3a/R5Rr3CgIN3c2P5AWuGe41BBMkcDSwPoIiBjwMgLA9FTAkcrQjrckwS5LoLqgA8yBaB0crgAA4vgzW8MF2xx13nJx44onhPqdKGQ4/VUIkkZjHTueitc4uysS5gHIk5D6UnsE9QNbYeypG1HB+szlT6NIOognd2Xfd/Pmg1GsUMgckDuoEgMRBXRsVmqwkuTf59RWy9PSzQhf8rHOKbfhc4RkZt35tmN+5sHcIaDw3IHRmzZzVk1dYelJp4MP8x6wP3iF2XAraCa0+BtFjbQ9tvCaBNUmsy+M+sT+oqvD+Ql1RH9gu5k+lDeuu5E8lsaO7N+tymbuVJA2vCdVfJLapYNQ5GjVZHvOLYoF1LPjW0CkD+JvHoOfjN44fKUngN5CIRrtBcj1K36dNnZb4DXY/MTtHdC48JfweW7rHtisFdNR3nBrPQz5iyYu5Cu7DBbdbgxfuDx0efyimdNTnq9nJQ4/leqBjOU2i5nERfEab9T6yBL31KXgOtV3R2+ZxMnnnXZddi9+Jzc/yb/TyvPd/M9uMgQInoJsYBaNy1g9sFvlcj8GJLc8ydrFtsso7kO9Zhq1ZYJ0WvLA5ejIVFDNmzAiOIJwSOCdwSup1TPKAbstwTDnAE4CAFq3fl19+uTzzzDOBNIBz+853vjPUCTm9LrroIvniF78oF114kdz27duCQ446f/vb35YPfOADgRzAegcKOmc8rth9rR24LOV9MwCD5kAFEZ7ZClGEgAlOKM8DB8eBo4vgBF1Nke/QnifcYwy2cD61moeBFqC706OLHwfn0kGVJk9091fcY7hH2GVfkxJYD4Eic6/yuyaOoPbAvY/7CvU8//zz5Xe/+13V4D54fo455pigjmR9uS/dzV53C0y6r5cwdcrUKgIodl81c7A1/Lavl0jSI0J38UYhc0jigGQaevfPQx0bHSRDGICOWV9RM5+0KPd8apWd7NopU0rE9da5vZMHGs/exg0bUzlVWdfWltaqQIPPis1nyQ9sCeoJuwSVlVbJaPvO540kqVWLcTmJFeS7xAflWpKIZI8+tyQAmJqD6wGwTbRnPL86DQnKB5h3k4OM0cbp6xKzC5ynu14DJLVhF/HB/nVKEw3aN0t8gzzYvm17iuxgF3rk8UY+7+lHTI/6jlZVpa9rsMul+3DyqhVBjc8UHJa0JrBuDENXvtow3W3dbg1euD/Ut/6QHnCMiPnhzQyP5XqgYznrR1tBhzde9CD2HrYELlP31MPn2GWWaLbrx+bHyrDfY71MiBiHZP0/R2PDCegmRixYyzIUXL/W75jTkGWo+DuLQOYLxHbByCo3r27NBjv4CZyH97///cF5QVAJR7O3DDWuz3PPPRdyvc2fPz+U/aUvfUkWLVoUHOd3vetd8stf/lLe8Y53hOAb+SUvu+wyefrpp0MX3oUnLgwOPQdH6ezqDE4UWt+hxsCAGw899FBoPT8Y8DjRQl/vC6rWszBYAecynCM1+BScTwQamhiCU4rulVDJoWu9feZ1ftNwTSuD86AMKh71OaYyaOHChaEOK1euDPOpsNH71vtijkXbmMZ14BCTMKJqkctIHAGY4v7Fs4FjRZ31KNvMiYduqezurx1fgt1KOWgRB12bMHFCLvGcBX2/NsO9iLyqAMgc5Fcd8R//0m+5VZE7ld3XQeKMvOVmGQjQBHRQM2/ZLG3792Xm0tXb8DkNeaA3rJNNxy3slTzQKH9zqR46/Qa/4zmEjdHPlU4JApD8JdHD3KgIZEH2cLvYMWkVNPalB/BinmaSzZhiH3gXMTUGbQZTRWgCms+nzulK4NzjXGo7p9WSelAoEjxUU5NU4j71+BtWFa7tEPYPGzZr1qxAEKFOINQff/zxQKZpe6vPkVUx4328ZeuWxI4RzIeLWRMnTEzUm1kktEai0Ft4iox7+vHk/GibbNGV0QAydOXy5B5pBLjdGpxwf6hv/SG9jbUf1q40K5kI+63hsVw5ltMD6LLuedtl8QiDFfY9b+8R7R/x94HwKLbRP0Y0Wz6nXs7Gftd2TB9HrPGqGW3EQIUT0I5UcMSH2wY5ecYjRipnrRf7rn/bFq6YI1JPHez8rH0MVlgCGs7Dwb70rWOJVu/f/va3cuGFF8q8efPk5z//eXBUli9fHhwXOEYnnHCCXHXVVfKVr3wlbI8Am+VA1YH6wZFC6/7YcWMTlRha8OGcoysgnBi06v/xH/9xuBcOJS8Z6o56xYJtLue0liM8mIHrokkGBA1jRo8JCgcEL+yyid9QycHZpAqQhIDOb8ou6+yGzlb2mDoH9wDuIRAnyBvHefr8a/KHyj8qCQmqgni9tFqR+6QqUudcxXcEfbg/cXwkxvDBvqDY0KO3a8eI9ePgXeVTWO6yC6BMlG0JKV1nG2xx2mwOFcicIevXhm7tyK3aNXv+Yc1fyi71GFwMwL4HmoJQq5lx709+faWsP+nUzPV5P5KYwH06femSkLoDxHXr88/IoSKo4Sp2hYQObQ2eKxLDfM4t9CCJzLWKvOrWRth3vh70D88ynkOrXMb6eN+gHpqIp82zpLhW7HJ9lAM7R1KWaTjCcRr7pZ93TWJrAlp3j+exsCzYE66H4J5lwm6eeuqpcuyxx4Z3KXNb41juvffe8N0GojwXJOp5bDi3Zy8+O9ln5YIl6wwbPiy87+35F3VP2X2F9Bul6fRXXkrUz1k5oPEcZimg21a8Kl0NZhfdbg0+uD/Ud/6QHTxR19eimYklq4D2WK4nluO7lvPt92aK3Woh5iPV6umbx7nwd4z/sTFOHkeUV77dT8xPcAxcOAHd5NCGwSp1slQsMSI5zzhEg4vIiyJWLxt8Zb1Q8l4yzWiwoJo4GMBhQJdmdN+CownSAE4JHGu0fsMpwejX7373u+XWW28NTgv2dckll4RrQKeS1w1dpeCow6mBQgSt4WeccYbceeedwSl5+9vfHhyqCy64IKx/9dVXhzIwyAnBIP5QwMAeDnUs36R1zJoVoeGiEmwBDBow4AyfU5xHOJkgPqh0QEDFQcSoLGQgxJx0mtywwRYVP9g/ApvZs2eXgz9DzDJoio3+TiKIOVZ1l1a9Pw0qLLk9fjMfLQJKONi4Z0lQ4TcRK48Blw7E8ME9nGVL9Xp6fjMDxAlUtyBUoCoEETX8tq/J0Lt/IX2JjrPODYOKIV8y9j9Qc6dqMhmfqatWyNoL3pKrZrbbjF27WtpAspTOSW8R0IlfUSF1wv1fLD9btiu3BrYhYYkp7A+UYXjeaimbYHcQ8GIfWAfPsM65rHOh0lZoda62V3ZQLxJIOn821YzYDwJlBOYkiGEn2fVel8u64LtWaVMJrcUBCPYXLFgQ1G94L8M2452N5QjykTIAhBXeuRxkDIOIoT6xXNlZv5FKIFymYnVKEwDns2VIS7KdtV/WvuF7+0VvCWVOeu1V2VRJo5KlgM5S7Ldt2lAioJdJR4OonzXcbg0uuD/Ut/5Qls3W69r1ssZtGazwWC4NxnLYJ+9p/a4hdMMOodcZ7D52LJalAEs/q5rrySOT+ZuIzYv91vu228X2qcupxfU00/UcjHACuklhH1xtCNhqbw263V5P85Znkcy1yslyMnRZ+hh0Gc1OJEKVQOcxBozSjRf4y0telu07tsuZZ54ZguUf/vCHwcH4xS9+If/rf/2v0EIOh6LYXZQnnnhCzj333HCe4Xwwlx3WR3n4jenJJ5+cOL1wnOGMoysh5yFwvv7661Ndo6HyAKx6o7dAogDOPBUF+h6yLzHr+DbLyw3dtJMe1xWCCN3doICB04nrAzIH9xWCDwxOwm7eDFh0V04GW/ytSSZ9frENHGJMce/OmjUrfFAfdv3U10QHa0DsOukgy9oM3otwxqnCo+2jChJBJeqCQJCqSdSRji9JK3a/xzwGC4nCs1JnnDc8M3g+NKyD5eRzD0CgtD36kOz67OcDsbLnU5+Rfdd8sE8IHRBFII2ouGx97unQdf1wqRd7GzptBAjIiSuXh/kdi8/NPHckM7gN8kCP37hONi8+T0b8xxflUAECBQEsnq9iWU6YPCd4h7D7OOtBNR5AFR/eJSB68Fwi9yRIkTww7yr2yeCXZDfLJCHMqT4fhCaYSUDrQI7njdtQ5cjBygj6Q5bo4fHymGMCAJI+6A59+umnB4UZysf017/+dXivYTmVicwpjbKwDshp2OmYX2eJYl6vMF8KyRQgIQWbNn7CeNlZuk90GXmkUueJJ8uRy14O5xp1pw2NbQNSNYahr63IzRvd33C7NXjg/lDf+UOwU9of0g1YWWjGuM5juTQYy6HeVh0OxEjoPC5jsCJG3ALkd3Sjtj4/1l/JKzMvPrZkdRbBrW2RvU5ZRLMt2zEw4QS0I8A+6Drwq7UNoI2aXSevhSovWMkrI0ae11NuswDHj9xtcCgslixZEvJ1rV6zWubMniPHH3+83H333fL7v//7wXG+8sorQ/AJBxtBOwJ+jAS+6TdlBQScECgbeI7f9KY3yR133BGcErSCA8gRBqCFPHYP0YE5XGAdcD60okDfO1mKC7veYAbyF+qBwvCHUbMRaOB+YoCDZx3zoIqA8wuAVEAAw8Yr3CcMbmhTNGmgnSAGcrjfUAYCPOQYhJoPeQR1l3mqg3itcE9aJ1N3Xdf7xHLUm/tHHXWeWdQDx4R6YD7uFQQAzA3LLqgAy2RggO2ZCxLOMUkbHiede12XWvdUs9uxIevXydgPXRXUhCBxNKEz7Effk7aHHzposqV76nRpv/Sy0GUdymBgMKkHtZp5HNTM+/cFoiqPBCORSqXuEUuXyMYLy0rOQ1VB47nAcx1Uc5Xu7ACmJIU1saj9CZI5qBfsEOwU8qLmKeHY44WBsVZEsWxLGpOY5vqhfsWeruvWrrA8lk0SBiDJgrywNsgiSBDTBqHOTJvB1Bl6n7BNCPA54BSJCZxXdKXmIGe6Kz0+mA/7wzRAGlaFzd8g+Hl99JSqZyquk272IpmBfiCfZ82R4tRpMu1Xjyf3pT7/Fp0ZKWNGPflYtBdTI8Ht1uCA+0N96w9BlWvtYh651Iz+kMdyabAOaOzRBLS+5/N862a7h7JI5loiQ25Tax59jDwexjaU2brl7T+PP3IMbDgB3cTIam2y6xC25coahixFijU6efWxdcsyQHlOiqMMqMNiTgu61qKVfGvp5b2l5JwgoL3vvvsS5xiBIQeFgrMNBwZdfuGoYp0rrrgiDGr0tre9LbzE0NqOkY014HACjdLqTBICx6CJjVovYL1OM5DQcFQRNFA9F85Nsax0WLNmTYow0YNk4WO70FPVZ+cxaGMuOd53DKhQDoIu3IMYCAX3MRV3VA/pAcKgSNKDf2lCRSsNsR9uB8cb25BowzzsX6sjsT848fiN+5nd63kPwIG3eRfxHd0eQzfVysA7vL+mTJ4iS0p/2hnjfaVhFRxu3ySQpvhoQgd5VvEB2QNytOXVV6Rl2dLwW5M7IGnCZ/Ro6Tx5UcjNCkIVZRAgcIbd8b1A4BzqgHv9Df0+psIX9y6Up68tPk8kY1Ay/XwyBcVRzz8lz/USAY33CezLtBIJqXOqkkAhwcx68NniM4xlIGJACiFHJRW6Mei8q1rpDJD01ASQ3idtB9+FtEnWV+I2AJbR3mgihnYN5WhyV6ugdUMBy6Rd0oprbA/7BNuCNBz4sB7I+4ypzmmt64rzALIYtpKpUPRxxN6DIM7Dsal0KeHctvSMDwISQNt5lqkbc4mOCy8J04mvvSp7S+Q60xTE/EY8m11z4yk4hr7wnLQ3qPrZwu3WwIb7Q33nDyG2AIGqn2NdR6tebWY/yGO5HjCW0+lfNDTpGfOlm/FesjyKbjiPcSz2HNXihvi7XtJf80j1rusYfHAC2hGQZQjyCOqYEanXWMQI5tg6euo4MKDVPAY4FAjkJ0+ZIitWrkwpnzDgxDe+8Y3geEJxAQUXVRxsEYfyit8HCui0IGi36v68e1A7Mc1yH0JVcMT0I1Lz6PzqoAlOLbtawrEloUDoAXYAPfI6lxNcxq6dKBuOM67XnDlzguoHQQ2DMqhyoObgoF/4DWAbzCMBpUksEkLYDuB+bDd5TU4hAGV5mjhmMGlVBJgP5SBG/Ga3Ux4nnPtajRlZDqHbwDJI6ICIAanTUSJUQci0T3traelbD6gsEDZtjzwYyuuNHMeNBhIiIBTwmfzaCll5wim5ZDLvbaZIGFN6T0x5fYVsvuSyQx7QDM/d1i1byySEHoSwWE6LgfcMnkc8L+wCzhzNOBYsg22CYgskqiVTCJLHtBc4Jp3TGevqZ5fHzXOG+bA7yImJdyj2x3Vt/lStgtZEMcvUOSr1VG/LPM+cpxsOrNIXxwQbpwcshO0DuQxyioMP055SIUkCGu90kEgcBE0fO88356EsEB8gLkSZH22/ZsyYEbVl2u5zeccbFsuUVSulbfNG2ZZDPgNZgw+2btoQSNo85Xsjwu3WwIX7Q33jD40bO67K14kRYE5CeyynoWO5GAqF2oNYNtO9FIsnYuvU+/tAzlsstm72Z9nRAyegHUnQpA2DJYgPlmQGskhsJ1f6FrH8WADUGwhCEWDDKcH1Qdcr3ANvfOMbw4dASzm76PVVTq/DATr+cMytkl87vlyXU+2IN8tLE90scY9okgjd9ixJg8CF+QgZtNCWxAgXnUNV53elQ6nVgXCU8Z1dT9HdnuocdE0lOcMciyBJSBBhW5QBwlePVI/9cDsqbRBQ4VnAfCqQUE9uh3kIylBf7pcBJ46fCiQsw7qBZMNgQRXVIAbwShzmMXGHuZ5GOEcaIF4C+XLLzYHUgVqyc+GioBgEsdM9LU0YDFm/Vgq4jq8uLX+WLR3U5I1W5pF8nfbyiyWu6/KaBDS36Ys0HBs3bazsqCcvKIDvTFehSVl2C0f+UbzPYJtgEwD6LJZA1epBgIpiEr4kZWPvAb0+ypg1a1Y4F8xVykH89D41CU0FJH7j3JEoJrgu664V3pp81kQ398NjZuoK2lqQVMz9zByuqCemJLCobgNhQVJKX/NYwxi+v/LKK2UCunKNqGDkelBb6nQfukxd764TTpLuKVNlxl0/SXJjxwh2or3U4BHDiJdeTKlMBxrcbg08uD90ePyhLL/bIaHhNoZmj+WIWMOFXr8WwTrYYWMM7fdkCbEOhOfJaySKleNxjQNwAtoRoLtjENag5LWexVrYNJntOPygGsoCCgoATgoGogAwwMRgBgN9OOEWdGgsocFlOkBvBqBr6cITF4bvPBfzVHdonEd2SSWRYUejJjSpY5V+Ggye2H2TwQyIH4ziDWcT5BQDJSo9+B2KJHxHQIQgDUEXSBk43AieMI+kDOuDusN5X7VqVei6SOKLBAm7miLgguIS5aFeWrnIAJNBJrupUuWJKQMuBAgIDnUXU31fub08OJDUGXaH5z+1wL1KAhqDCkLNvPXkU0Uy1Mxa0YdnAM/MjGeflJfOviAMCneo5BfInOS+l7Q9BWmC55a5j6mCRj3w/OEZ5jxNLrPeVART2Ud7ztQWlvjl9po85W88888++6wcd9xxoV5UhOt80tyvrgftGNehWpnd2rV95L5Yjs4xrVXWBLbVOa31ewnHzHQjsD8A88hSBY5tYQ+ZL9b6dTES+pX/eUUWL15cqYBUXbMxo8ck5JkNZHVPo/Y3XYwFMvWVJbKrosi3JDsBIjZLAT36gV9nqqYHGtxuDQy4P3R4/CEN7Rs5GS2yZWtcTOSxXBwxX7qZ/Woba2jkcT55iJ1bj10cBwInoJscWaqVWq2INgDzVq7GQxYBrRVZgwkMAOAg4wPVHJxfBBA4F1Sn6PWzHF2rBOP6zYCg9qvkaA3HjpyHR0xPlHO6G7smGawSkQ6gVgrxu+3CaddFcMSu+AhyEHRBAckAi/tgt1AEZFQD8lriO7oYIljCh13StYoQgdiLL74YuqdD1YTl2B9JMA6ygy6QVByR5EIZPC7ca7yPmDuV3dZ5/8QCrpjDZxs93I46DgZaZUcSgWpmDGSWNQgayVAS0KN2bJeZLz4jyy4tp+E4lFyzYdCp7mLZvug80FK2J0uXLk3ynlLBC/IEzx/msds504SQqCHpTCKWBLVO5aHTaFgSmlNNZOP40X180aJFoWy8Q6ie5nmyNoykEebbnLAACSpNhOt8sJp4ts+9VkZy/3q/2CfJbthK2C3sn7lZsRwEFAdJ0/Za57/mPADvThJHOoCl7R01elSmndL5XLuOP1GOeen50AhC4ovnyiKLfG7btFHaXnhW9nY19gCEjsEF94cOnz8UQ4xMbDa/yGO5nlgO9z3f6zHo+e4/l5EVZ9Rax8+doy/hBLSjCvW0bLlhanxkpeAY6KCqj6ODwzFBkIDjhfON+XBY4ByTTLCo1YBilWCc1wz3/aaNmxJiiEEDcn0i5xq7ltqu5Br63OqPdngYNFklIoM5EhQgk5CHdOrUqUF9owceY8DHYIh5CLUjhUGyMGgZBwHDMeD+4L5wj8Cpveeee8II4gi8OBgP7i2UARUh7zmqGrGdVRFiORWHqfQCqsug7f4ea/iwimiH42BBcpIK3qOeKw8qiDy0w2uooHE/76sMFjft5d/J0tPOCtthwLODBRTQnV2dSffuZJ+lP5Ajr776amJXQJSSVCbBzGcIdYOt1wSzXhfQg3uROCZJQvvFZ432h7lSsQ8SPtgGdgQ2CLZIP5/2nGlSiQN7WX/K2k/WSZMssec+KIkr6mFtL7VaEvaH5DnegcyFzWPHd5xD1MsOxghYJeW69eVGisSeVVKn8NixPxDcTIvCemryreO8C6Q4eYrM+M2vw/1EMiuLeMpKvzG8RGBnkdYOR1/B/aHD5w/ZBjCLGBndDGjmWA4ENO9Xvtv18xMTCNll+l2f1WA62FEPh+PxhuNwwgloh2OQggE6HMCBBhInCFahwAjOyfZtIRcanO7tO7bL3j17k+7ldEq1IqCK5CgWazormnhuRkcX2LotrbYIXb/bhoZunSCQdAClyQB7fm33dpbFqQ5WtJKPahwEUriGcEaRaxRBF75Tmcmu5ViPOVoxj6of3guoM+qBLnsgSxgsAaw/lI54XmbNmhWUP9gvCByAqks9mA8CMxBm6AKJLo8zj5kpRx9zdDIwSjgXlb/wr1IfBF3Yjz2/1ilu1sYPR+9Bk6IHmoaDpCaftUmvLi1vt/i8QyKgQZ4gqAykaOXZIKmDVBd8HnWqDdQH60O9CxsEYhp1ov3h86wHwSJRyXlUB2rbZZWJAJ9vPMfMP037A9sAO/P666+nlMD6vcHzx6kmxPXzS9ulFdKx9w0JH77D8Rvnj7ljmcuTakfmeUVdEMzDhlEVzvKxHsrEe5V5YPX7k/tCGThWPWgkJ7StmIKMW7JkSexyl5Vsv3eljNy5XcauWC6bSnXfrwYgtMhLvzHqgXsSgt9toeNwwf2hvvWHSGwD2k5bu9rMBCKuaTPHcqERQ/nJ+jth72Hu2z5betrM8JjC0d9wAtrhGKTAi5g54xoVJBDgmMDBhXMCpwROMhxgOF5wTOiEA3ROtAMSU55YWGdFBw2xl7Hu1sj9NgNAXHQXu1PkDM4FR34HqBakQofr2vykWQGXXo9TKiF4LVAP7JN5DBEwMR8iltMphWPLLp8MajAfZSGfIRQUVE/o/Ky2LiiX5BL2C8IL+8Tzc+YZZ8rYcWNDbsSpU6aWt1Xkmf6und5k5PfCkEDkgPjR58I60RruIDp6A7SxNg1HrUEFYW+xHfMyH/3CM7LxsisOaTBCENAoKzyjShWHZwMkBp5R2nk+q3gGQDpDLUd1MqasG0lJPi86DYbt2t5tBvbTZCZ+w6agfKqvaXvwLoItWLBgQXg3wVYAmuAG8HyD8OFAX6w37JMmgWzajViQDOA4SRJxGclnTdqgrszvjP2xAYG5Y1knkvk6lQntKEl8bRuxPa4ZyKWwv4oCWpMD6EqfXMdiOq1H93EnSnHSZJn7wK+SLvvM7x2zbft/710SQ9umDTLU0284+gHuD/W9P1SLVLa2utmA4x6MsRxg/d+YWtmKNLJIaF2eXkcvs+//ZoW/Rx39DSegHY5BDHSn62+nhUov3QIOZwTqDTjV+M6uuQySAe2UWyWEfXnqID6WyzJWJz3NW1cvb4aXNgepQRfP5JyUDvvII3ruI+ZnJfS504ENoK8NVYH8TXJfjxoP0gbLOeI7cxOiPlD94J6hI8vytWKIOWGxHruuUulHYogBG/YFlc/MmTNDMAX1ztFHHx1IFXafTw28VVD3TFF6Ai3msi2qrurqfmFwyqA11tgRU/rYddxpdBwIaHsPdFBBrb7DNiAvprz0vLSViOt97/2gjL7xk3IwCPkcd+0OhGZ5R+nleA6XLVsWvlO9DdhUE91q0L+E7Kw81yRntWpYEz8kP0k4c3uSMpjHdB6YR8Uxfk+fPj2o/JCrmvvQJDTIX+ZDRT1I2jBFBe0A6xQjnggsw/awW7gGJJb1e5IKcRLMBLvN44PlKIc2kkpJ7h/LmG5E58rGB/tGl32o07UdpKob82Cjs0j9/W+/Qkbs3C5HvvSCbK6kc9GDD1p71rH4PIlheGn7LNW0w9GXcH+ob/0h2NKYzxMjFmsR1YMZAy2Wo73mPW5hG3Tsfmx+a+sf2/X1evY9Ebtf3Jd2OPoXTkA7HIMYhzt3GF7qcEywXzgn+KAFHIOegHxg7kcquoAsopnIUi5r56WWcxJzWvXvYp3qimZwfuE8wpkcN3ZcT/fr0r85c+ck65D40aoZPRiOHWhPXyuupx1USxJhOe4RkkEkYaCSXLFiRRI8xRxb7BvbkHQDeYLch9gWBBKCKnQrxe/x48Yn3crtfZIKtnTMFVFeFCtMWqq7erEnd2pwtkt/CORixJOGPgf6/DkcBwMSEQkhuXOHzHzx2dxBBXl/01aDhB25fZvMffIRWXLOhYemgt68SWbNntVDVii1HEgPEtC0CXjG2cUcUz7zeM9QTWvzL+vUGLosEjD6vRFTKeqckxxPAMugJgQ5g/cZU4mgXtwfCByo+qj0RTnYBvO1fSRZRBJcK6JZN2yD79gP64b66xQcPFaS4CwTH6YP4T454Je2uexCTxJMK8exL7yzoYI88cQTy+dITOOwlPPKFiJqcuR97pp/nBz7m3sSFT3qpBuZNZBfHCk4Yhj/g+9Iu6ufHf0A94f6zh+aMH5CatuY0tXO744M9NgMaKRYDu9ENiYylovFbnpgTg2rRM5TKrMuWcIMGw8eTFzncDgOP5yAdjgGMeA49wXgVLCbFYJUTOGYrFu3LjgtdHZtrkpCp9CwJHKsRZyIkc62nJjTkeWExBwWuzyrzMEKOJTo7gcySCt+oPyzSh2mKOH14Hc6nvxQKQhoskMTL1QO4l6C2o9EEAeqwXwETPisXLky2QYfqIFA7oIcYkCFPIlYF8FWyIPInLOV4wmwt1nkElPJw2AqmdKBrhTCZUWJp3LBcgR5sQYV/bseh9zhqBckoKlcAhk4/X8wqOAbcwcVJOFJAhqfWY//RpadvviQVNBhID9RBIMiJvDMct8A7QPJUICNmMx/alMkaSJWg4puTUDrFB3cnyapARKnWBc2CHWEKhBEOYkmEsAgjWFr+H5DXfHugwqaNo9qZdouXhuS6JiS2GaKEQLr4b2LdyztJ1XQ/K2PEdujGzTW0SpoloU66fzQVKtpEgzvddq2cF5VCg58h4oR5wjHrq9D+2W/JyN275Qxr69M1PdacWnf2VmDD45Y8qLI2jWZqmmHoy/h/pCd1Xv+0NRpU5N5ec92XkN9s6C/Yjnd6yYrlstCVjxF2Otey+fV8Z8uy+Z91uvF4P60w9H/cALa4RjEQPB5sMALmo4uPnBGUN7atWuTkbaZW5QDZNigUufHtGXnOQdcR8+LEcVWJVqlxMgoI9ZKrpfFnKJmclpwjVMondKk23wFmvzgtWaXT5wrBDkMwNgdnveDVuKF4guFFFGG71ASwjFGIIXchZiHMhcvXiynnXZaIIEYUEHVA/VOKEcHRvoeK6oGBZIpxUJVgFQ+3DThkpSlArUk6Cqky9HrJ6RYS0XxUwoCcQw6B6q9lx2O3gaJVRKBk5e/UnNQQT7X3A72f8S2rTL3qUdlydkXHLQKGikdkmeumFbJ4bn+/ve/n6zLru1awU37oRWDlkzWDTlUcjOAZv5JlkNySKsHbaCL/SIXMxRgIHLR9R2kD84J983BArUNw/sRA3FxoC+eS9YdZWK/urGWddO5krUanV2dtZqY5BTmUW3MXM8gFbA9yV9uQ1Ul9kFSAeQWjoOkGdWfVKnrBgOSbbC91pZ1T5wkHW88R2Y/96S0bCnn/dbHY9+/eYMPjn7g18l7xUkDR3/A/aG+94d43KFqxWrSOvbsN5NP3pex3L79JYK5vaMqltPb8/16KLDK5wNpdIitmxXHxeI8h8PRWHAC2uEYxICTobv8x4DlcEgQaCJYxQct4FB97K2MWs8uxYDt5kcVlf5tpzGHMgsxwreWkxIjp+16sXVipLM7LRLUDwEkiErXYvKkyckgYZqg0ddZq36oloD6D2AgxsAq5kwiGEEAhVyHUBxBZQQVD7qx4zNyxMiekcAL6fqxvglJkhWc6FmaWKnUAff/rbfeGoK9Sy+9VE466aQyQab2pdU+4TxU/qj44fpcjkF3sB2Cx7bWtlS+Vqvkt88Gz6nDcbAgkcyu2/hMf+Ul2XjRZXUPRoh3BAjTmY8+KMtOO+ugVdBQQAOawCBZofOqalvMZ0CnbtLKYK7PdasITqVspn2y23E9kj7suo51YQtgl/A+xHsSdgqEEFVpups9U2cAKA+ENculDaRiGvNhE0D8arW5VjGzLBLQIAyQDxTKRlwP2FjWlwM8YYr6gfzGuxz11KpoPaAvSWnaVRJkqCOOBQ0G2q7SvgWVd3cx1AH70oT9vvdcJyN37ZBjnnxUtldU96i7VT9zf/uu+aDEgMEHR953t+zNGLTQ4TgccH+o7/wh1F/7Q/rc8cNzq/NnNxt6K5ZjwyXABhN9zzLXN0lnba/1VKOea2K3i93vWQ0Qerl+1mw+dSehHY6BAyegHY5BDDgjIX9nKUgMLeC7doZBoDAqMRwaONaYwiEhOcHA2zo6dFYOFLWcibx16i0j5gDpsmOkhP6e92lGbNu6TfRgMzwPCIKWL1+eEBcAgzCAKj92K8U9hfsIARTUFrjXsC26iCKwgmIHakJ0EZ01a1ZIUQHCZsTwET2qGqXgCXVR6knWMXFeWWUVSOlriPV37d4lTzzxRAgEUacHHnggHNf1118fCJcf/OAHoS5Y/tWvflVuueWWlEpIQwd7KQdZ0vvkesOHDZcRI0fInr170uXUuNfzHHOHox6QwKVK9shnngj5nPOIZN5vmoQesX2bHP/wffLcRW89KBU0VMQJlFoOz8mMo2aknlk9iJF+/2Q1yNgAlx/dvT1rfQa0XF8TpFCN8Z2IgB72asaMGeG7zv/KAb64f6ajgl3RqT9CGhIQr6X3LWxhIG1L32EfQTCT1NID6rIrNN7dyPsKMopEOMBGYuaDxT5BQKNMpCshQc581noQKH54nTlwJeqIbXfs3BEIr6TRoCCJTWwZ0hLsNkm6zjPOku6582X2ow8k95oefNCia+q0kAomhnG/+klKGe5w9AfcH+o7fwixCWxEsrxQnX5Mf7fpFpoFvRHL0e5rNbMm+e151421MfKZ8/LycufFXRZZDQyxeM3+1vFe3jyHw9EYcALa4RjEgBPyla98JQSizB+JVnE4MACdE+2U2BxfBwsdwOeRwNap0cv0b66jnSKd/zPLuYgty3NY3FER2bptaxLoJEFN6Q+qOwRcgCZUAHY/p4IQgRO6gkKxc/LJJ4cuoiBMJk6YKKNGjwrLoQbWXTW5H5s/UK+zbv06eeyxx+Ty37u8PM84z1SJYProo4/KU089JVdccYUcfdTR0tXdJf/4j/8op59+ujz44IPBqf/0pz8t3/rWt+SRRx6RCy64QDZs3CAL5i+QO+68Qz72sY8FtQ73XdWtVHpUnFrRqdcpliNDzkwII113jZjyxx1nx6GAzwdTWSCQHbVju8x9Mj+dhiY/uR2emWMee1CWvuEs2fOpz8iYG66PDmSYBZC2fEZJZPDZgU0AOQOFL0DlMAkcfPQgfgSX8bsmka2tJ/jOs6S2fQ9g3zhulIv6oW4gY0AYgSwKOZILhapBx1Aec2qy+z2vAVNwBBKmRPKgXBAJGPCPKm+8hzkYoE6fgfMPG4zu61iGHMwon40L/PC8gbAA4Y3teLw6DRCJZp4D5p3GdyizA/GxZ6+MHTM2pWJkjlpcvymTpwSldGjkuPRtIffzpJdflO2VdCAkkW0jQJ76GRj+2CPS7upnRz/D/aG+94diNjqGZvWLasVybKTlO4gDzFrkkbsW2g/lb/1dvzNrXQ8b++XFg1nb5JUXi+fY8GzrHvvtcDgOL5yAdjgGMfCCRb44QBNbNvjmulwvC1bdYL/bsvT3vH3V45zYfQJZSjhLWNt92HpwHa2Ai9WtWQDSpLOjU1rbWlPXAgodgucKZAwUMlDkQTkDZSCmU6dMTQVPNhdgKoAp9HQZLU/SgY1G+/72EERdcskloQ5wyAk46HDUb/jfN8jDDz8cPug2+rnPfU4+98+fCwoROOzvfOc7Q51//OMfByLn3HPPlaefflouvODCQKZ89ubPyk033RTUf9u2bwv5FHU9NGlGdVHSJVUHjuq5YBAItdPq1atT97QmzyzcSXb0Bkh+ggzkYISzw6CCZ9VUQZMIxnYgKUCanvazH8pDV39Q9l/+Lhl+29elXiBwhnJrzNgxPXa6cotDEYfngwQ066wVW1nPg1Vy2YA0Fkzb540kEo+X67HbMsgSBP9QKSMHLEhoKLoZ6DKfMvcHUpiDAGrSnWQBbSiOGTYX+yG5y9Qd3I5kFoD9PPvss6GrNQgtEOG4JqwrB2xEWSCRSWSToEAdtVIzdp4AqJ7RTT7UyygvOZAYfk+bPk1eePEF6SiRz90lQm3Og3cn+capqLapTwDkfu7IUD+PefBeKa5dnSIRHI7+gPtDfesPIUbJIwSdPOyJ5axyWY+zg3X0d2tvY2pmq2i2sIrzmBAo791s47+8eDDvmsbU0bEydUynY0n7DnG/2uHoXzgB7XA0MXSwbgnlGOGrHYBiTku1dmSyttUt6FnlWSchFohqpyNrXX2MMWI7q/7N6qSEXKelQAOKnUT1Vvo79dRTZdjQYTL9iOkhqMIHpFFUCVOBVu0kOQKNOkYjtaxQDrA2btgoR844MiybOGmiLFu2TP7qr/4qkEKXX355CL6WLl0alH5Q8GBfr732mpx//vly2qmnyQ/v+KFs3LQxEEhUEyJ4DMRK6fuRRx4pv/rVr8J2bzj9DfL4448HkumOO+6Qm2++OX18xSQqDPXTwWPs/uJo8yB8ujq7QoCnjzWvgSR2btxxdhwMaOc4WB0HFZz31GPy0uLzc9NpYDudhgOk5sSlL8uRS5fI2iuulKF3/0KGbFhXVz1QBp5FENDJe6LyHA0dNjQooF966aVkfU3cxvI36yA6RjxbG68bYlmmXqYbI0lE45zBHoCMxW8QUniOoT6GTcFvlqPzK2NdkDZMe8GBAVlvlAsVJGwDyCBuizJB/oKst0QxzwH2CZuH7QLBVSKhQT5hOUgnkuEgplEe6k9ygsQFB06DGhPd/mEHoYycOm2qTC+Rw5MmTwrHCBV1OCZFnIUG7IpdxHuie/zEkEpj+vJXZOzypbKjon5m7mdC27B977kWJwozq+6TcbffJu0VW+1w9CfcHzp8/lAWNNnpNqEHWaRvjLTPWs+WUyuGs9vEYkiub4njLP81L54kYvFiVtxofYGsfTkcjv6BE9AORxOgXoVyFgmtlWUxWIcn5sxYoi1GLsccG+sIxZyJLCcstg+9PG9+MzstCERAnEDllziTpT8EXPjYgIpBklXnWMVh1X1VLCRBC8iaJUuWhCAPuQ+xDwyectP/fVMI7Dq7OuXGG29MyJk/+ZM/CfX7i0//RVn909UdiBLer1AQgqRB+VAfgagJ3V1L86EcZOCzv0SQ4Du7Mp5wwgny8T/+uKxYuUL+4R/+Icm/WHU/lA842v2U5yu1XqG8XlBCRe6lGMFm4Y6z41DA54zqVBArM5FO47Q31qWCpnoaxCiIzRPv/qls/ODHZc+ffqbuAQlpW+bOmZsmKypkxvz58+Wee+5J9huzx/qdxN+6rgAJZKsYw3KrGrPbcsA/EtCYD/sBtR5IXZwDqqBhr2BPeH4wH+cGYFdp2hbsE13zYYMIlIeymU8aACmND8h+XXeCdUe5zCfN/WE7kuRoKMD+SJLDrs6ZPUeOOPKI8B2kNY5h9KjRMmz4sLCeVmTSzFsbruuA9caNHSe7L7pUhu/dLUc992S4r3COmArEvotRTlfJDnZc/JZKGWn+jern2OBsDsfhhvtDfesPFWqon/V3J5/TsLGZjZmyxDT23rPb5hHCeTGSJqOzxBV2e71fO7BgXlxZq+zYfvQ5czgc/QcnoB2OJkA9zkYW+Rx76We1gHOZfeHX0wpug1TtgMSW2/3XOz+vHvVuN9hB5V7qekjkfjGnQ5MWIc6I3BMIjH730u9CN/vFixeH4An3xxe+8IVAaiAP6vvf/3455ZRT5Ne//rVc/Z6r5Zyzz5HHf/t4qBcUR1BJoryQP7BYJl7GjR9XzsdaqcCxxx4r3/3ud2XBggUhcOOI65gPogjlvOMd70i6qCOYC9uWeJUTTzxRTjjxhFQwxXJTgVRkyuPleeI2nDdl6pT0OctodLGkU7Pdg47eB4lkPC8koEeWCNN6VdAkZrEd0jxMWr9Ojv9NeUDC/Ve8S4bdcXvNOuDZw3NqUzqQhTzuuONS65OEpGKX6l2rZNb1tDbevkus+lm/n5hqhGQutwEZjPVgQ3D8IJahDkaXe6j5sA0AkoepLlh/EsvMg6zznuJc4JyiPPzmYIvICc26ATplFs8BfqOesNUgvWHLMIWaGWQ5ldH4jrqC7LbkWGLHld1O1om9B6mALlTSeHUXZeKJC2V/R4vMfeJhGbJ1S0I+69zP9hrt+6OP91jMYjGlgob6uaOStsPh6G+4P3R4/CHbSBWLQ9wHSkOfnxhpS8SERLFpVmyml8fiQjsvS9STFX/p9fX72KbSsGXGfmfFcX7vOByNAyegHY4mQFaAHiOKGdhmEWPFCFGsUSutBr/XcnS0A2LXyXNkdN0t8Z3XKh+bFzsPzQKoYjRZkVLGiaS+pwgN6elWv3LFSvnZz34Wuni//e1vD2U89fRToSvn2WefLX/9138d8hEiJyxG8caAOM89+5w89JuHZNGiReFeBDkDUuaMM85Irh3yKjL/KdRBIH2g4gvXt1i6h0t/CKywj+985zty1VVXybSp00Idr7nmmkS998Y3vjFRXiLw4rFYSV5VgFlZHh2Ix5wn3j/MmQoyCMcEcsuCz16tZ8zhOFhYIhnEZz0qaG4LcgPkIrbDM3P0ow/ImvnHyeZrPihtDz9UMxUHSdeEnOGtXXme0BUcRCkHGtQ5gC0BS/uOT+jSXSF69TOk3yF8jm1OaX7CoHqVKY6NgzhhXRDuJHlARpGEB5EDlSIJZJKurLt+t6IcnD8sB/mD37B7emBFptzoVIPvkYAHkGYD9o+274jpR4Tu+CChUA8MFtjS2pK2Weo8V9mSyvKUPTeI2bbSValsXpRRpf0ds+I1mfa752R7iagnAW0HgOK16rjoLdLxxrN76qb8E6ifu9esSl1Lh6O/4f5Qz7nobX8ItoKNfTES2tED/Q7U87TvaNcv5Kik6yV19e+sada2OmbjezD2Ts8qL8snpg/A7WPq6bz6OxyO/oMT0A5HE8C+jHVAa8nc7owB+GqRYllOg3UsYiQ2kZXjOa/82P6zFNe16m8VLc3cYo7BtXrEidXdRQEEOhgYBUHPXXfdFYImDGiDbt5Y78tf/rK85S1vkRdeeCGMsn7+m84P+QT/4A/+IOQi/MUvfhHIKHQVDQNVdXXL+Anjw8ju2B6B2pNPPikXX3yxfPOb35STTjop5CSEqg8EELBw4cJQn5GjRsoHPvCBch2lfH+/+dI3y5vf/ObyvSI95FPloJIur+wumlLtKILMLg/biVR1t+X3VLDFc1golweFEwmw2L2lVZphH8V8pYnDcSAgAc10GiEX9NatiZK5lgoatlWroEEcnPrT78t919WfigO2JTwvRUMulH6i+zdUvCSDSeLaYFOTE5iC0NXrAjrI5cem37AEN/MiAyRFSBzjgy7rPH84fhAoIH5hB0k+Yz2db9m+f6iuxjokrjXhivOL/WAgs3lz58mMo8qEM0hm7A/2Erlm24a2xW1CscdmhzoUe5SYiS1XZFHKxkixunFAJK14hDCyooDG+RpW2n7hc0/IFpX3mbllY7Zq/1XvS0osqt20bdogY2+/VTorqmmHo1Hg/lDf+kNZiBGJze4D2ftOIyu2iq2TJ+Kx6+etUw8BrfebtY+sZVn74TszhqzGDPedHY7GgBPQDkeTwjoFuiWaSmi9nv3O37o1O7ZevQNHZBHGhUJ+d68s56eWMxODJaGbGWvXrk2REKmcfqUpgqIvfelLIdjCKOyXXXZZGAAHqp0vfvGLYTWQERdddFEgThCQvelNbwqKwRDMlYoDqbJh/YbQxRNd2deuWxvUhegOCpx++ukhH+zf//3fh/0gHyG2u+CCC5L784orrkgCm/nz5id1JsmiAyB9r5UPo0yC2e7omrixqp7Klx6Cx5wfHXglqsNKABiIspbW0B0eXex1XTTsPagDDnegHb0B5oIOBPSIEXLMYw/KWiiZP/UZGXPD9VLYvSu6HfMiM20EVMITS8/t8Q+XCWyoqIff+rXcfaMLeNLIp54pPC9QQDNfKZ8DKoaz0lDoj21oBfjskXzmb6b30N18+b7C8aEOOD6qq3GuQI5je/wG6YMP6gwSaPXq1UlZukHXAstQDj5QNINohi2cPWu2HHX0UcHWgdQuRFSGichS2Z6q97Kku8nrnKw25YkmmVQBKSJa28MkdUppXsuQ0nkp/Q0vdsuo0mdVRf2Mc8drZO3b/iuvkSLyvmI3xvSNRu7nNasT9bfbOkejwP2hvvWHYGstYWhJ/hipqI+j2WDjLN3wqnuyZp2fWjma9fesWKzWtrFtspZnxXL1wtYVyBM8ORyO/oMT0A5HE8K2gGvVMwJrBtg6eLSqYpaT972edXX5djkJgXocpFqw5ETWtu6olBHytHYXy8GF6spNtctLL70UBuBBwIOR0ZG7ddbMWYFQ2bJ5i0yaPCkheRhgABhhHSohlIccpes3rA9KHqiAPv/5z4ft3/ve94ZtEXhhFHcQGhxQC4BqJqAS4CTXVl26KvJEkV3JPOkhVNSGPYpBFUAlqiGJOPSGzLHLtXoQXdeh8mTAZUnmZBtXbDj6CLT5dlDBY39zrzx09Qdl/+XvkuG3fT1ze70tVdBHPXK/7Bk3QZZec520Pvd0pooawEB9IG71YHwkSPDuwWBa69evT54PS0Dr1Bv6N9bRhDJAokPnUmaeZbsup1RWwe6ADCXpjGMF0QxSGvNxDnDuJk2aFNSJIJKYeoJ5oPGsg+APAwBC0TxvXhhoEceIwfvGjB2TnANtj6pyqRarlW+aKOL5q9pOFFlW6CGRq2ylRMjogsTtU4XECtdDynmrOTgjz5lWlif3TYl43veH15S5KJJVhfLeW6F+/t6tstfJZ0cDwv0h6VN/iDnvWbcsUYslppvdTthzYc9Lln+pl+nvsXXqJZlT7yZVnm7czVtuy6t1zPp71iD3/h5xOBoTTkA7HE0GvJBtIE/CmS3oWV2bYs5Invo5j+DNcjTqcUJj0A5O1nrujNQPBEjtHZVcxZVgS5McCICodJs1a1Y5gCj9Qd2zZu2aMLgMVHwYLAeqnqDoK/1hgCyQSwDyGoKcwXYnn3RyUPZAVadzmILYaGttS+qlnU8g+c6ApyjpAMqimFYdp5Q6KphiwBaCr2JecZFUAmIU/dLT3bWruysQVq+99lrqmPR29vjqccodjgMBiV2dC3ri0pdl5ovPymtXXClD7/5Fbj5nktDYlkrheQ/cJWvmHyt7PlVOxZG1PQjoXTt3yaiRFQK60PNM4rkDSYtu6npf+p1lU3FgPkhPEKGwV/yt329cX7/jslJE8D2HMrgdSGjkWQXRDMJHDx4ItSJsIPaNFBlQJoJsPuboY2TEyBEhH+vQYUND2opQviJ5qgifyvlIKQ8LPerCKOGjlIXaTlhi2RLUectZbsyWcp0hLT3nFWkDOPCgJR147fb8X3/LEyy22Ak/+G6SwsTtnKPR4P7Q4fGHtM2Lbe/EYg90LMffmuRNvQvqIKDz4jX7Xf+2gwbGevDFCOIs9XNsnTwlvN8LDsfAgxPQDkcTwjqt2pHQyHrRZzkiMYeB8+0+7f5sq3YeiVylBHPHtNcBNdu+vftSg9HoawoVD/IRIjCBKhBdRfEdgRXVLB/9yEflP77yH0HZc+2114YABjlN586dG4KQ0EUUqNwW2FfVfaKCvYRo0YQt1TmFnjqmgi9F3miCJka+pLY3JE5PdczgXqyjSNX9mKpL5ThRHpWfNjiopSTR6zochwIGiyBZqYLG83fi3T+VNR/909x8zrz/bCoOKPLO+fZ/yn3X/bHs/ut/CNvHUnmAzNm6bWtQBfcUyklRjj/++DAwF2CfCZ0v1KqgdQAMoojKXDau8kPyOUZA655APFaQzyBY8YGtA6mEbUE0gWgGiUQ7GVURiohVF6fsjhi7Ukx3b7fvU61m1KQxCNxnn3lWduzcEVTWIMtj6/ccbGVSTBNQWoWdTIuFqveuvhY4R7gPLCHCbaCq7540pVROJT1IMXTED1UY/dB9MuyeX8q+nLzRDkd/wv2hvvWHYnZY93Rx9CDmN3J+TLiTJc6pFc/VWk8vj8V69Wyn651HgHt853AMLjgB7XA0IawTop28WOs516vHAbEjEcf2W8shqafOtdZ3HBqgZtu1uzzIlu4GTkC1wvO/YMGCMOAOAgqM7g5FIDB5ymT5zGc+UxW0WHJF7GVkMKODLZGqYCm2fSoYk0KK2GLZ9t5OSBatslDqnySYE9PFvZgmd5KATXqUiklwVgLUTB2lP54fGzjEAgsnnB19CauCHrZ1S5LPef8V75Jhd9we3U4T2LAVIFlAPk4skb6L7/yuPPDua2XvR26Qkbd8tmpb7A9qYj7G+r4HgQICR0PnaM5SQDFNB75zEEDYLnTvxr5QP5YTUz/jOwgfrA/bhjqAwAW5jG7y+I60GegSr+1QVaoLidsXmy9V2yXbFT6pkyjbVrEtuE7Lly8PxDrIbw6YiG2Ra/bJp56UKZOnBEXhTTfdFLrzawI5Ka9Qvb9E5SjxlB7hKIxtgqq7u9gtE8ZPSO4Ji+6Jk6X9nX9Y2T59hIU9e2T892+TdiefHQ0M94f63h+ysD6Rntpz0EyIiYfsd22HY+coj+zV35NrJgcWt2kltF4vdv3yynY4HIMTTkA7HE0C/fK3v2OEdIx8znIWYs5ErJwDqac7JP0LnH90DZ1x5Iyqbp34PXHCRPnYxz4WfoOkOfqoo8M2UALFupfHcgvGAqliOYpJ3QdVCr5KAFQsVpev86LqQEyrb6j4q9q2mJ5ymQ6sqoLDQrU6KEVMqSAMXdaxDMGqPu5UcRG1jwddjr4A7yEQsloFffSjD8gaDEh4zQel7eGHclNxYFsob5kjGSTw+CUvynEP3ydLLnlr2NYOSoj9gqDJeo9QuavBVA56AEH+5sCIAOcFwqhUH5DHGOgLeVaxT6wL8hb7mDplqsycNTMQuVAhwoYNGz4spAbBOvp5T6WpKFYrnFPPZOTRTJSCEn/HWcUxgdyyd955ZyCazzzzTLntttvCII44NuSb/ehHPxrqClL6Zz/7mdx+++2B4P/Qhz4kL774YujKn7KXRmWtFYyJjc4gpbgOjyEooCtljxs/LpWGgNciDN74qRsl2WlPgeHnxDv+W7pWr/LUG46GBm2W+0N94w9lkZV6vvs9cej7RguAasVrsWVZ6x/IedfktUa9RLjD4Rj8cALa4WgiWBJa59Ks1dKd5YTkOTN5zkWec+IkdGMgjPx+mqSCIQYkCB7wp4MxHdQQDNCS3IGpmEsRMpLuup5SzLB86fke1lEBmQ12qu4d81OTL+y2mgrEtFLR1FkHWKlgqyAJGQYCbM+ePbJ7127Ztn1byBkbRrsvASrGPMRI6OQw/Jlw9CKoCIZqWOdzXvTTH8j91/1xzVQcJINBPOI7iFIQj7Pv+YV0Dh8RBiUELAm9devWKiKHgIJQg88U1b6Yor4gu5lKA785cC66dIMMRa5mEECnnHJKUDRDvThjxoxASqcUdfoZ13XJI5KtnSudi3//93+Xt7zlLTJ71uwUEaNJWz3l9+dfeF6efvrpQIQvXrxYWlvKrvmqEjF742dulAvOvyCkFMEAZJdccklQOr/yyivyyU9+MigsZ8+enRC/KO+WW26Rk08+Wd797nenCKMoqWyPk+ciZmaUjdSEPP6gDMd9owlo7Kv9bZdL96TJqvxi5VMKQLZslFE/u1P2VHI/x9TTDkejgKpm94fMdr3gD2XFEfX4O80WK2jCOTbPvmcORgFda/+FnN57MXg853A4NJyAdjiaCJZoJuohfA/EObH7tPO1siGrtdydlf7H6tWrq6+LpLtRaoUgApaixB1bHVwRKWVMIa0urCKBCpLavq7u5NwuIwiUqpisGHXqq4K1itKks6ucPxeDqrGbP6Yg16BSBJmH4AoBGKYkyThQWh7RbGEdfH8+HL0F3EtUMYMkwP05cd0aOf2Xd8ijl18dUmmM+D//krktgHsb9yZU1CE1Q6ms4375I+kYNlxWlkjoIevXhoENCRAQqRyfRRWklv6BJIb94T50+gwA64L0RI5VEMtIj4HczNgO05kzZ4ZUFCCrU7mM7XuuKCmix5KsVulXyOiWjukDDzwgCxculFmzZqUIIu4XNuCnP/2pbNm8RT78kQ+HZffcc4986V+/JCedfFLIe/2+971P/vAP/zAse/zxx2XunLmBaG7f3x7U0FBXDm0bGkhnkOorV64MhDfI9v3t+0MXfyi+MYUCGvXRpFX5EJWqUB+3ml+l0FTbazsJ4g0DieFa4IPrz/PUfsZZ0n7ZOwWZortJPFfKadmzW464+aZAWHvqDcdAgPtDve8PsUdKIac3JveRhWa0HbHzQZFQLL7L+10LlnC2ZRTraDBw++5wODScgHY4mgixlnG7TKMeUloH5Hmt8HY7R+MDQQNQ1d2ymFbAkbRJ5UNVAU2qG6mkFXRcNyF1Yo61qG6i+t6SyP1c7NlfWKxIlxQBxbqpoCqWp5DkHBQ8CKYQXOGDoIqBFbrDYzkDK6xPNagGfgdCrJgevZx1Ypd1jdjz5XD0Jnhf4b4FgYD7GaTAhOefkXlHz5all79L2h55UFpLv2ttD+A+phL6pB/9t+weO042feozYRlJaAzSBfIxDOpVTKvn8OyCxCXhgy7a+A1SGQMXgngF0YzvWAbyFaph5CJOiGGpTmfBulp1YTK/kCZgOaWikGpivb4mzydPmizPPvtsIIVxDt/xjncExXWwjaX1v/nNb8r9998vf/Znf8adyDe+8Q358Ic/LG+97K1y3733yRe+8AV5+9veHlKBsHx88BvnAApC1GN4idgHGQ37g99QeiMPM2zS3/3d34X0Sf/4j/8YyqetSR2HSDXBXKmTPvawXiGtbNRKSJ4zkOIgvoNKFNuW6tPx5ncE0jlN+JfqUWKkJ/74+9K9ZlW4Z6zNczgaEe4PHbw/BKDHiob2h/RxVvXUMOeDvpLtwdlMsOcnNl/Pq5fAP5A4zuFwOA4WTkA7HE2GWqpL29pdjCgvs1rfY98dAxeB3DAqFBvcJIGNVglKT+BjlTV6MCsSN1VBjsQJVwZeybY2eCumv+uyJHJLajIG+4KCEAETAyp0Ed20aVMIqPAbih4sB0nHHLQ2MAIQVMWel9i6SV0KhaqBY5x0dhwuUGXMAQlBQOMz7/67ZM28Y2XPp8qpOLLyQWslNJ4PAvfw6d/7pjz6vg/LdkVC47nCvoYPH16tAiz9/vjHPy7vec97gpoZAwNivREjRpTTU1j1nyJTYs+67Y6uCaIYCa2JV5I2miAC8bJ61eqQMmPkyJHJ/OlHTJdvfetbcuqpp4Y6f+ITn5DPf/7zgYTet3ef/PKXv5S/+Iu/kEWLFpWf9xJhDpsyafKkUI9TTztVNm/ZLFu2bikfd4lQhg2CrWlrbQvznn/+eenu6g7KY6i+QTQDODeXXXZZUFT/6le/kp///OdywQUXpBq6qmxhIU048RyRRLPLkjLUOQu2Due1UJRxpYaGsM7wEbL7o5+U7hIJXTmxZeI5EG4iYx99SEb84seyr6KAdDgGAtwfyveHNDmsYwRLPFft1xyb9ZPqiVmaGfWIhLLWy1NLu+/pcDj6Ck5AOxxNhlpOhXX6+PtAu1w5Bj7QHR8BRiBZilJF8KQGpJGIckUTP8ViVYDDwCxR1GkUpSqw0modq8orVv56Nq/u5optOjs6Zc/ePbJzx07ZuWtnCKIQWCG4DN1Gd+6QjvaOcOw6sALCoFsVUN1cFYRKtjqlXhVKDK5GcfQ1cF/pfJ0gDkBCn/udr8m9H/hYbj5obk8Sm+B9e9a3/iMhoYujR8vGX/40PF9jx47tWVcpk5E6QpdhSdPMZ6lYTdhkET8sjzlP+Z4Dif7666+H71AdtwxpSep254/uDCTzpImTAln8mRs/I6eddlpYhoHHRo0eJZ/97GfDcf3pn/6p/OQnPwkDBbLsMLhhpZ6oE4hqqMGxPVJYQBEOOwSF94yjZiRKcRDQUDwjzUd7R7uMaBkRUm+88OILSd0+/EcfDvVavWa1fOQjH5Hzzj0vRUqlVOYi0UawxJYVVQNYhUyLEVyB4K78Hj9hfJjuf/f7pDhhIk9v6lq1bdkkY+68PZxjfNyWOQYKmtIfKv2GgpnHzrRJQMwfsr27kv0bH0nHFdaWZzXQx4j/rPWbGcVIj7mYqlnPdzgcjsMJJ6AdDkcKTnI5CBBRCDowqJe+LzIDKNP9Xc9PqXFExOYbrZpfkJ5pUQV3huStytFa2T/IDeQjhXoHARUCKX5nXkISzAiwSJ7F1Mwx2EaapP6FQu66uu5Zvy10o1AsuHA4egNWxYx7HyT0hBKhedK9P5enLvv93HzQLEOT0Pq+Bwn9WImE3vbhG6Q4cnTICQoVb9X9XBCx+ZUTu1IsVJEtyX6K1cdSZS9UfVBPrdbDFHbiy1/+sjzyyCMhF/aFF14o13/o+vB9+7bt8sV//aJ89v/5bFA5f/3rXw95mkFAox6zZs8KCu0Rw0eE3yeddFJIyYF9Y3vkql6zeo2cduppSR2OPvpoWb58eXLesS4IbwAkNuqEazFq5KhAQGOARua1XnTqIjll0SmJ/WxpbZEr332lpK6HFKtI6KrlsUZmRaZpIp/niXaIdQVApndcepl0nrCQl1G6i+UtWYNpX/h/pX3dmlTuZ7dnjoGAZvaHQlmFQkI6ZzUAZj3LMeIzi0SOCV40WW1zxrvtqIYLhhwORyPDCWiHw+FwRIGgBaQL8qwCKSIoQoZyeZ7qLtnOBEphmZlng7pkXqFHSQQ1IPKiIoBC13U98A0+CLKo3CEpxm7fWsFjfxdy1Mq6LlbtkzoXOaSznq8/sfXtcg8iHH0FTSAzlzNI6GlPPibHj5sgL13+LhmyYa0Mu+P2usrQwPNw7lf/RZ7/vXeHgQnX7tooc8IGUkXUVJUpyhao9WPrxEgfXTeo+5Af+eWXXw6ELtJiHDH9iLDNb37zG3nllVfkc5/7XCCcMJjf+eefL8cff3zoko5UGnPnzg3n5eqrry6nBKnse+YxM4PNxHZtQ9tk9uzZISUG5uEcgmyGOjlRcZf+MODgpz71qWC3oLo+++yzQ65rHNrYMWNDfmiqxLHfG264oTxoV+lv3rx5PbY0nGCpIrY4v0r9LIogy7EnNl900FUqtaa2mRMXnSb7ZRhPdGU9TMtVm3Tn7dK9bm0guJo5f6tjYGKw+kPs5ZXnD7Gusf1q6Pl53zW0qjrmC+lt6iG3HQ6Hw9HYcALa4XA4HJlYs2aNzJk7R6q6ddLfj5BHVUSQUvwkgUJWsCXVaiBsA/UOB71BDkIEVqgbyCQsQxDDbqIgODiyug4MCUs0H2zwQjVOljI5l9gxAVWMiPagytFfIEGBZ4uDRc2571eyfep0WfPhG6Rl2dLMQQkBktAcgIrz8Fl453dl5Patsv60ReX5igzlekTKtmibYexHso/KzBdeeEH+67/+K9iLa6+9NhC7tEN/8zd/E8jbT9zwCfnKV78iX/rSl+Smm26SIYUh8uqrrwaiF+ktkKMZeZdBSJ9w/AkhDzXsCkgoDLiHrvggdQpDCmEQvilTp4RjRhqf0WNGB8Uyu7BjO6Tz2LhxY4pwOvnkk+WWW24JeZsxaOEll1wS0m3gOJDXGfOSc1T6g5K6iphSxFY4j0WjptSkdCFOBmURaYmy3GzHMrWNnTRsqOxpGyujdu+EcVTXUGTcw/fLiHt/JXsr6kp9T3DqRJKj0THQ/CGomkMKn5L9sYQykdXLy8IS51nzEztUhz8U84P0sqLquWLzxbu9cDgcjoEJJ6AdDofDkYkNGzck33VgpQmNFCkk0kNOSI/CTuc/DKtEVD8IMIJ6Z1t5gBt00UeAtXr16kDcgFyGWkcHViCFkvpVVDzIo8p9cH4Mlvyw3/XvPII5K3jKQpa6p1aZ+jg98HL0FXhvQfGH50mT0Cf/+HbZg1zOf/0PIR90y/KlueXgebXlYjr73l9K69CSBTjrrMpCTtLPolU+g2yBmhhE7FNPPSVPP/20TJ06VS6+6GIZM2ZM2G7T5k1BVXzVVVcF9fA//dM/yc033xxUzCCVly1bJn/+538uM2fNlPe+971y4403Bvsyfdr0kId55cqV0tXdFdTNyUB/pSqBcJ44caK8/D8vh3QbyJuKPM9QU0+bNk2GDxsukydPlh3bd4QczlgXAxCSjDnnnHPKakNJK7lPOfkUOeWUU3rOjyaCla2t6sovEbumbLG1Eal0GsbOSUQlnbouxh5pcg33CI5rYum6FPbvq6wnTAAtbWtXy+g7vid7K2k3dBf6WAOhw9GoaDR/CDaaAwHCH4LvY5+p0GhVh3q5Xthn187P+55Vlv1tG+TzfCz3hRwOh2NgwQloh8PhcGQCg2ABuit2LBeoVt1xWfK92BNkdXR2hEAJRBJzEkK1g1yEUBNiPpXMWM7trEoHpIcmn7merUMWoayXx+pdK9CpJ6iq6o5rfsfKp3I0q8xa+3Y4egO8x6DexX2L5xLPHD5v+MGt8vB7PiS7/6pMQg/ZsC63HEtC4/7GvK0vLxEpEdCaWK3qol4hZdr3t8s3v/lN+cEPfhCI4DPOOEPuv/9+eec73xlyMS9ZskQ+/elPh22eeOKJoD6+/vrrQ90ffvjhkKv5uOOOK9uS1pZA2KBsKJnxHXYIJDLI7LvvvjvYnzGjxwR1M1JqYDsQ35decql88xvflJEjRspPfvqTQDiDpA51LtXz3HPPlbHjyrmbkRP5b//2b0N9sfzYY49N1oNNLJYZ6DLhVEx3x48RzIkaWdLd8/k9pSAvKuWk2p9WVmo7lZRLdaYhxHRZumEA/3BPdHd1y/DSeZ20a7/sRV7tyhqtJZs+4db/DDYf1zwv9YbbNUejoxH8ITxDsEUsgw3vtjGeU/usWfI5tizmw9RDONe7rk25EfON2FBlSWiHw+FwDGw4Ae1wOByOTKCbp0Yq8DKBA0kO/AZpwy78+CCY0oEVgiodWLGLJQMrIKvLaKhHsZgZSNWr7skKoGoppu33vHXygjB9/myQZYMvDVdAOw4HSBbjOSbJgc/4Va/Lud/5mjx09Ydk182fPyASmvc1psh5nFIOhpWliiSFXfnxj38sDz30kPzbv/1byN38l3/5l0F5fMEFF4SBAv/oj/5IPvmJT8rwEcN7SKDKB3meQVCjXAyaN2H8BNm4YaPIiWVVM0hoKAqx3oknnhjsEfYFEvvlJS/LOdefkxCz1153bajb927/Xlj+8Y9/PKTu4DEgRzNtI84VCOrkWVVq4qx0IykVZKQLfrmYHnubWqZMQqrbviGz834n9k/VVZdZpYCuNA4y1cqUloKs7A5surRu3yqT/us/pH39uqDUtIOHZfUscTgaFYfLHwplVxq9+J3+UK2xKizBa5fZcSvynkPtp+jGo1jZel69RLUtO7Zc2w0nox0Oh2Pgwwloh8PhcGQCih8OoqVVcFTJIajCwFzoJorgDF1FOeDNpk2bQrdRrAOCgik0EHDowIrqZkxtTmWuUy+pnBWQ6eW1yOOYWscGTDpwylNN1ypfB14eXDkaDZaEJhE9fvUqOeuH35YHr77ugEhoTGEHMEW+ZcyDLYgRm4FexbNWIjRBIJ955plyzDHHBFIX+ZRBJgPI0zxq1KjQNR25nTFIGOwPSB+kxZg+fXpI14H0GygPxDEHA0SXdaTJABGE/R0146iQVuPLX/5yqOf73/9+ufTiS5Nu9CjvIx/5SFLXRMUcKq3UyMVCihAmoqpmMY1Vxepzl+rmX12opHIyS7WKXKfx0Nvo5TzfrFeV7VP71+sPCYrnchlHtLbIyvaSjd+3VyZ+91vSWSKfed1TKtCI4tGJaEejozf9IfS8QFm473UPr1hO5nr8H93wlrWdJXtt77BYmVnTrO1jJHaWDxVbV0/zGuJjZTscDoej8eEEtMPhcDgyAWUgAinkVwUhE0ZXLwVhIGzwQYCFbqP4IKDCh6RsICZMMKSJZ6vGseRuLKCy0OSF/V0ruImRILHyLbEcU+PEgqzYvglNtOt5WWVnleNw9DVIQoPQBRISesUyedN//5c88O5rD5iEhp3Ad6j9kKfZDtiltwEwiFZ7JYcwBudDqgzYJawL8hm5m1eVSHEQ0CCUYZdWrFgR0l6sWlWeT3IWBDVVhsOGDgvE9uzZsxMy+Zyzz5HTTz897Ct0ay+k65WkqZDqRjJNFqcGHtNd9TWZXJTq5UaBnFJVWtKr/F/S7V8T95av1vWzSvOYOluf/9gAagQU4Pw9rbLOpNu/LbLqtZTyOWZ367HBDkejoLf8IT7XusfXgcL6PrFUG/aZivUay/OVYvvU/o5OFxYrSxPJdp0sUtvui9vH1s+rq8PhcDgaE05AOxwOhyMTIGqQxxTd1BFAgYRCXkKqGEkiQ7XDAEsreBhw2O9AVrCiAyq9LEZY2211ubHAxAZMdtt6fmdtGyOMa+0ni2DOWuZqH0d/gAQASGBNpEx4dZmc993/kgevqo+EZlkgJlEeuqGDgLZINUSV/qBihgo62IAS4QlCGSpmLIO9gTJ67dq1gVDFAIDXXHON/Mmf/Ekgq0FQ//M//3NCrL7vfe8L+2T5GKxQE6yYH4hnRbSmUmNo5bAhhqueT5WbuYdzTiuJuV5CCmtiWZHBKZK+WKiul9qnJZKtKjoh1NUxWoI51ahXqFZvcxnyZHPZtGKXjP/JnVJY+nJQeVriiKRVzCa6bXM0Og7UH+LHIssnqhdZvk9sHb2PmPo5ywfRv2M+VR7RrOfHGt9rEd9ZfpA9JrcXDofDMfDgBLTD4XA4ckF1D6C74ZOIiuUkZICQ1x2U0OtmEcfc/lDIYbu/eoniWsu1IsgGTrHtY+VmkdC1tnU4DiegWoaqD+DzPL649ICU0ADuZ5SFXMzz589PCNMqQrVCwiLNxqOPPhpIzZZhLUGx/MILLyT1mDlzZkIqA9ddd10YqBBqxUWLFpVJ7kq5Rx91dIoEtnmUrco3IaeLcZWyPqaUeliqBxTk8enGtvC9aJTRZl2tpGbZyXrF9HaJ/TDr2/KrVN3qGGI5qnWdtXIbDQI8jqnrVkvrE4+GBgaq3TX4vtA20+7H4Whk5PlDttdXzA/SqEVEZ5HBWajXH7Lza21XD1kdI6pj86xyOnZ8VigQsyNuMxwOh2Ngwgloh8PhcORCByBZQRJJaB1wxdJpcJ1YGbXqUM/6MXI5tq4d9MauW8who7MI4qzu5PUEbLHl+rcTNY7+hiYCmI6DGL98qVz0jX+XB6+qPyc0sHHTxhRhWvnSs15FiQsCGt3V+dyetPCkoGwmGfre9743qBIB9sI45eRTyoVYhbBUq3lTBK0ioZOczkxbUajOUa2Ph/vncdhjS6mXC2lyumgqmcrLXKyup85BzfolYutisVqxXJBsEr2ybYogL6Z7k3B/+ntYvWLrkWN73MiRKeWztm94R9SjkHQ4Ghm1SGAN6wfFyon5AXnlZa1fbwO3nhfzP2IEMdOIxIjjenyerN+1fLM80YLD4XA4BiZaJk+efJM4HA6Hw5EDq2TWyh87vxYsGZ1F4tRS7sTK5VR/YvPw0blJY4MBAnp+rfXttraueWR2Hlzt42g06HudSteh7ftl5mvLZM2pZ8rud1whLa+/Ji2rXsstB/mazzzjzLLtkB67kvxVSFKQy8jVPGH8hEB8TpwwUWbPmR3KwHojS8QnBiVMpdKgwjfhg40iuFCtOOa++VsTuhpaqZ1SEhulcuy4Uvss9OwjVbZIFXGl9xEtR6pJbFsmjztVV7NtytbrupjlCYFdmnR2dIbBInEv3HXXXcn2MeIpT/3ocAwE6GfAfqcK2vpMWcjyC2Jkc958u33eh7D+jZ2X5S/ZeVn+U8wfyiKx80jpvPkOh8PhGFhwAtrhcDgcNVEwCmgdUOmup/UEXvWodw6UxLWkcVbgpQMmO4/bskwdkMUCqizCOVbfeoMnG2A6HI0G3WBE8pnPSNv+fXLMymWybuEpsufNb8fK0vr8M5llYfDAiy6+SOwgd+Ud9Sh5oWim4jlRJReyiVhN0lpyOLpuIYMYrqGc1ipovd9wfkjYSoTozqhTVdmR/XGWJswTtXSMxOc2hTSJHStTnxddB63G5vXes2ePbN+xXdavXx9yebd3tAf18wMPPJDYO0uS5dnOWK5ch6PREPNvtO8Ta5iPfbdlZvlAWf5FreWxcqzvA8Qa1mP+Ud7HbqP9mLx6ZflH1o/U/pD7RQ6HwzGw4Sk4HA6Hw5EL6/Dzd2xUd0so5BHL9cyLbZ8VrMWCntg6WfvOCqp4zDFiOWt/tQjn2PZ2Wa0yHI7+gL4vmRMazwk/Y0ufN331i/Lc710pa665Lqw3/NavRcvCwIHYJgxcqm73JBVGDkFLcjpF0poyCirNhSa4iyYXst2XPkZuo6csU+8zShZLtfJa/46tq2amiJfkOIrVym6uX3X80pO/2papy0nZGvUVaTVwfXfs2CHbt28vT7eVpjt3yM5du2Tb1q1hPgZiQ97npJ6FA++14fbOMVAQI0Sz3v/2GdbTQqFQ0y/JKi9vf3a9ev2lWF3rrY9dphvu82D3G5uX59c5HA6HY2DBCWiHw+Fw5CIWlDAfIElm5ggkuFyXkVV21vK8ACsvaKs1PxbM2PrmlZkXmGVtz33kLXc4BhL0M9je3h6mJKHHleaf9t/fkHEXvFleKpHQHWedK6P+7i+r8kLv3r07KGnHjB6TlGlRUKkeklzImrAwhHJ5VpxITp53KVTbg0r5qfUKaXJbk9Wx/VXtQ5HA0eOqlGvrWEWqR8hmngNNMoXtioZ81vs3dddkONTLW7ZskS1bt8jWLVtla4lcBuG8t0RA7ykt29g2XLaNGy/bJk2R7jFtMuLee2Xftm2hEYJkk1Ux6/OY1RtGr+dwNDqyGqJ17wB9v9vfett6/Qprx/DM5a1L22BJ4Kx1837r71nPa1ZanRjstjHyOuu3w+FwOAY+nIB2OBwOR03EFCo64IKCkYGWVT7XUq/kLctSIMcGs4rVLbZOPUSzLuNA1HxR4sosczgGE/g8YWBC3TgEReysX/9cRm7fKs9d+NYwOOHIWz6bSskB4nrnjp0hFUeV0teogTWxap/JKuLWrF8umIsKUcK4qlGqQuYSWlGtt0+VWyxWEeYpMlhtnwxGmKWGLqZJ5NTyiBI7dVxSSO2f1wnnG9cF5xwDQIJkxmdbiUje1tEp+0tl7hw2XHaMGSubJ0+TvTPmSndrq+wdP0Fk6DAZtm+vDFv5qoz/0XekY+fOKAEXI/A1ERYj4hyOgQxN3OoGITbKWGKX22SVFVse801i+yeyBAB5Pk2tOub5ajFEbbSZHmiZDofD4RjYcALa4XA4HDURI1SBWDADdU6s6yTX19OsebH59QRHNvjLqnPeb6lRVx1AZW3vwZSjmYD7Hc89CE6SjSA68X3SY7+RC197VR66+oOBhB5+29eTlBxQ3W7dtlWOPPLIKoI4ec6KETJaTNqKoqTSUmQRvz1FFCQrzYdN06EJ7xQ5HSGY0yfFHI+kU3nYFCE8jyw7ENTcRzGSLqNYrWZmGfvb9wd1OVJjgGDeuHFjOM+7d+0OqmbMh/J8Z4lE3lW6btvOv0T2v+HMUglDpKtEQLd1l2x45TpiD0NL6wwpkc9jHrpXRt3/64TIziKzsuZlEV8H0sjncDQS7DPARvkYsshXW579nkUu5/ky3E9eg3tWGfU+01ll5K3jhLPD4XA0N5yAdjgcDkdNZKmTbQqOGMlQSwHNsrL2WY96Jxbc1LPfA0UWoe5wNDP4vHFQQhLS+IBkHlsiK8//z3+VV950sSy95jppv/itMvrGT0rHhnUh7YOYfMc6RUZCxup9SaRBTKfokOq8z8n2lXk6XUXYnMRwsWd5FQkj1d3FtQK5soOe49HkM8njolQdS0xRrY/Hrs/jANEMEjkomLduC6pmfAf5jA8GCQTpjHVAOOMD4njYsGHldClz50v7u98n3RMmls5xiX4u7b+lsyN1SgW9Wvbtk3F3/0yGPf2E7CuRz7zO+jwk9Zf6iLC894TD0ciINUJbUpn+Ucy3qUVA1yKI9fda/tDBkMZ5vletbR0Oh8PhyIMT0A6Hw+GoG1YJrdNuEDpQ0evoYMgGM/UESfUqaA6UdM4K4urZzuFwlKGJF6pj8Z1E9OgSEb3g53fKuBLp/NLZF8jOL341KKFXrFgh5517XlJG1bOoSOKeWWY9S2BX1MM2LUayTTFdDolnfSypQQSLhRSJnJSnVdgVpBq+pDqNRmwbfawJj11RkXOgRwz2t2nTpkDYB8K59IGSGalPMMUH6mb8xnZQKQ8dOjRlm5EqCZ/i8BHS8c4/kPbTzqgcSzGZiiGZhm1YKxO//23pXL9e2lW+Z23XY3lcs2y3Xe7Es2OgIkZCk3gGdG8wIK9HmG0wj63L8u26WUR2Pc+WfQ5tCp08MtzhcDgcjgOFE9AOh8PhqAuxAIWgyscOQmVhgxl+Ykoivb4lqw+FMHblncPRt+BghCQqQYhCCY3phEcelHNWLpdXzrtYVnzkBnl13WtSLKicy0WRrIH7CJvOgvNiZGjq+TYKaZ2vOZrqQ6uR1fbJ/iRtn6L1NwpuXZbOow+SGaplqJU3b9ksmzZuCoQy5pFY3rt3b/hgHUwBzAfR1dramtQFdnj48OGpc5DsvvR99yf+vKx65vwIkYzvY554VEbed7d07NyRDDaoFZ0kw+wgtBZ5jYX2HeBwDBRYv4T+j34e9DRvYGbr21iiWZdbK61G3jw9P9ZjzQlnh8PhcPQlnIB2OBwOR92IkTuA7W5qu2pqBXRWagytoLSIBWv2d55y50DKcjgcBw/9DDIPND9U5o4pTU+847syaeWrsm3RaVLsLpaJWpUTWedZtnmZE+K3aPIiS496OUZqphTP5f96iG/uS6fSMMell2lVc2J/TN5oTWDT/oE4hpoZn82bNyeKZsxHiox9+/fJ/n37AyEN0h7zmPKCimgSVDxukM9WEWkJMH1t2p56XNovuSwonotcR5HQLdu3yYSf/FBalr8SrleXUj5rZDVG6vmWdKtFRjscjY6sBhN975OM1r5JLX+I62u1s91vPc+ILrdeX8ifPYfD4XAcDjgB7XA4HI66EVMY6u9ZAY9dFiMtDmT/MaLZgymHo3GgCUgQqUzHQTU0lLsTH3tIJm9cIx3v/4AMa2tLKZSBJH1FMT6YoN5PClQ0F1W+Z7N+NI+02j5MihlK7EL2ss6OznCMe/ftTdJigGTGQIBIoUFimfmxcR5A8vIc8ZyhDBL4msjX9jNm+2LnpqrXx5rV5Zobrr1YWm/EK0tk/I9ul86dO2VfpU5aqZy1D6vUtOvYcqoaDVwB7RhAsL2o9PxaqTZiacls2VnPbmzdGNlcyzY4HA6Hw9EfcALa4XA4HIcEG1xlEQu11DtZJIQOxPRv+93hcDQeLPmoSWgQr22tbdLRvr9MQNuB96hINvNJTOscy3p+olBWiupUnmZNSJv8zIkyutCzX1sG1chULYNkDp/tpc/OHbJ169agcCaxrI+ZhDJBdTFzZVvVeC0C2J5rm0aD88O+5syX9ksvK03nyahtW2T3+EmV9CdSVj3/6PsyZNn/yP6K0loPKsnyLLGVlbtWz8v7retZi2xzOBoNWT5LrLE+q2dAHvKet6x1HA6Hw+FoVDgB7XA4HI66EAtyqrq4RwKgrPygWWRDLTWfw+EYWNCko1ZCg6DFFCTuqFGjklzJCekcNpaevMpFM6ifUSpXKZLNTztAIOexjkz9QRKa83fv2i3bSgQtci+DaN65Y2fyG0Qz6g8lMwhmrM8pCVydqkjnUdZ5lXXObC63xG2s94klmWN2umvufNl/yWVh2trRLnOeflymvfis/PaK90jH2LEy+rcPy6h77pKuXTtlf4UwL2Yole332DpZZLM+rrwyHY6BgljDOxDLjX6g9/eB+EcOh8PhcAwEOAHtcDgcjoOC7faZ1YU6tl6Wms+DK4dj8EKroUlEg4RGioopU6b0KJ0L1baAeZUtCa2JY7VyVZ7mcgU4SQ/2FdTJ7R0hbQZJZeRlBsm8fdv2MBAgPkipAdUz0mgwhQbKGlIYEiWEYwSsnYdy9PnJsouxHiBZv3lsXfMWSPulb0uI55kvPCPTf/ecdO3cITtKxzDpnl9I14b1Ulj1WiCecR54Turdl52fR1Lr6++23jFYYRX99TQcORwOh8PRDHAC2uFwOBwHhTzFXT3rOxyO5oMmXpnK4vXXXpdjjz22Wu2rSOSUKtmQz5qwzkrngO/tJRIWBDLIZJDMJJsx3bBhQ/gOchlEM8hlrIsPB//DwGJtSBVSAgcZs8jqWh+zf3bdvB4l9dpXoHPOfNn/5rdJ99wF0trZLrMC8fxsiXjeKXtKxwe1No6ruPEJ6SodJ1ODxAYarEUy5y2zBDSP2dMpOQYT6m2oqTXP4XA4HI7BDiegHQ6Hw+FwOByHDZqEBiG5avWq6DqJejmSA1pPtSqapDbTZYSUGRWimb+huMY8pM7QRDPrgzJINLP8lpaWpM7sXh/rdm+75GtiPE/dXI/6WZdnv8uIkdJx5mLpXHiKdFaI52NeeFqOLBHPnaVj3lUhnqE416Q604XoT619ZTUm1iKps8hsH4DQ4XA4HA6HY/DDCWiHw+FwOBwOR78ABOTatWur5lPZHKZFqR7Qq/TXXewOJPLmzZtl06ZNYfA/EMv4gGzdum1rSKWBwQGhasZ2mG9TArFsqJpjyuasPMsxlbWe6vl5ise8XLHcNovc7pp/rHSctEg6zzxbukeOlAnr18jkpx6RKS+/JN27dsru0vFC1b1PEdB2gEFLpucR0Vl1zFpmy6uHtHc4HA6Hw+FwDD44Ae1wOBwOh8Ph6DeQgE4GFqyk3pBuka7urkS1C0IZ6uWtW7YGsjkQzq2tsr+lVbaMGiO79+2Vfc88I+1rVycK32HDhpXLVgQnSWZM80hPS/zG5vO3RRY5nZVmoxZJrRXK3ZMmSceZ50hniXzumndsyO88Y9n/yOSVy2X0qpWBaCbxjHPHKc9JTPF8sGrnLPK4FkGdReo7HA6Hw+FwOAYnnIB2OBwOh8PhcPQbNm7cKLt37Q5kM8hSqJahaAbZjJQZUC9jSiKVA/e1lshnGT9Bth0zWzaUiNjdEyaJXPAWGbJmtbQ99ZgMXbZUCiUymsjLsRwjUfMGWM0iXLluXq7j2H5jRG4qr/P844LauWvBceE7lkyE2vmJh2Xay7+T4u5d4dxsrSidqXbWxHNsEMTeJpZj5LKFq50dDofD4XA4mg+F4447zj1Ah8PhcDgcDke/AITk1KlTZdKkSTJ69OgwDwMFIpUGlM8gUbHO0KFDA+k8fPjw8B0fKJyRrxnzO8eNl53TjpT1s+fJ9qnTQzlDtm6RluVLpeXF50rE9CoZsm1rbl0OJh1ErZQctmy7LErkjhwlnaecFlTOmBZHjpZiadMJJUJ96muvyvSXXxTZszucGxLOmnRGbmem2iBhz0EPs+oVU2HXQ0RnIU8l7iS0w+FwOBwOR3PBCWiHw+FwOBwOR7+D5CymSI+BKQb/w3dMQTLjOwlnfEhKYx6+Y4pPx9hxJTL6CNl81DElMvoI6WwbGsqGOrqlROIWQEaXpi3LXonWxZLKmjC1xGo9pDLnxQhd5G7unjg5qJu7SvXtXHC8FCdPKRHOBWkrkclTXlsuE1a/LpNfXRpIZyiaSTZDFQ6ymUpnEs/4XivNRowwjx3bgZLxtRTQDofD4XA4HI7mgxPQDofD4XA4HI6GAAcFJAlN8pmENEloPR/zSFCTgOaHy/aVCN0dU4+UbVOnya4JE2UfFMXlHZaV0Vu3BHJ6yNpVUtizt/R7sxS2bE7qlUWm5qWw4PEkRPCkyVIcMUq6jp4p3ZMnS3fpd+exJ4Qpkl9D4dxaIpInluowsUSOj1u9UkZv3JCQyyCdMaXqGWSzJpyZ31mn2rB1PBRFs11XE82uaHY4HA6Hw+Fw5MEJaIfD4XA4HA5Hv0MroDUBbT9aIa2nIJr5oUKaBDQJaZLWSNeBnNG7S2T0romTZN+o0bJz/OTyIIggg1knENH79kph716RvXsqU/zeE5ZrJzp8HzWqRDKPrAwWOEW6R44SKf3umjw5kN1FKR8b1h2xa6eM3rJRRuzYIRPXvC6jNq2Xodu2JoQylc34TfJZz2NeZ008h3oU8wcU5DmuhzD2PM4Oh8PhcDgcjt6AE9AOh8PhcDgcjn7HgRDQ/Oj19Uen7tDpO7RaWhPW+GC7PSXSuHPoUNk/dqzsHTVW9o8eI3tLHxDHmN8xdFiYdg4bniioOQWgYG5t3x/SZ4wsEcwtpe+YN2LnDhle+rTs3ytjN28MRDPJYxLO9gOymcpm/R3b1RpQ8GAUzTyXrmh2OBwOh8PhcPQ2WsXhcDgcDofD4ehnaOLT5hHWZKvNx0zlL7cBQNZaIpvEND8kpFOE9Y4d4fuo0rwxEcJb1wvLbP0JTRCTMCZ5vKc03akGCOR8m05Dk82xnM487nrPqYY9z/YYnHx2OBwOh8PhcPQmnIB2OBwOh8PhcDQEYgPYgWgF2asJXf2bIKHK5Xoey85K32HTe+jvgCaiWVYWYa4/JKJBIFsiGvNjqTT4m8duSfg8ZJH3+vxmqaYdDofD4XA4HI6+ghPQDofD4XA4HI5+R5b62ZK7QEz1rAlhkLh2nt2XnsYIZk1A62W2Tnb/Vv2s8zNr8tnmbdbr59XdnqM8wtnCCWeHw+FwOBwOR3/ACWiHw+FwOBwOR8NAE7lIh2EVu5qUjf22IBmtl9v0E7F0FJakziOzNSFu66KJZk0w63UwP4tMt/Ni8x0Oh8PhcDgcjkaGE9AOh8PhcDgcjn5FLLdyjMwlgauJ2Cw1Mqd5aSfsckvu5g3GF9uf3VfeNlnHb48tRo47HA6Hw+FwOBwDCU5AOxwOh8PhcDj6FTbdhp1PhbDO7cz17WB8WkFt52cpi+02tdJgxOp4IKi3vJia2uFwOBwOh8PhGGhwAtrhcDgcDofD0RCoRbBqUlnnZc5SHdcic7NSZmTtU+/bps2IwQljh8PhcDgcDofDCWiHw+FwOBwORwMhL32FJZ3zQII4Tz18oLmU88jqWkpph8PhcDgcDoejWeEEtMPhcDgcDoejoZA1QCBJZZszmd81YqrovJQaWbmW6yWVnXx2OBwOh8PhcDjicALa4XA4HA6Hw9FwsORyFnmcRTRnwabOyCOxHQ6Hw+FwOBwOx6HDCWiHw+FwOBwOR0Mhi1C204NNe3EghLXD4XA4HA6Hw+E4NAwRh8PhcDgcDoejAZE1uKBenpU2w+Z3dpLZ4XA4HA6Hw+HoH7gC2uFwOBwOh8PR0IgpnvndEss2vUasHIfD4XA4HA6Hw3H44Apoh8PhcDgcDseAgFU111rH4XA4HA6Hw+Fw9D+cgHY4HA6Hw+FwOBwOh8PhcDgcDkefwAloh8PhcDgcDofD4XA4HA6Hw+Fw9AmcgHY4HA6Hw+FwOBwOh8PhcDgcDkefwAloh8PhcDgcDofD4XA4HA6Hw+Fw9AmcgHY4HA6Hw+FwOBwOh8PhcDgcDkefwAloh8PhcDgcDofD4XA4HA6Hw+Fw9AmcgHY4HA6Hw+FwOBwOh8PhcDgcDkefwAloh8PhcDgcDofD4XA4HA6Hw+Fw9AmcgHY4HA6Hw+FwOBwOh8PhcDgcDkefwAloh8PhcDgcDofD4XA4HA6Hw+Fw9AmcgHY4HA6Hw+FwOBwOh8PhcDgcDkefwAloh8PhcDgcDofD4XA4HA6Hw+Fw9AmcgHY4HA6Hw+FwOBwOh8PhcDgcDkefwAloh8PhcDgcDofD4XA4HA6Hw+Fw9AmcgHY4HA6Hw+FwOBwOh8PhcDgcDkefwAloh8PhcDgcDofD4XA4HA6Hw+Fw9An+f6G8oSkG13VwAAAAAElFTkSuQmCC;" vertex="1" parent="1">
          <mxGeometry x="798.5" y="40" width="360" height="200" as="geometry" />
        </mxCell>
        <mxCell id="2WiuTIW0TMASxZJj-PN0-3" value="" style="rounded=0;whiteSpace=wrap;html=1;fillColor=none;" parent="1" vertex="1">
          <mxGeometry x="1200" y="40" width="360" height="200" as="geometry" />
        </mxCell>
        <mxCell id="2WiuTIW0TMASxZJj-PN0-10" value="" style="rounded=0;whiteSpace=wrap;html=1;" parent="1" vertex="1">
          <mxGeometry x="1271.75" y="52.5" width="220" height="127.5" as="geometry" />
        </mxCell>
        <mxCell id="T8tFz2lEtMlEqN8IyblG-36" value="&lt;font color=&quot;#000000&quot;&gt;※ &lt;/font&gt;&lt;font color=&quot;#000000&quot;&gt;コンポーネントの構成 (想定)&lt;/font&gt;" style="rounded=0;whiteSpace=wrap;html=1;align=left;verticalAlign=bottom;fontColor=#808080;fillColor=none;strokeColor=none;" parent="1" vertex="1">
          <mxGeometry x="1201" y="20" width="379" height="20" as="geometry" />
        </mxCell>
        <mxCell id="T8tFz2lEtMlEqN8IyblG-39" value="" style="rounded=0;whiteSpace=wrap;html=1;fillColor=none;strokeColor=none;" parent="1" vertex="1">
          <mxGeometry x="780" y="20" width="120" height="60" as="geometry" />
        </mxCell>
        <mxCell id="WG17gEwbPGLVQM60f4UX-3" value="" style="rounded=0;whiteSpace=wrap;html=1;" vertex="1" parent="1">
          <mxGeometry x="1281.75" y="60" width="200" height="100" as="geometry" />
        </mxCell>
        <mxCell id="WG17gEwbPGLVQM60f4UX-4" value="" style="rounded=0;whiteSpace=wrap;html=1;rotation=0;" vertex="1" parent="1">
          <mxGeometry x="1376.25" y="165.63" width="10" height="8.75" as="geometry" />
        </mxCell>
        <mxCell id="WG17gEwbPGLVQM60f4UX-7" value="" style="rounded=0;whiteSpace=wrap;html=1;" vertex="1" parent="1">
          <mxGeometry x="1281.75" y="165" width="80" height="10" as="geometry" />
        </mxCell>
        <mxCell id="WG17gEwbPGLVQM60f4UX-8" value="" style="rounded=0;whiteSpace=wrap;html=1;" vertex="1" parent="1">
          <mxGeometry x="1401.75" y="165" width="80" height="10" as="geometry" />
        </mxCell>
        <mxCell id="WG17gEwbPGLVQM60f4UX-9" value="" style="rounded=0;whiteSpace=wrap;html=1;" vertex="1" parent="1">
          <mxGeometry x="1210" y="50" width="40" height="10" as="geometry" />
        </mxCell>
        <mxCell id="WG17gEwbPGLVQM60f4UX-10" value="" style="rounded=0;whiteSpace=wrap;html=1;" vertex="1" parent="1">
          <mxGeometry x="1210" y="60" width="40" height="15" as="geometry" />
        </mxCell>
        <mxCell id="WG17gEwbPGLVQM60f4UX-13" value="" style="rounded=0;whiteSpace=wrap;html=1;" vertex="1" parent="1">
          <mxGeometry x="1510" y="50" width="40" height="10" as="geometry" />
        </mxCell>
        <mxCell id="WG17gEwbPGLVQM60f4UX-14" value="" style="rounded=0;whiteSpace=wrap;html=1;" vertex="1" parent="1">
          <mxGeometry x="1356.75" y="190" width="50" height="45" as="geometry" />
        </mxCell>
        <mxCell id="WG17gEwbPGLVQM60f4UX-15" value="" style="rounded=0;whiteSpace=wrap;html=1;" vertex="1" parent="1">
          <mxGeometry x="1330" y="200" width="20" height="20" as="geometry" />
        </mxCell>
        <mxCell id="WG17gEwbPGLVQM60f4UX-16" value="" style="rounded=0;whiteSpace=wrap;html=1;" vertex="1" parent="1">
          <mxGeometry x="1290" y="190" width="30" height="40" as="geometry" />
        </mxCell>
        <mxCell id="WG17gEwbPGLVQM60f4UX-17" value="" style="rounded=0;whiteSpace=wrap;html=1;" vertex="1" parent="1">
          <mxGeometry x="1260" y="190" width="20" height="26.67" as="geometry" />
        </mxCell>
        <mxCell id="WG17gEwbPGLVQM60f4UX-18" value="" style="rounded=0;whiteSpace=wrap;html=1;" vertex="1" parent="1">
          <mxGeometry x="1230" y="190" width="10" height="13.33" as="geometry" />
        </mxCell>
        <mxCell id="WG17gEwbPGLVQM60f4UX-19" value="CameraCapture.js" style="rounded=0;whiteSpace=wrap;html=1;" vertex="1" parent="1">
          <mxGeometry x="1291.75" y="67.5" width="180" height="85" as="geometry" />
        </mxCell>
        <mxCell id="WG17gEwbPGLVQM60f4UX-20" value="" style="rounded=0;whiteSpace=wrap;html=1;flipV=0;flipH=0;" vertex="1" parent="1">
          <mxGeometry x="1420" y="200" width="20" height="20" as="geometry" />
        </mxCell>
        <mxCell id="WG17gEwbPGLVQM60f4UX-21" value="" style="rounded=0;whiteSpace=wrap;html=1;flipV=0;flipH=0;" vertex="1" parent="1">
          <mxGeometry x="1450" y="190" width="30" height="40" as="geometry" />
        </mxCell>
        <mxCell id="WG17gEwbPGLVQM60f4UX-22" value="" style="rounded=0;whiteSpace=wrap;html=1;flipV=0;flipH=0;" vertex="1" parent="1">
          <mxGeometry x="1490" y="190" width="20" height="26.67" as="geometry" />
        </mxCell>
        <mxCell id="WG17gEwbPGLVQM60f4UX-23" value="" style="rounded=0;whiteSpace=wrap;html=1;flipV=0;flipH=0;" vertex="1" parent="1">
          <mxGeometry x="1530" y="190" width="10" height="13.33" as="geometry" />
        </mxCell>
        <mxCell id="WG17gEwbPGLVQM60f4UX-45" value="" style="rounded=0;whiteSpace=wrap;html=1;fillColor=none;strokeColor=#808080;" vertex="1" parent="1">
          <mxGeometry x="1600" y="40" width="359" height="200" as="geometry" />
        </mxCell>
        <mxCell id="WG17gEwbPGLVQM60f4UX-46" value="" style="rounded=0;whiteSpace=wrap;html=1;strokeColor=#808080;" vertex="1" parent="1">
          <mxGeometry x="1671.75" y="52.5" width="220" height="127.5" as="geometry" />
        </mxCell>
        <mxCell id="WG17gEwbPGLVQM60f4UX-48" value="&lt;font color=&quot;#000000&quot;&gt;※ &lt;/font&gt;&lt;font color=&quot;#000000&quot;&gt;コンポーネントのグループ分け(想定)&lt;/font&gt;" style="rounded=0;whiteSpace=wrap;html=1;align=left;verticalAlign=bottom;fontColor=#808080;fillColor=none;strokeColor=none;" vertex="1" parent="1">
          <mxGeometry x="1601" y="20" width="379" height="20" as="geometry" />
        </mxCell>
        <mxCell id="WG17gEwbPGLVQM60f4UX-49" value="" style="rounded=0;whiteSpace=wrap;html=1;strokeColor=#808080;" vertex="1" parent="1">
          <mxGeometry x="1681.75" y="60" width="200" height="100" as="geometry" />
        </mxCell>
        <mxCell id="WG17gEwbPGLVQM60f4UX-50" value="" style="rounded=0;whiteSpace=wrap;html=1;rotation=0;strokeColor=#808080;" vertex="1" parent="1">
          <mxGeometry x="1776.25" y="165.63" width="10" height="8.75" as="geometry" />
        </mxCell>
        <mxCell id="WG17gEwbPGLVQM60f4UX-51" value="" style="rounded=0;whiteSpace=wrap;html=1;strokeColor=#808080;" vertex="1" parent="1">
          <mxGeometry x="1681.75" y="165" width="80" height="10" as="geometry" />
        </mxCell>
        <mxCell id="WG17gEwbPGLVQM60f4UX-52" value="" style="rounded=0;whiteSpace=wrap;html=1;strokeColor=#808080;" vertex="1" parent="1">
          <mxGeometry x="1801.75" y="165" width="80" height="10" as="geometry" />
        </mxCell>
        <mxCell id="WG17gEwbPGLVQM60f4UX-53" value="" style="rounded=0;whiteSpace=wrap;html=1;strokeColor=#808080;" vertex="1" parent="1">
          <mxGeometry x="1610" y="50" width="40" height="10" as="geometry" />
        </mxCell>
        <mxCell id="WG17gEwbPGLVQM60f4UX-54" value="" style="rounded=0;whiteSpace=wrap;html=1;strokeColor=#808080;" vertex="1" parent="1">
          <mxGeometry x="1610" y="60" width="40" height="15" as="geometry" />
        </mxCell>
        <mxCell id="WG17gEwbPGLVQM60f4UX-55" value="" style="rounded=0;whiteSpace=wrap;html=1;strokeColor=#808080;" vertex="1" parent="1">
          <mxGeometry x="1910" y="50" width="40" height="10" as="geometry" />
        </mxCell>
        <mxCell id="WG17gEwbPGLVQM60f4UX-56" value="" style="rounded=0;whiteSpace=wrap;html=1;strokeColor=#808080;" vertex="1" parent="1">
          <mxGeometry x="1756.75" y="190" width="50" height="45" as="geometry" />
        </mxCell>
        <mxCell id="WG17gEwbPGLVQM60f4UX-57" value="" style="rounded=0;whiteSpace=wrap;html=1;strokeColor=#808080;" vertex="1" parent="1">
          <mxGeometry x="1730" y="200" width="20" height="20" as="geometry" />
        </mxCell>
        <mxCell id="WG17gEwbPGLVQM60f4UX-58" value="" style="rounded=0;whiteSpace=wrap;html=1;strokeColor=#808080;" vertex="1" parent="1">
          <mxGeometry x="1690" y="190" width="30" height="40" as="geometry" />
        </mxCell>
        <mxCell id="WG17gEwbPGLVQM60f4UX-59" value="" style="rounded=0;whiteSpace=wrap;html=1;strokeColor=#808080;" vertex="1" parent="1">
          <mxGeometry x="1660" y="190" width="20" height="26.67" as="geometry" />
        </mxCell>
        <mxCell id="WG17gEwbPGLVQM60f4UX-60" value="" style="rounded=0;whiteSpace=wrap;html=1;strokeColor=#808080;" vertex="1" parent="1">
          <mxGeometry x="1630" y="190" width="10" height="13.33" as="geometry" />
        </mxCell>
        <mxCell id="WG17gEwbPGLVQM60f4UX-61" value="" style="rounded=0;whiteSpace=wrap;html=1;strokeColor=#808080;" vertex="1" parent="1">
          <mxGeometry x="1691.75" y="67.5" width="180" height="85" as="geometry" />
        </mxCell>
        <mxCell id="WG17gEwbPGLVQM60f4UX-62" value="" style="rounded=0;whiteSpace=wrap;html=1;flipV=0;flipH=0;strokeColor=#808080;" vertex="1" parent="1">
          <mxGeometry x="1820" y="200" width="20" height="20" as="geometry" />
        </mxCell>
        <mxCell id="WG17gEwbPGLVQM60f4UX-63" value="" style="rounded=0;whiteSpace=wrap;html=1;flipV=0;flipH=0;strokeColor=#808080;" vertex="1" parent="1">
          <mxGeometry x="1850" y="190" width="30" height="40" as="geometry" />
        </mxCell>
        <mxCell id="WG17gEwbPGLVQM60f4UX-64" value="" style="rounded=0;whiteSpace=wrap;html=1;flipV=0;flipH=0;strokeColor=#808080;" vertex="1" parent="1">
          <mxGeometry x="1890" y="190" width="20" height="26.67" as="geometry" />
        </mxCell>
        <mxCell id="WG17gEwbPGLVQM60f4UX-65" value="" style="rounded=0;whiteSpace=wrap;html=1;flipV=0;flipH=0;strokeColor=#808080;" vertex="1" parent="1">
          <mxGeometry x="1930" y="190" width="10" height="13.33" as="geometry" />
        </mxCell>
        <mxCell id="WG17gEwbPGLVQM60f4UX-66" value="" style="rounded=0;whiteSpace=wrap;html=1;fillColor=none;" vertex="1" parent="1">
          <mxGeometry x="1600" y="40" width="60" height="150" as="geometry" />
        </mxCell>
        <mxCell id="WG17gEwbPGLVQM60f4UX-67" value="" style="rounded=0;whiteSpace=wrap;html=1;fillColor=none;" vertex="1" parent="1">
          <mxGeometry x="1902.5" y="40" width="56.5" height="150" as="geometry" />
        </mxCell>
        <mxCell id="WG17gEwbPGLVQM60f4UX-68" value="" style="rounded=0;whiteSpace=wrap;html=1;fillColor=none;" vertex="1" parent="1">
          <mxGeometry x="1660" y="40" width="242.5" height="150" as="geometry" />
        </mxCell>
        <mxCell id="WG17gEwbPGLVQM60f4UX-69" value="" style="rounded=0;whiteSpace=wrap;html=1;fillColor=none;" vertex="1" parent="1">
          <mxGeometry x="1600" y="190" width="359" height="50" as="geometry" />
        </mxCell>
        <mxCell id="WG17gEwbPGLVQM60f4UX-72" value="&lt;font color=&quot;#000000&quot;&gt;※ &lt;/font&gt;&lt;font color=&quot;#000000&quot;&gt;コンポーネントのグループ分け(想定)&lt;/font&gt;" style="rounded=0;whiteSpace=wrap;html=1;align=left;verticalAlign=bottom;fontColor=#808080;fillColor=none;strokeColor=none;" vertex="1" parent="1">
          <mxGeometry x="2001" y="20" width="379" height="20" as="geometry" />
        </mxCell>
        <mxCell id="WG17gEwbPGLVQM60f4UX-94" value="" style="group" vertex="1" connectable="0" parent="1">
          <mxGeometry x="2000" y="40" width="379" height="280" as="geometry" />
        </mxCell>
        <mxCell id="WG17gEwbPGLVQM60f4UX-70" value="" style="rounded=0;whiteSpace=wrap;html=1;fillColor=none;strokeColor=#808080;" vertex="1" parent="WG17gEwbPGLVQM60f4UX-94">
          <mxGeometry width="359" height="200" as="geometry" />
        </mxCell>
        <mxCell id="WG17gEwbPGLVQM60f4UX-71" value="" style="rounded=0;whiteSpace=wrap;html=1;strokeColor=#808080;" vertex="1" parent="WG17gEwbPGLVQM60f4UX-94">
          <mxGeometry x="71.75" y="12.5" width="220" height="127.5" as="geometry" />
        </mxCell>
        <mxCell id="WG17gEwbPGLVQM60f4UX-73" value="" style="rounded=0;whiteSpace=wrap;html=1;strokeColor=#808080;" vertex="1" parent="WG17gEwbPGLVQM60f4UX-94">
          <mxGeometry x="81.75" y="20" width="200" height="100" as="geometry" />
        </mxCell>
        <mxCell id="WG17gEwbPGLVQM60f4UX-74" value="" style="rounded=0;whiteSpace=wrap;html=1;rotation=0;strokeColor=#808080;" vertex="1" parent="WG17gEwbPGLVQM60f4UX-94">
          <mxGeometry x="176.25" y="125.63" width="10" height="8.75" as="geometry" />
        </mxCell>
        <mxCell id="WG17gEwbPGLVQM60f4UX-75" value="" style="rounded=0;whiteSpace=wrap;html=1;strokeColor=#808080;" vertex="1" parent="WG17gEwbPGLVQM60f4UX-94">
          <mxGeometry x="81.75" y="125" width="80" height="10" as="geometry" />
        </mxCell>
        <mxCell id="WG17gEwbPGLVQM60f4UX-76" value="" style="rounded=0;whiteSpace=wrap;html=1;strokeColor=#808080;" vertex="1" parent="WG17gEwbPGLVQM60f4UX-94">
          <mxGeometry x="201.75" y="125" width="80" height="10" as="geometry" />
        </mxCell>
        <mxCell id="WG17gEwbPGLVQM60f4UX-77" value="" style="rounded=0;whiteSpace=wrap;html=1;strokeColor=#808080;" vertex="1" parent="WG17gEwbPGLVQM60f4UX-94">
          <mxGeometry x="10" y="10" width="40" height="10" as="geometry" />
        </mxCell>
        <mxCell id="WG17gEwbPGLVQM60f4UX-78" value="" style="rounded=0;whiteSpace=wrap;html=1;strokeColor=#808080;" vertex="1" parent="WG17gEwbPGLVQM60f4UX-94">
          <mxGeometry x="10" y="20" width="40" height="15" as="geometry" />
        </mxCell>
        <mxCell id="WG17gEwbPGLVQM60f4UX-79" value="" style="rounded=0;whiteSpace=wrap;html=1;strokeColor=#808080;" vertex="1" parent="WG17gEwbPGLVQM60f4UX-94">
          <mxGeometry x="310" y="10" width="40" height="10" as="geometry" />
        </mxCell>
        <mxCell id="WG17gEwbPGLVQM60f4UX-80" value="" style="rounded=0;whiteSpace=wrap;html=1;strokeColor=#808080;" vertex="1" parent="WG17gEwbPGLVQM60f4UX-94">
          <mxGeometry x="156.75" y="150" width="50" height="45" as="geometry" />
        </mxCell>
        <mxCell id="WG17gEwbPGLVQM60f4UX-81" value="" style="rounded=0;whiteSpace=wrap;html=1;strokeColor=#808080;" vertex="1" parent="WG17gEwbPGLVQM60f4UX-94">
          <mxGeometry x="130" y="160" width="20" height="20" as="geometry" />
        </mxCell>
        <mxCell id="WG17gEwbPGLVQM60f4UX-82" value="" style="rounded=0;whiteSpace=wrap;html=1;strokeColor=#808080;" vertex="1" parent="WG17gEwbPGLVQM60f4UX-94">
          <mxGeometry x="90" y="150" width="30" height="40" as="geometry" />
        </mxCell>
        <mxCell id="WG17gEwbPGLVQM60f4UX-83" value="" style="rounded=0;whiteSpace=wrap;html=1;strokeColor=#808080;" vertex="1" parent="WG17gEwbPGLVQM60f4UX-94">
          <mxGeometry x="60" y="150" width="20" height="26.67" as="geometry" />
        </mxCell>
        <mxCell id="WG17gEwbPGLVQM60f4UX-84" value="" style="rounded=0;whiteSpace=wrap;html=1;strokeColor=#808080;" vertex="1" parent="WG17gEwbPGLVQM60f4UX-94">
          <mxGeometry x="30" y="150" width="10" height="13.33" as="geometry" />
        </mxCell>
        <mxCell id="WG17gEwbPGLVQM60f4UX-85" value="" style="rounded=0;whiteSpace=wrap;html=1;strokeColor=#808080;" vertex="1" parent="WG17gEwbPGLVQM60f4UX-94">
          <mxGeometry x="91.75" y="27.5" width="180" height="85" as="geometry" />
        </mxCell>
        <mxCell id="WG17gEwbPGLVQM60f4UX-86" value="" style="rounded=0;whiteSpace=wrap;html=1;flipV=0;flipH=0;strokeColor=#808080;" vertex="1" parent="WG17gEwbPGLVQM60f4UX-94">
          <mxGeometry x="220" y="160" width="20" height="20" as="geometry" />
        </mxCell>
        <mxCell id="WG17gEwbPGLVQM60f4UX-87" value="" style="rounded=0;whiteSpace=wrap;html=1;flipV=0;flipH=0;strokeColor=#808080;" vertex="1" parent="WG17gEwbPGLVQM60f4UX-94">
          <mxGeometry x="250" y="150" width="30" height="40" as="geometry" />
        </mxCell>
        <mxCell id="WG17gEwbPGLVQM60f4UX-88" value="" style="rounded=0;whiteSpace=wrap;html=1;flipV=0;flipH=0;strokeColor=#808080;" vertex="1" parent="WG17gEwbPGLVQM60f4UX-94">
          <mxGeometry x="290" y="150" width="20" height="26.67" as="geometry" />
        </mxCell>
        <mxCell id="WG17gEwbPGLVQM60f4UX-89" value="" style="rounded=0;whiteSpace=wrap;html=1;flipV=0;flipH=0;strokeColor=#808080;" vertex="1" parent="WG17gEwbPGLVQM60f4UX-94">
          <mxGeometry x="330" y="150" width="10" height="13.33" as="geometry" />
        </mxCell>
        <mxCell id="WG17gEwbPGLVQM60f4UX-90" value="" style="rounded=0;whiteSpace=wrap;html=1;fillColor=none;strokeColor=#888888;" vertex="1" parent="WG17gEwbPGLVQM60f4UX-94">
          <mxGeometry width="60" height="150" as="geometry" />
        </mxCell>
        <mxCell id="WG17gEwbPGLVQM60f4UX-91" value="" style="rounded=0;whiteSpace=wrap;html=1;fillColor=none;strokeColor=#888888;" vertex="1" parent="WG17gEwbPGLVQM60f4UX-94">
          <mxGeometry x="302.5" width="56.5" height="150" as="geometry" />
        </mxCell>
        <mxCell id="WG17gEwbPGLVQM60f4UX-92" value="" style="rounded=0;whiteSpace=wrap;html=1;fillColor=none;strokeColor=#888888;" vertex="1" parent="WG17gEwbPGLVQM60f4UX-94">
          <mxGeometry x="60" width="242.5" height="150" as="geometry" />
        </mxCell>
        <mxCell id="WG17gEwbPGLVQM60f4UX-93" value="" style="rounded=0;whiteSpace=wrap;html=1;fillColor=none;strokeColor=#888888;" vertex="1" parent="WG17gEwbPGLVQM60f4UX-94">
          <mxGeometry y="150" width="359" height="50" as="geometry" />
        </mxCell>
        <mxCell id="WG17gEwbPGLVQM60f4UX-95" value="" style="rounded=0;whiteSpace=wrap;html=1;fillColor=none;" vertex="1" parent="WG17gEwbPGLVQM60f4UX-94">
          <mxGeometry y="150" width="359" height="50" as="geometry" />
        </mxCell>
        <mxCell id="WG17gEwbPGLVQM60f4UX-96" value="" style="rounded=0;whiteSpace=wrap;html=1;fillColor=none;" vertex="1" parent="WG17gEwbPGLVQM60f4UX-94">
          <mxGeometry width="359" height="150" as="geometry" />
        </mxCell>
        <mxCell id="WG17gEwbPGLVQM60f4UX-97" value="&lt;font color=&quot;#000000&quot;&gt;実装ファイル&lt;br&gt;&lt;/font&gt;&lt;span style=&quot;color: rgb(0, 0, 0); background-color: initial;&quot;&gt;- App.js&lt;/span&gt;&lt;font color=&quot;#000000&quot;&gt;&lt;br&gt;&lt;/font&gt;" style="rounded=0;whiteSpace=wrap;html=1;align=left;verticalAlign=top;fontColor=#808080;fillColor=none;strokeColor=none;" vertex="1" parent="WG17gEwbPGLVQM60f4UX-94">
          <mxGeometry y="200" width="360" height="80" as="geometry" />
        </mxCell>
        <mxCell id="WG17gEwbPGLVQM60f4UX-98" value="&lt;font color=&quot;#000000&quot;&gt;実装ファイル&lt;br&gt;&lt;/font&gt;&lt;span style=&quot;color: rgb(0, 0, 0); background-color: initial;&quot;&gt;- App.js&lt;/span&gt;&lt;font color=&quot;#000000&quot;&gt;&lt;br&gt;&lt;/font&gt;" style="rounded=0;whiteSpace=wrap;html=1;align=left;verticalAlign=top;fontColor=#808080;fillColor=none;strokeColor=none;" vertex="1" parent="1">
          <mxGeometry x="1601" y="240" width="359" height="80" as="geometry" />
        </mxCell>
        <mxCell id="WG17gEwbPGLVQM60f4UX-99" value="&lt;font color=&quot;#000000&quot;&gt;実装ファイル&lt;br&gt;&lt;/font&gt;&lt;span style=&quot;color: rgb(0, 0, 0); background-color: initial;&quot;&gt;-&amp;nbsp;&lt;/span&gt;&lt;font color=&quot;#000000&quot;&gt;CameraCapture.js&lt;br&gt;&lt;/font&gt;" style="rounded=0;whiteSpace=wrap;html=1;align=left;verticalAlign=top;fontColor=#808080;fillColor=none;strokeColor=none;" vertex="1" parent="1">
          <mxGeometry x="1200" y="240" width="360" height="80" as="geometry" />
        </mxCell>
      </root>
    </mxGraphModel>
  </diagram>
  <diagram id="fU1LcUq3jKoUjJj2Rdoz" name="ページ2">
    <mxGraphModel dx="1020" dy="496" grid="1" gridSize="10" guides="1" tooltips="1" connect="1" arrows="1" fold="1" page="1" pageScale="1" pageWidth="827" pageHeight="1169" math="0" shadow="0">
      <root>
        <mxCell id="0" />
        <mxCell id="1" parent="0" />
      </root>
    </mxGraphModel>
  </diagram>
</mxfile>
